<svg width="48" height="48" viewBox="0 0 48 48" fill="none" xmlns="http://www.w3.org/2000/svg">
<g clip-path="url(#clip0_736_3018)">
<path d="M23.2653 13.4843C22.792 13.3829 22.8091 13.4466 22.9949 13.7885C23.4567 14.7662 23.6254 15.4577 23.84 16.8311C23.9853 17.2342 24.0667 17.1503 24.2119 16.8311C24.3591 15.5841 24.5045 14.9074 25.0233 13.7885C25.255 13.4727 25.1985 13.4004 24.719 13.4843C24.1949 13.5853 23.7386 13.5856 23.2653 13.4843Z" fill="#E0E0E0"/>
<path d="M22.849 49.5124C22.8829 49.8842 22.5446 61.5475 22.3419 59.8572C22.1392 58.1669 15.4115 41.2635 16.8314 43.8328C18.2513 46.4021 22.8151 49.1405 22.849 49.5124Z" fill="#E0E0E0"/>
<path d="M16.0549 59.3839C16.0549 59.3839 17.61 70.1009 17.8466 70.202C18.0833 70.3031 19.9426 66.8892 20.3821 64.962C20.8216 63.0347 20.6526 57.7614 20.5512 56.747C20.4497 55.7325 16.7322 44.8832 16.5282 44.0695C16.3242 43.2557 15.5876 41.775 15.4464 42.1763C15.3051 42.5776 14.497 50.0375 14.7364 49.6814C14.8322 52.8135 15.047 54.8208 16.0549 59.3839Z" fill="#E0E0E0"/>
<path d="M13.8367 27.4204C13.7014 27.8261 12.1801 32.4576 12.383 32.6266C12.5858 32.7957 12.8225 32.2548 13.3296 31.2406C13.8367 30.2263 14.3438 27.7247 14.2761 27.5218C14.2085 27.319 13.9719 27.0147 13.8367 27.4204Z" fill="#E0E0E0"/>
<path d="M12.1126 19.8479C13.3296 18.8675 14.8509 17.7519 15.4933 17.9209C16.1356 18.09 16.7779 18.7999 16.7779 18.7999C16.7779 18.7999 16.9469 19.0027 16.7779 19.5436C16.6089 20.0845 16.3722 21.1664 15.358 22.451C14.3438 23.7357 11.7069 24.6146 11.7069 24.6146C11.7069 24.6146 10.6589 25.1893 10.4223 25.4598C10.1856 25.7303 10.5913 23.2624 10.5913 23.2624C10.5913 23.2624 10.8956 20.8283 12.1126 19.8479Z" fill="#E0E0E0"/>
<path d="M9.88132 27.9942C9.57707 29.955 9.40802 36.5811 9.64467 36.2768C9.88132 35.9726 11.1322 33.7751 11.5716 33.268C12.0111 32.761 12.4506 30.8677 12.7211 30.1578C12.9915 29.4479 13.6247 27.2165 13.7691 25.0868C13.7691 25.0868 13.7691 24.1741 12.8901 24.5121C12.0111 24.8502 11.4364 25.3911 11.4364 25.3911C11.4364 25.3911 10.1856 26.0334 9.88132 27.9942Z" fill="#E0E0E0"/>
<path d="M9.71242 36.6157C10.8957 34.7225 12.1127 32.8293 12.3493 33.2012C12.586 33.5731 12.586 34.3168 12.586 34.3168C12.3289 35.2883 12.0717 35.8733 11.5042 36.9537C11.0813 38.7484 10.6692 39.6851 9.91526 41.3486C9.95336 41.1811 7.44437 47.3999 7.31215 47.6028C7.17994 47.8057 7.24454 46.2506 7.31215 45.6758C7.37977 45.101 8.52919 38.5088 9.71242 36.6157Z" fill="#E0E0E0"/>
<path d="M7.07609 43.4781C6.56898 44.2219 4.70963 45.6756 4.50679 45.5403C4.30395 45.4051 5.48718 42.7682 5.48718 42.7682C5.88067 41.6743 6.07317 40.8957 6.29854 38.8128C6.29854 38.8128 6.7042 36.4125 6.73802 36.1421C6.77184 35.8717 7.98886 33.3023 8.39455 32.9305C8.80024 32.5586 8.80023 32.3557 9.07068 32.9981C9.34114 33.6404 9.34114 34.9251 9.34114 34.9251C9.34114 34.9251 9.27354 36.7168 8.73262 38.1367C8.1917 39.5566 7.58319 41.8216 7.58319 41.8216C7.58319 41.8216 7.5832 42.7344 7.07609 43.4781Z" fill="#E0E0E0"/>
<path d="M4.96957 46.153C5.3076 46.0178 6.86275 44.1246 6.99797 44.3613C7.1332 44.5979 6.59229 47.6743 6.79513 48.249C6.99797 48.8237 7.03178 48.6548 7.1332 49.4323C7.23462 50.2098 6.49087 51.2578 6.49087 51.2578C6.49087 51.2578 5.27383 52.5424 4.76673 52.5086C4.25963 52.4749 5.67951 51.8663 5.47667 50.345C5.27383 48.8237 5.1048 48.8237 4.96957 48.8237C4.83435 48.8238 4.32725 49.1279 4.15821 49.128C3.98918 49.1281 3.48208 48.9252 3.17782 48.7223C2.87356 48.5194 1.75794 48.6546 1.45368 48.6209C1.14942 48.5871 3.38063 46.4911 3.85395 46.4573C4.32728 46.4234 4.63154 46.2882 4.96957 46.153Z" fill="#E0E0E0"/>
<path d="M43.2344 46.153C42.8964 46.0178 41.3412 44.1246 41.206 44.3613C41.0708 44.5979 41.6117 47.6743 41.4088 48.249C41.206 48.8237 41.1722 48.6548 41.0708 49.4323C40.9694 50.2098 41.7131 51.2578 41.7131 51.2578C41.7131 51.2578 42.9301 52.5424 43.4372 52.5086C43.9443 52.4749 42.5245 51.8663 42.7273 50.345C42.9301 48.8237 43.0992 48.8237 43.2344 48.8237C43.3696 48.8238 43.8767 49.1279 44.0458 49.128C44.2148 49.1281 44.7219 48.9252 45.0262 48.7223C45.3304 48.5194 46.446 48.6546 46.7503 48.6209C47.0546 48.5871 44.8233 46.4911 44.35 46.4573C43.8767 46.4234 43.5724 46.2882 43.2344 46.153Z" fill="#E0E0E0"/>
<path d="M23.4703 41.9518C23.4703 41.9518 23.5598 47.1126 23.1323 47.4168C22.7047 47.7211 22.0624 47.3492 22.0624 47.3492C21.3435 46.6387 21.0654 45.7423 20.3601 43.5407C19.9378 41.446 19.6415 40.1779 19.7635 38.6609C19.9011 38.4695 20.3728 38.4021 20.3728 38.4021C20.3728 38.4021 22.8399 38.1538 23.145 39.1342C23.45 40.1145 23.3654 40.0784 23.4703 41.9518Z" fill="#E74C3C"/>
<path d="M18.34 38.1382C18.5117 42.1801 20.2984 45.6007 20.6726 45.88C21.0469 46.1592 19.3542 45.88 17.5624 43.7501C15.7707 41.6203 15.2298 39.5581 15.2298 39.5581C15.0086 39.1029 15.4054 34.9712 15.7707 35.2985C16.136 35.6258 16.1396 36.4171 17.0891 37.1241C18.0386 37.831 17.4022 37.3333 17.8667 37.6988C17.9882 37.7944 18.326 37.8092 18.34 38.1382Z" fill="#E0E0E0"/>
<path d="M18.2087 34.7397C18.1846 36.6117 18.8155 36.5318 18.6482 36.8357C18.4809 37.1395 17.9044 37.6808 16.9916 36.3624C16.0789 35.0439 16.2926 35.0628 16.0789 34.7397C15.8651 34.4165 15.9418 32.7457 15.5699 31.6639C15.198 30.5821 15.426 30.5073 15.2656 29.8383C15.1053 29.1693 15.3351 27.0487 16.2817 26.9303C17.2283 26.8119 18.3101 27.5726 18.4791 28.0459C18.6482 28.5192 18.5502 29.1628 18.4791 29.8383C18.4081 30.5138 18.4303 31.3252 18.3439 32.2042C18.2576 33.0831 18.2327 32.8676 18.2087 34.7397Z" fill="#E0E0E0"/>
<path d="M18.985 18.6137C18.5117 18.8165 17.7341 19.6955 17.1594 20.5407C16.5847 21.3859 15.6994 22.4287 15.2663 23.3804C14.5529 24.1372 14.5337 24.248 14.8944 24.6313C15.2551 25.0145 15.2324 24.9693 17.7679 26.2878C20.3034 27.6062 23.177 27.6401 23.346 26.3892C23.5151 25.1384 23.346 24.2932 23.346 22.4C23.346 20.5068 23.2785 20.1688 22.5685 19.256C21.8585 18.3432 19.4583 18.4108 18.985 18.6137Z" fill="#E0E0E0"/>
<path d="M19.46 36.0912C19.5276 35.4827 20.3727 34.1304 21.5222 34.3333C22.2431 34.4605 22.4321 34.4946 22.4727 34.5024C22.5287 34.5042 23.154 34.5434 23.3477 35.4151C23.5506 36.3279 23.3477 37.0378 23.3477 37.0378C23.3477 37.0378 23.4829 38.0858 22.1645 38.0858C20.846 38.0858 20.9136 38.0858 20.0347 37.8154C19.1557 37.5449 19.3923 36.6998 19.46 36.0912Z" fill="#E74C3C"/>
<path d="M19.1892 32.8464C19.2906 32.3731 20.2158 31.528 20.9133 31.1899C21.6108 30.8518 21.6909 30.5814 22.2318 30.6152C22.7727 30.649 23.1908 30.6828 23.3937 31.5956C23.5965 32.5083 23.3937 33.6578 23.3937 33.6578C23.3937 33.6578 23.5502 34.0634 22.2318 34.0634C20.9133 34.0634 20.8119 34.3677 20.0006 34.2324C19.1892 34.0972 19.0878 33.3197 19.1892 32.8464Z" fill="#E74C3C"/>
<path d="M19.3242 29.9052C19.4256 29.4319 19.8775 28.6206 20.575 28.2825C21.2725 27.9444 21.6568 27.674 22.1626 27.6768C22.6683 27.6797 22.8063 27.4711 23.2457 28.012C23.6852 28.553 23.7528 29.3643 23.3245 29.739C22.8961 30.1138 23.1443 30.1419 22.2992 30.2771C21.454 30.4123 20.6088 31.3251 19.7975 31.1899C18.9861 31.0546 19.2228 30.3785 19.3242 29.9052Z" fill="#E74C3C"/>
<path d="M20.6419 14.8952C20.3376 15.2333 15.8075 17.5997 16.1794 17.7687C16.5513 17.9378 20.6419 17.7011 21.5547 17.9378C22.4674 18.1744 22.7717 18.8506 22.7717 18.8506C23.3608 19.6715 23.6845 19.4253 23.8873 18.7491C24.0902 18.073 22.2984 13.0696 21.3856 12.6639C20.4728 12.2583 20.5743 12.2921 20.4728 12.833C20.3714 13.3739 20.9461 14.5571 20.6419 14.8952Z" fill="#E0E0E0"/>
<path d="M25.3478 49.4831C25.3138 49.8549 25.6522 61.5182 25.8549 59.8279C26.0576 58.1376 32.7852 41.2342 31.3654 43.8035C29.9455 46.3728 25.3817 49.1112 25.3478 49.4831Z" fill="#E0E0E0"/>
<path d="M32.1419 59.3546C32.1419 59.3546 30.5868 70.0716 30.3502 70.1727C30.1135 70.2738 28.2541 66.8599 27.8147 64.9327C27.3752 63.0054 27.5442 57.7321 27.6456 56.7177C27.747 55.7032 31.4646 44.8539 31.6686 44.0402C31.8726 43.2264 32.6092 41.7457 32.7504 42.147C32.8916 42.5483 33.6997 50.0082 33.4604 49.6521C33.3646 52.7842 33.1498 54.7915 32.1419 59.3546Z" fill="#E0E0E0"/>
<path d="M34.3602 27.3904C34.4955 27.7961 36.0168 32.4276 35.8139 32.5966C35.6111 32.7656 35.3744 32.2248 34.8673 31.2105C34.3602 30.1963 33.8531 27.6946 33.9208 27.4918C33.9884 27.289 34.225 26.9847 34.3602 27.3904Z" fill="#E0E0E0"/>
<path d="M36.0847 19.8176C34.8676 18.8372 33.3463 17.7216 32.704 17.8906C32.0617 18.0597 31.4194 18.7696 31.4194 18.7696C31.4194 18.7696 31.2503 18.9725 31.4194 19.5134C31.5884 20.0543 31.825 21.1361 32.8392 22.4207C33.8534 23.7054 36.4903 24.5844 36.4903 24.5844C36.4903 24.5844 37.5384 25.1591 37.775 25.4295C38.0116 25.7 37.606 23.2321 37.606 23.2321C37.606 23.2321 37.3017 20.798 36.0847 19.8176Z" fill="#E0E0E0"/>
<path d="M38.3155 27.9649C38.6197 29.9257 38.7888 36.5518 38.5521 36.2475C38.3155 35.9433 37.0646 33.7458 36.6251 33.2387C36.1856 32.7317 35.7462 30.8384 35.4757 30.1285C35.2053 29.4186 34.5721 27.1872 34.4277 25.0575C34.4277 25.0575 34.4277 24.1448 35.3067 24.4828C36.1856 24.8209 36.7604 25.3618 36.7604 25.3618C36.7604 25.3618 38.0112 26.0041 38.3155 27.9649Z" fill="#E0E0E0"/>
<path d="M38.4848 36.5861C37.3016 34.693 36.0846 32.7998 35.8479 33.1716C35.6113 33.5435 35.6113 34.2873 35.6113 34.2873C35.8684 35.2587 36.1256 35.8438 36.6931 36.9242C37.1159 38.7188 37.5281 39.6555 38.282 41.319C38.2439 41.1516 40.7529 47.3703 40.8851 47.5733C41.0173 47.7762 40.9527 46.2211 40.8851 45.6463C40.8175 45.0715 39.6681 38.4793 38.4848 36.5861Z" fill="#E0E0E0"/>
<path d="M41.1207 43.4488C41.6278 44.1926 43.4872 45.6463 43.69 45.511C43.8928 45.3758 42.7096 42.7389 42.7096 42.7389C42.3161 41.645 42.1236 40.8664 41.8982 38.7835C41.8982 38.7835 41.4926 36.3832 41.4588 36.1128C41.4249 35.8424 40.2079 33.273 39.8022 32.9012C39.3965 32.5293 39.3965 32.3264 39.1261 32.9688C38.8556 33.6111 38.8556 34.8958 38.8556 34.8958C38.8556 34.8958 38.9232 36.6875 39.4642 38.1074C40.0051 39.5273 40.6136 41.7923 40.6136 41.7923C40.6136 41.7923 40.6136 42.7051 41.1207 43.4488Z" fill="#E0E0E0"/>
<path d="M24.7273 41.9215C24.7273 41.9215 24.6378 47.0823 25.0654 47.3866C25.4929 47.6908 26.1352 47.3189 26.1352 47.3189C26.8541 46.6084 27.1322 45.7121 27.8375 43.5104C28.2598 41.4157 28.5562 40.1476 28.4341 38.6306C28.2965 38.4393 27.8248 38.3718 27.8248 38.3718C27.8248 38.3718 25.3577 38.1235 25.0526 39.1039C24.7476 40.0843 24.8323 40.0481 24.7273 41.9215Z" fill="#E74C3C"/>
<path d="M29.8568 38.1087C29.685 42.1506 27.8984 45.5712 27.5242 45.8504C27.1499 46.1296 28.8426 45.8504 30.6344 43.7206C32.4261 41.5908 32.967 39.5286 32.967 39.5286C33.1882 39.0734 32.7914 34.9416 32.4261 35.2689C32.0608 35.5963 32.0571 36.3875 31.1077 37.0945C30.1582 37.8015 30.7945 37.3038 30.3301 37.6692C30.2086 37.7648 29.8708 37.7797 29.8568 38.1087Z" fill="#E0E0E0"/>
<path d="M29.9886 34.7094C30.0126 36.5814 29.3818 36.5016 29.5491 36.8054C29.7164 37.1092 30.2928 37.6506 31.2056 36.3321C32.1184 35.0136 31.9047 35.0326 32.1184 34.7094C32.3321 34.3862 32.2554 32.7154 32.6274 31.6336C32.9993 30.5518 32.7713 30.477 32.9316 29.808C33.0919 29.1391 32.8621 27.0185 31.9156 26.9C30.969 26.7816 29.8872 27.5423 29.7181 28.0156C29.5491 28.4889 29.6471 29.1325 29.7181 29.808C29.7892 30.4835 29.767 31.2949 29.8534 32.1739C29.9397 33.0528 29.9645 32.8373 29.9886 34.7094Z" fill="#E0E0E0"/>
<path d="M29.2117 18.5844C29.685 18.7872 30.4625 19.6662 31.0372 20.5114C31.6119 21.3566 32.4973 22.3994 32.9304 23.3511C33.6438 24.1079 33.663 24.2187 33.3023 24.602C32.9416 24.9852 32.9642 24.94 30.4287 26.2585C27.8932 27.5769 25.0196 27.6108 24.8506 26.3599C24.6816 25.1091 24.8506 24.2639 24.8506 22.3707C24.8506 20.4776 24.9182 20.1395 25.6282 19.2267C26.3382 18.3139 28.7384 18.3815 29.2117 18.5844Z" fill="#E0E0E0"/>
<path d="M28.7378 36.0617C28.6702 35.4531 27.825 34.1009 26.6756 34.3037C25.9546 34.431 25.7657 34.4651 25.725 34.4729C25.6691 34.4746 25.0438 34.5139 24.85 35.3855C24.6472 36.2983 24.85 37.0083 24.85 37.0083C24.85 37.0083 24.7148 38.0563 26.0333 38.0563C27.3517 38.0563 27.2841 38.0563 28.1631 37.7858C29.0421 37.5154 28.8054 36.6702 28.7378 36.0617Z" fill="#E74C3C"/>
<path d="M29.0081 32.8161C28.9067 32.3428 27.9814 31.4977 27.2839 31.1596C26.5864 30.8215 26.5064 30.5511 25.9655 30.5849C25.4246 30.6187 25.0064 30.6525 24.8036 31.5653C24.6007 32.4781 24.8036 33.6275 24.8036 33.6275C24.8036 33.6275 24.647 34.0332 25.9655 34.0332C27.2839 34.0332 27.3854 34.3374 28.1967 34.2022C29.0081 34.0669 29.1095 33.2894 29.0081 32.8161Z" fill="#E74C3C"/>
<path d="M28.8731 29.8749C28.7717 29.4017 28.3197 28.5903 27.6222 28.2522C26.9248 27.9141 26.5404 27.6437 26.0347 27.6466C25.5289 27.6494 25.391 27.4409 24.9515 27.9818C24.512 28.5227 24.4444 29.334 24.8728 29.7088C25.3012 30.0835 25.0529 30.1116 25.8981 30.2468C26.7433 30.382 27.5884 31.2948 28.3998 31.1596C29.2112 31.0244 28.9745 30.3482 28.8731 29.8749Z" fill="#E74C3C"/>
<path d="M27.5554 14.8644C27.8597 15.2025 32.3897 17.5689 32.0179 17.738C31.646 17.907 27.5554 17.6704 26.6426 17.907C25.7298 18.1437 25.4256 18.8198 25.4256 18.8198C24.8364 19.6407 24.5128 19.3945 24.31 18.7184C24.1071 18.0422 25.8989 13.0389 26.8116 12.6332C27.7244 12.2275 27.623 12.2613 27.7244 12.8022C27.8258 13.3431 27.2511 14.5263 27.5554 14.8644Z" fill="#E0E0E0"/>
<path d="M23.9353 12.9675C22.1097 12.8999 20.7236 12.021 20.487 11.6153C20.2503 11.2096 20.4188 8.3963 20.1489 7.96417C19.879 7.53204 19.3773 4.76907 20.487 2.99459C21.5259 1.68717 22.0421 0.999997 24.0705 1C26.0989 1 26.3505 1.68868 27.3835 2.99459C28.4166 4.3005 28.1611 7.52477 27.823 7.96417C27.485 8.40357 27.6878 11.2096 27.3835 11.6153C27.0793 12.021 25.7608 13.0352 23.9353 12.9675Z" fill="#E0E0E0"/>
<path d="M28.4803 6.4867C28.4463 6.2502 27.7874 5.74586 27.6415 6.02758C27.4956 6.30931 27.5581 8.60287 27.6419 8.64878C27.7258 8.69469 27.9829 8.63978 28.1128 8.60193C28.2426 8.56408 28.5142 6.7232 28.4803 6.4867Z" fill="#E0E0E0"/>
<path d="M19.4269 6.42713C19.4609 6.19063 20.1198 5.68629 20.2657 5.96801C20.4116 6.24974 20.3492 8.54329 20.2653 8.58921C20.1814 8.63512 19.9243 8.58021 19.7945 8.54236C19.6646 8.50451 19.393 6.66363 19.4269 6.42713Z" fill="#E0E0E0"/>
</g>
<defs>
<clipPath id="clip0_736_3018">
<rect width="48" height="48" rx="24" fill="white"/>
</clipPath>
</defs>
</svg>
