<svg width="48" height="48" viewBox="0 0 48 48" fill="none" xmlns="http://www.w3.org/2000/svg">
<g clip-path="url(#clip0_736_3191)">
<path d="M15.6041 53.0152C15.7087 54.2696 17.3812 62.249 17.3464 61.2037C17.3115 60.1583 16.8934 55.0361 17.207 53.503C17.5206 51.9698 17.7645 49.914 17.7645 47.6142C17.7645 45.3145 16.1965 44.7221 16.1965 44.7221C16.1965 44.7221 15.2905 44.1994 15.2905 45.5584C15.2905 46.9173 15.4996 51.7607 15.6041 53.0152Z" fill="#E0E0E0"/>
<path d="M17.9032 49.7737C17.9032 49.7737 17.7638 50.819 18.4258 50.5054C19.0879 50.1918 23.2344 48.3799 23.4783 46.4983C23.5091 46.261 23.5722 46.0104 23.5427 45.9059C23.5132 45.8014 23.3389 45.3832 23.3389 45.3832C22.2091 43.9264 21.6357 42.5601 20.621 40.052C20.5492 39.6773 20.4739 39.4991 19.8545 39.6338C18.038 40.2343 17.239 41.0514 16.3003 43.5713C16.3003 43.5713 16.0564 44.1288 16.3003 44.3379C16.5442 44.5469 16.8927 44.7212 16.8927 44.7212C16.8927 44.7212 17.8335 45.6968 17.9032 46.8119C17.9728 47.9269 17.9032 49.7737 17.9032 49.7737Z" fill="#E0E0E0"/>
<path d="M12.1552 18.8344C13.4096 17.8239 15.1248 16.8306 15.7868 17.0049C16.4489 17.1791 17.0412 17.7366 17.0412 17.7366C17.0412 17.7366 18.0169 19.0258 17.6684 19.5137C17.32 20.0015 16.7246 19.9667 15.5003 21.5175C14.276 23.0683 12.782 23.3963 12.6775 23.4311C12.5729 23.466 10.8307 23.6751 10.5872 23.486C10.3437 23.2969 10.5872 22.3537 10.5872 22.3537C10.5872 22.3537 10.9008 19.8449 12.1552 18.8344Z" fill="#E0E0E0"/>
<path d="M23.4793 30.156C23.4793 30.4696 23.8415 43.7273 23.6535 44.4423C23.4655 45.1574 21.9529 42.0289 21.318 40.0171C20.6819 38.1744 20.1796 37.0795 20.0993 37.1946C18.9834 36.031 18.8449 36.5326 18.7752 36.219C18.7055 35.9054 18.8449 34.2328 19.4373 33.1526C20.0296 32.0724 20.5871 31.2362 20.9704 30.8529C21.3537 30.4696 21.4234 30.3999 22.19 29.6682C22.9566 28.9364 22.7127 29.0061 22.9217 29.1804C23.1308 29.3546 23.4793 29.8424 23.4793 30.156Z" fill="#E74C3C"/>
<path d="M15.9526 36.8114C15.9177 37.4386 15.3254 42.3169 15.5345 42.3866C15.7435 42.4563 16.8237 40.5049 18.1827 39.8777C19.5416 39.2505 19.681 39.4596 20.1688 39.2157C20.6566 38.9718 19.1932 36.9856 18.9144 36.8114C18.6356 36.6372 18.1827 36.1145 18.1827 36.1145C18.1827 36.1145 19.4022 31.7589 19.681 31.6195C19.9597 31.4802 17.9736 32.0725 17.207 31.7589C16.4404 31.4453 15.5345 29.4243 15.3254 29.4243C15.1163 29.4243 16.1617 33.3966 16.301 34.0238C16.4404 34.651 16.301 35.1389 16.301 35.1389C16.165 35.792 15.9875 36.1842 15.9526 36.8114Z" fill="#E0E0E0"/>
<path d="M17.6593 25.2087C17.6593 25.2087 15.3596 24.5815 15.0808 24.4421C14.802 24.3028 14.8717 26.0101 14.9066 26.7419C14.9414 27.4737 15.3944 29.1462 15.8474 29.7385C16.3004 30.3309 16.9276 31.5505 18.3562 31.5156C19.7848 31.4807 20.7953 30.5052 20.9347 30.3309C21.0741 30.1566 22.3633 29.0068 22.4679 28.4144C22.5724 27.822 21.4922 26.6722 21.4225 26.5328C21.3529 26.3934 20.4469 24.8951 20.203 24.9648C19.9591 25.0345 18.9162 25.2765 17.6593 25.2087Z" fill="#E74C3C"/>
<path d="M16.022 21.5504C15.6735 22.073 14.9069 23.3623 14.9766 23.7804C15.0463 24.1986 16.5795 24.7212 17.3809 24.8955C18.1823 25.0697 20.2033 24.8955 20.064 24.547C19.9246 24.1986 18.8792 22.7699 18.6353 22.2821C18.3914 21.7943 18.0778 20.2611 17.8339 20.0172C17.59 19.7733 16.3704 21.0277 16.022 21.5504Z" fill="#E74C3C"/>
<path d="M10.9008 23.8499C11.319 23.7454 12.5734 23.8499 13.3748 23.5711C14.1762 23.2924 13.8975 23.2575 14.2111 23.3621C14.5247 23.4666 14.5247 26.1496 14.5247 26.1496C14.5247 26.1496 14.455 27.6132 14.2111 28.1706C13.9672 28.7281 13.1658 29.5296 12.887 29.9477C12.6082 30.3658 11.8765 32.8399 11.4584 32.805C11.0402 32.7701 10.5524 32.805 10.1691 32.5262C9.7858 32.2475 9.82065 31.2021 9.82065 30.5401C9.82065 29.8781 10.1691 28.7281 10.1691 28.2752C10.1691 27.8222 9.96003 27.6131 9.92518 27.0556C9.89034 26.4981 10.4827 23.9544 10.9008 23.8499Z" fill="#E0E0E0"/>
<path d="M5.13052 45.0346C5.63885 44.9649 6.99778 45.4527 7.13716 45.6966C7.27654 45.9405 7.13716 46.2541 7.27655 46.9859C7.41594 47.7176 7.25605 47.4252 7.36058 48.2265C7.46512 49.0279 6.69853 50.1082 6.69853 50.1082C6.69853 50.1082 5.44412 51.4321 4.92145 51.3974C4.39878 51.3626 5.86226 50.7354 5.65319 49.1673C5.44412 47.5993 5.2699 47.5993 5.13052 47.5993C4.99114 47.5994 4.46847 47.9129 4.29424 47.9129C4.12002 47.913 3.59735 47.7039 3.28375 47.4948C2.97014 47.2857 1.82027 47.425 1.50666 47.3903C1.19306 47.3555 3.54813 45.2089 4.03599 45.174C4.52384 45.1391 4.62219 45.1043 5.13052 45.0346Z" fill="#E0E0E0"/>
<path d="M4.29423 53.7318C4.74721 53.3834 5.75771 51.467 5.75771 51.2927C5.75772 51.1183 4.99113 51.6761 4.85175 51.7456C4.71237 51.8152 4.5033 51.3974 4.43361 51.2927C4.36392 51.188 5.02597 50.6656 5.09566 50.5609C5.16535 50.4562 5.44411 49.7596 5.40927 49.4459C5.37442 49.1321 5.30473 47.9826 5.02597 47.9824C4.74722 47.9823 4.5033 48.1216 4.29423 48.1566C4.08516 48.1916 3.14436 47.7383 2.97013 47.7037C2.79591 47.669 1.82026 47.5294 1.47181 47.7037C1.12336 47.8779 -0.131053 48.3309 -0.235587 48.5051C-0.340121 48.6793 0.147705 49.1671 0.461308 49.202C0.774911 49.2368 1.68088 48.9232 1.68088 48.9232C1.68088 48.9232 2.90044 48.5748 2.72622 48.9232C2.55199 49.2717 0.670377 52.5122 0.635532 52.6865C0.600687 52.8607 0.530998 53.2788 0.774911 53.3137C1.01882 53.3485 1.01882 53.244 1.19305 53.3137C1.36727 53.3834 1.01882 54.1499 1.01882 54.1499C1.01882 54.1499 1.05367 54.6029 1.29758 54.6029C1.5415 54.6029 1.86174 54.3866 1.99448 54.1499C2.12722 53.9132 2.1687 54.2196 2.1687 54.2196C2.1687 54.2196 2.30808 54.5332 2.44746 54.6029C2.58684 54.6726 2.90044 54.5332 3.03982 54.4287C3.1792 54.3242 3.77156 53.4182 3.77156 53.4182C3.77156 53.4182 3.84125 54.0802 4.29423 53.7318Z" fill="#E0E0E0"/>
<path d="M6.19676 38.5892C5.95287 39.739 4.35 44.5128 4.38484 44.7218C4.41967 44.9309 5.39532 44.6173 6.19676 44.9309C6.99821 45.2445 7.24211 45.4884 7.48602 45.4187C7.72993 45.349 11.1099 37.4044 11.2493 36.9515C11.3886 36.4985 12.3643 33.9548 12.5037 33.5715C12.6431 33.1882 12.7127 32.7004 12.5037 32.4565C12.2946 32.2126 11.826 33.505 11.3538 33.4321C10.8816 33.3592 10.8108 32.8964 10.5175 32.8049C10.2242 32.7135 9.71607 33.014 9.57671 32.8049C9.43734 32.5959 9.61157 30.8188 9.36764 30.8885C9.12371 30.9582 7.48604 33.467 7.24211 34.0593C6.99818 34.6517 6.96336 36.2197 6.82397 36.7772C6.68458 37.3347 6.44066 37.4393 6.19676 38.5892Z" fill="#E0E0E0"/>
<path d="M12.8867 30.7141C12.8867 30.7141 12.2638 31.6306 12.2247 32.1427C12.1856 32.6548 13.2348 31.1911 13.4094 30.7141C13.4094 30.7141 14.1412 29.0415 14.1412 28.9021C14.1412 28.7628 12.8867 30.7141 12.8867 30.7141Z" fill="#E0E0E0"/>
<path d="M21.9111 26.3236C22.9216 27.369 23.5837 29.8081 23.5837 29.6339C23.5837 29.4596 23.7579 20.2258 23.5837 19.4244C23.4094 18.6229 22.6777 16.6368 21.9111 16.3232C21.1445 16.0095 19.019 16.1489 18.4963 16.1838C17.9737 16.2186 15.7087 16.7413 16.1269 16.811C16.545 16.8807 17.5555 17.3337 17.9737 18.5881C18.3918 19.8425 18.4963 21.2363 19.019 22.2468C19.5417 23.2573 20.9006 25.2783 21.9111 26.3236Z" fill="#E74C3C"/>
<path d="M32.5931 53.0152C32.4886 54.2696 30.816 62.249 30.8509 61.2037C30.8857 60.1583 31.3039 55.0361 30.9903 53.503C30.6767 51.9698 30.4328 49.914 30.4328 47.6142C30.4328 45.3145 32.0008 44.7221 32.0008 44.7221C32.0008 44.7221 32.9067 44.1994 32.9067 45.5584C32.9067 46.9173 32.6977 51.7607 32.5931 53.0152Z" fill="#E0E0E0"/>
<path d="M30.2941 49.7737C30.2941 49.7737 30.4335 50.819 29.7714 50.5054C29.1094 50.1918 24.9628 48.3799 24.7189 46.4983C24.6882 46.261 24.625 46.0104 24.6546 45.9059C24.6841 45.8014 24.8583 45.3832 24.8583 45.3832C25.9881 43.9264 26.5616 42.5601 27.5762 40.052C27.648 39.6773 27.7234 39.4991 28.3428 39.6338C30.1593 40.2343 30.9582 41.0514 31.897 43.5713C31.897 43.5713 32.1409 44.1288 31.897 44.3379C31.6531 44.5469 31.3046 44.7212 31.3046 44.7212C31.3046 44.7212 30.3638 45.6968 30.2941 46.8119C30.2244 47.9269 30.2941 49.7737 30.2941 49.7737Z" fill="#E0E0E0"/>
<path d="M36.0419 18.8344C34.7875 17.8239 33.0724 16.8306 32.4103 17.0049C31.7483 17.1791 31.1559 17.7366 31.1559 17.7366C31.1559 17.7366 30.1803 19.0258 30.5287 19.5137C30.8772 20.0015 31.4725 19.9667 32.6968 21.5175C33.9212 23.0683 35.4152 23.3963 35.5197 23.4311C35.6242 23.466 37.3665 23.6751 37.6099 23.486C37.8534 23.2969 37.6099 22.3537 37.6099 22.3537C37.6099 22.3537 37.2963 19.8449 36.0419 18.8344Z" fill="#E0E0E0"/>
<path d="M24.718 30.156C24.718 30.4696 24.3558 43.7273 24.5438 44.4423C24.7318 45.1574 26.2444 42.0289 26.8793 40.0171C27.5153 38.1744 28.0177 37.0795 28.0979 37.1946C29.2139 36.031 29.3524 36.5326 29.422 36.219C29.4917 35.9054 29.3524 34.2328 28.76 33.1526C28.1676 32.0724 27.6101 31.2362 27.2268 30.8529C26.8435 30.4696 26.7738 30.3999 26.0073 29.6682C25.2407 28.9364 25.4846 29.0061 25.2755 29.1804C25.0665 29.3546 24.718 29.8424 24.718 30.156Z" fill="#E74C3C"/>
<path d="M32.2442 36.8114C32.279 37.4386 32.8714 42.3169 32.6623 42.3866C32.4532 42.4563 31.3731 40.5049 30.0141 39.8777C28.6552 39.2505 28.5158 39.4596 28.028 39.2157C27.5401 38.9718 29.0036 36.9856 29.2824 36.8114C29.5611 36.6372 30.0141 36.1145 30.0141 36.1145C30.0141 36.1145 28.7945 31.7589 28.5158 31.6195C28.237 31.4802 30.2232 32.0725 30.9898 31.7589C31.7564 31.4453 32.6623 29.4243 32.8714 29.4243C33.0805 29.4243 32.0351 33.3966 31.8957 34.0238C31.7564 34.651 31.8957 35.1389 31.8957 35.1389C32.0318 35.792 32.2093 36.1842 32.2442 36.8114Z" fill="#E0E0E0"/>
<path d="M30.5375 25.2087C30.5375 25.2087 32.8372 24.5815 33.116 24.4421C33.3947 24.3028 33.325 26.0101 33.2902 26.7419C33.2554 27.4737 32.8024 29.1462 32.3494 29.7385C31.8964 30.3309 31.2692 31.5505 29.8406 31.5156C28.4119 31.4807 27.4014 30.5052 27.2621 30.3309C27.1227 30.1566 25.8334 29.0068 25.7289 28.4144C25.6243 27.822 26.7045 26.6722 26.7742 26.5328C26.8439 26.3934 27.7499 24.8951 27.9938 24.9648C28.2377 25.0345 29.2806 25.2765 30.5375 25.2087Z" fill="#E74C3C"/>
<path d="M32.1747 21.5504C32.5231 22.073 33.2897 23.3623 33.22 23.7804C33.1503 24.1986 31.6172 24.7212 30.8157 24.8955C30.0143 25.0697 27.9933 24.8955 28.1327 24.547C28.2721 24.1986 29.3174 22.7699 29.5613 22.2821C29.8053 21.7943 30.1188 20.2611 30.3628 20.0172C30.6067 19.7733 31.8262 21.0277 32.1747 21.5504Z" fill="#E74C3C"/>
<path d="M37.2964 23.8499C36.8783 23.7454 35.6239 23.8499 34.8225 23.5711C34.021 23.2924 34.2998 23.2575 33.9862 23.3621C33.6726 23.4666 33.6726 26.1496 33.6726 26.1496C33.6726 26.1496 33.7423 27.6132 33.9862 28.1706C34.2301 28.7281 35.0315 29.5296 35.3103 29.9477C35.589 30.3658 36.3208 32.8399 36.7389 32.805C37.1571 32.7701 37.6449 32.805 38.0282 32.5262C38.4115 32.2475 38.3766 31.2021 38.3766 30.5401C38.3766 29.8781 38.0282 28.7281 38.0282 28.2752C38.0282 27.8222 38.2372 27.6131 38.2721 27.0556C38.3069 26.4981 37.7146 23.9544 37.2964 23.8499Z" fill="#E0E0E0"/>
<path d="M43.0672 45.0346C42.5589 44.9649 41.2 45.4527 41.0606 45.6966C40.9212 45.9405 41.0606 46.2541 40.9212 46.9859C40.7818 47.7176 40.9417 47.4252 40.8372 48.2265C40.7326 49.0279 41.4992 50.1082 41.4992 50.1082C41.4992 50.1082 42.7536 51.4321 43.2763 51.3974C43.799 51.3626 42.3355 50.7354 42.5446 49.1673C42.7536 47.5993 42.9279 47.5993 43.0672 47.5993C43.2066 47.5994 43.7293 47.9129 43.9035 47.9129C44.0777 47.913 44.6004 47.7039 44.914 47.4948C45.2276 47.2857 46.3775 47.425 46.6911 47.3903C47.0047 47.3555 44.6496 45.2089 44.1618 45.174C43.6739 45.1391 43.5756 45.1043 43.0672 45.0346Z" fill="#E0E0E0"/>
<path d="M43.903 53.7318C43.4501 53.3834 42.4396 51.467 42.4396 51.2927C42.4396 51.1183 43.2061 51.6761 43.3455 51.7456C43.4849 51.8152 43.694 51.3974 43.7637 51.2927C43.8333 51.188 43.1713 50.6656 43.1016 50.5609C43.0319 50.4562 42.7532 49.7596 42.788 49.4459C42.8228 49.1321 42.8925 47.9826 43.1713 47.9824C43.4501 47.9823 43.694 48.1216 43.903 48.1566C44.1121 48.1916 45.0529 47.7383 45.2271 47.7037C45.4014 47.669 46.377 47.5294 46.7255 47.7037C47.0739 47.8779 48.3283 48.3309 48.4329 48.5051C48.5374 48.6793 48.0496 49.1671 47.736 49.202C47.4224 49.2368 46.5164 48.9232 46.5164 48.9232C46.5164 48.9232 45.2968 48.5748 45.4711 48.9232C45.6453 49.2717 47.5269 52.5122 47.5617 52.6865C47.5966 52.8607 47.6663 53.2788 47.4224 53.3137C47.1784 53.3485 47.1784 53.244 47.0042 53.3137C46.83 53.3834 47.1784 54.1499 47.1784 54.1499C47.1784 54.1499 47.1436 54.6029 46.8997 54.6029C46.6558 54.6029 46.3355 54.3866 46.2028 54.1499C46.07 53.9132 46.0286 54.2196 46.0286 54.2196C46.0286 54.2196 45.8892 54.5332 45.7498 54.6029C45.6104 54.6726 45.2968 54.5332 45.1574 54.4287C45.0181 54.3242 44.4257 53.4182 44.4257 53.4182C44.4257 53.4182 44.356 54.0802 43.903 53.7318Z" fill="#E0E0E0"/>
<path d="M42.001 38.5892C42.2449 39.739 43.8478 44.5128 43.8129 44.7218C43.7781 44.9309 42.8024 44.6173 42.001 44.9309C41.1995 45.2445 40.9557 45.4884 40.7117 45.4187C40.4678 45.349 37.0879 37.4044 36.9485 36.9515C36.8091 36.4985 35.8335 33.9548 35.6941 33.5715C35.5547 33.1882 35.485 32.7004 35.6941 32.4565C35.9032 32.2126 36.3718 33.505 36.844 33.4321C37.3161 33.3592 37.387 32.8964 37.6802 32.8049C37.9735 32.7135 38.4817 33.014 38.6211 32.8049C38.7604 32.5959 38.5862 30.8188 38.8301 30.8885C39.0741 30.9582 40.7117 33.467 40.9557 34.0593C41.1996 34.6517 41.2344 36.2197 41.3738 36.7772C41.5132 37.3347 41.7571 37.4393 42.001 38.5892Z" fill="#E0E0E0"/>
<path d="M35.3105 30.7141C35.3105 30.7141 35.9335 31.6306 35.9726 32.1427C36.0117 32.6548 34.9625 31.1911 34.7878 30.7141C34.7878 30.7141 34.0561 29.0415 34.0561 28.9021C34.0561 28.7628 35.3105 30.7141 35.3105 30.7141Z" fill="#E0E0E0"/>
<path d="M26.2857 26.3236C25.2752 27.369 24.6131 29.8081 24.6131 29.6339C24.6131 29.4596 24.4389 20.2258 24.6131 19.4244C24.7873 18.6229 25.5191 16.6368 26.2857 16.3232C27.0523 16.0095 29.1778 16.1489 29.7004 16.1838C30.2231 16.2186 32.488 16.7413 32.0699 16.811C31.6518 16.8807 30.6413 17.3337 30.2231 18.5881C29.805 19.8425 29.7004 21.2363 29.1778 22.2468C28.6551 23.2573 27.2962 25.2783 26.2857 26.3236Z" fill="#E74C3C"/>
<path fill-rule="evenodd" clip-rule="evenodd" d="M23.4451 1.02635C22.9959 1.11631 22.3421 1.35263 21.9882 1.55306C21.2963 1.94499 20.4636 2.95375 20.2165 3.69956C20.0529 4.19325 19.8922 5.19712 19.8916 5.72969C19.8909 6.35731 20.092 7.8486 20.2663 8.50814C20.3631 8.87457 20.4465 9.52052 20.5789 10.9302C20.6365 11.5432 20.6512 11.5856 20.875 11.7828C21.0045 11.897 21.1303 11.9909 21.1546 11.9915C21.1788 11.9921 21.2209 11.755 21.2481 11.4646C21.3127 10.7753 21.5927 9.73935 21.8185 9.35403C22.2294 8.65275 22.6624 8.33775 23.5155 8.1192C24.2281 7.93662 25.0836 8.09349 25.7549 8.52988C26.3962 8.94663 26.8687 9.9866 27.0195 11.3131C27.062 11.6868 27.1158 11.9926 27.1389 11.9926C27.1621 11.9926 27.2936 11.8895 27.4311 11.7636C27.6734 11.5417 27.6825 11.515 27.7248 10.9099C27.7835 10.0689 27.9437 8.88851 28.103 8.12485C28.5114 6.16609 28.4891 4.76219 28.031 3.59642C27.8563 3.15188 27.3637 2.41358 27.0217 2.08367C26.6509 1.72596 26.006 1.35333 25.4678 1.18573C25.0192 1.046 23.8192 0.951499 23.4451 1.02635ZM19.0279 6.97518C18.8893 7.12857 18.7759 7.26418 18.7759 7.27645C18.7759 7.28871 18.8658 7.48461 18.9759 7.7118C19.0859 7.93899 19.289 8.36354 19.4274 8.65519C19.5657 8.94691 19.7251 9.22392 19.7816 9.27075C19.8994 9.36853 20.1697 9.30643 20.1697 9.18162C20.1697 9.08259 19.8175 7.6702 19.6498 7.09693C19.506 6.60548 19.3836 6.58151 19.0279 6.97518ZM28.6045 7.23631C28.4535 7.73494 28.3406 8.18018 28.1851 8.89143C28.1121 9.22504 28.2398 9.42742 28.4466 9.30616C28.5476 9.24692 29.4877 7.46733 29.5031 7.30621C29.513 7.20244 29.001 6.69621 28.8861 6.69621C28.7995 6.69621 28.7246 6.83984 28.6045 7.23631ZM23.5148 8.42967C23.3806 8.45936 23.1419 8.55037 22.9842 8.63191C22.6676 8.79547 22.6595 8.81917 22.5712 9.83224C22.5284 10.3236 22.4384 10.9142 22.2581 11.8881C22.1534 12.4539 21.9989 12.9667 21.8697 13.1773C21.7975 13.295 21.7782 13.3063 21.81 13.2122C22.0049 12.6361 22.2259 10.9722 22.2797 9.676C22.3036 9.10015 22.2983 9.07277 22.1835 9.17667C21.9976 9.34483 21.7054 10.0113 21.5611 10.596C21.4855 10.9023 21.4133 11.5284 21.3879 12.0972C21.2913 14.2647 21.1426 14.4968 19.1592 15.5769C18.9618 15.6844 19.0418 15.6893 20.5878 15.6642C21.7693 15.645 22.2838 15.6112 22.4346 15.543C23.016 15.2799 23.4504 14.7473 23.7106 13.9788C23.8616 13.5327 24.0691 12.3184 24.0772 11.833C24.0851 11.3575 24.2009 11.1878 24.2068 11.6431C24.2133 12.1559 24.4083 13.4884 24.5308 13.8589C24.6977 14.3629 24.9704 14.842 25.2492 15.1208C25.7452 15.6168 25.7991 15.6291 27.6538 15.6692C28.8866 15.6957 29.3062 15.6845 29.27 15.6259C29.2431 15.5824 29.1911 15.5468 29.1543 15.5468C29.0065 15.5468 27.8475 14.8368 27.5112 14.5403C27.0304 14.1163 26.9404 13.8327 26.8576 12.4804C26.7801 11.2146 26.708 10.6933 26.5445 10.2155C26.3864 9.75321 26.1304 9.25291 25.9942 9.13988C25.8975 9.0596 25.8842 9.07876 25.8842 9.29828C25.8842 9.74102 26.1369 12.1624 26.2127 12.4456C26.2332 12.5223 26.2266 12.5629 26.1981 12.5359C26.1695 12.5089 26.1179 12.3365 26.0832 12.1526C25.8749 11.0459 25.7499 10.2046 25.7076 9.62317C25.681 9.25905 25.6325 8.91018 25.5997 8.84788C25.567 8.78558 25.3946 8.6662 25.2168 8.58264C24.862 8.41587 23.9479 8.33371 23.5148 8.42967Z" fill="#E0E0E0"/>
<path d="M23.4845 15.4614C22.927 15.9841 22.6134 16.2629 22.5437 16.2629C22.474 16.2629 23.136 16.7159 23.4845 17.3431C23.8329 17.9702 24.1117 19.5034 24.1117 19.5034C24.1117 19.5034 24.4253 17.796 24.8086 17.2734C25.1919 16.7507 25.6797 16.3326 25.6797 16.2629C25.6797 16.1932 25.2616 16.0189 24.7389 15.4614C24.2162 14.904 24.2511 13.4404 24.1117 13.4056C23.9723 13.3708 24.042 14.9388 23.4845 15.4614Z" fill="#E0E0E0"/>
</g>
<defs>
<clipPath id="clip0_736_3191">
<rect width="48" height="48" rx="24" fill="white"/>
</clipPath>
</defs>
</svg>
