<svg width="48" height="48" viewBox="0 0 48 48" fill="none" xmlns="http://www.w3.org/2000/svg">
<g clip-path="url(#clip0_736_2932)">
<path d="M23.2654 13.4843C22.7921 13.3829 22.8092 13.4466 22.9949 13.7885C23.4567 14.7662 23.6254 15.4577 23.8401 16.8311C23.9853 17.2342 24.0668 17.1503 24.212 16.8311C24.3592 15.5841 24.5046 14.9074 25.0233 13.7885C25.255 13.4727 25.1985 13.4004 24.7191 13.4843C24.195 13.5853 23.7387 13.5856 23.2654 13.4843Z" fill="#E0E0E0"/>
<path d="M22.8495 49.5124C22.8834 49.8842 22.5451 61.5475 22.3424 59.8572C22.1397 58.1669 15.412 41.2635 16.8319 43.8328C18.2518 46.4021 22.8155 49.1405 22.8495 49.5124Z" fill="#E0E0E0"/>
<path d="M16.0553 59.3839C16.0553 59.3839 17.6104 70.1009 17.8471 70.202C18.0837 70.3031 19.9431 66.8892 20.3825 64.962C20.822 63.0347 20.653 57.7614 20.5516 56.747C20.4502 55.7325 16.7326 44.8832 16.5286 44.0695C16.3246 43.2557 15.588 41.775 15.4468 42.1763C15.3056 42.5776 14.4975 50.0375 14.7368 49.6814C14.8326 52.8135 15.0474 54.8208 16.0553 59.3839Z" fill="#E0E0E0"/>
<path d="M13.8365 27.4204C13.7013 27.8261 12.18 32.4576 12.3828 32.6266C12.5857 32.7957 12.8223 32.2548 13.3294 31.2406C13.8365 30.2263 14.3436 27.7247 14.276 27.5218C14.2084 27.319 13.9718 27.0147 13.8365 27.4204Z" fill="#E74C3C"/>
<path d="M12.1126 19.8479C13.3296 18.8675 14.8509 17.7519 15.4933 17.9209C16.1356 18.09 16.7779 18.7999 16.7779 18.7999C16.7779 18.7999 16.9469 19.0027 16.7779 19.5436C16.6089 20.0845 16.3722 21.1664 15.358 22.451C14.3438 23.7357 11.7069 24.6146 11.7069 24.6146C11.7069 24.6146 10.6589 25.1893 10.4223 25.4598C10.1856 25.7303 10.5913 23.2624 10.5913 23.2624C10.5913 23.2624 10.8956 20.8283 12.1126 19.8479Z" fill="#E0E0E0"/>
<path d="M9.8818 27.9942C9.57756 29.955 9.40851 36.5811 9.64516 36.2768C9.8818 35.9726 11.1327 33.7751 11.5721 33.268C12.0116 32.761 12.4511 30.8677 12.7216 30.1578C12.992 29.4479 13.6252 27.2165 13.7696 25.0868C13.7696 25.0868 13.7696 24.1741 12.8906 24.5121C12.0116 24.8502 11.4369 25.3911 11.4369 25.3911C11.4369 25.3911 10.186 26.0334 9.8818 27.9942Z" fill="#E74C3C"/>
<path d="M9.71248 36.6157C10.8957 34.7225 12.1128 32.8293 12.3494 33.2012C12.586 33.5731 12.586 34.3168 12.586 34.3168C12.3289 35.2883 12.0717 35.8733 11.5042 36.9537C11.0814 38.7484 10.6693 39.6851 9.91532 41.3486C9.95342 41.1811 7.44443 47.3999 7.31221 47.6028C7.18 47.8057 7.2446 46.2506 7.31221 45.6758C7.37983 45.101 8.52925 38.5088 9.71248 36.6157Z" fill="#E0E0E0"/>
<path d="M7.07615 43.4781C6.56904 44.2219 4.70969 45.6756 4.50685 45.5403C4.30401 45.4051 5.48724 42.7682 5.48724 42.7682C5.88073 41.6743 6.07323 40.8957 6.2986 38.8128C6.2986 38.8128 6.70426 36.4125 6.73808 36.1421C6.7719 35.8717 7.98892 33.3023 8.39461 32.9305C8.8003 32.5586 8.80029 32.3557 9.07074 32.9981C9.3412 33.6404 9.3412 34.9251 9.3412 34.9251C9.3412 34.9251 9.2736 36.7168 8.73268 38.1367C8.19176 39.5566 7.58325 41.8216 7.58325 41.8216C7.58325 41.8216 7.58326 42.7344 7.07615 43.4781Z" fill="#E0E0E0"/>
<path d="M4.97006 46.153C5.30809 46.0178 6.86323 44.1246 6.99846 44.3613C7.13369 44.5979 6.59278 47.6743 6.79562 48.249C6.99846 48.8237 7.03227 48.6548 7.13369 49.4323C7.23511 50.2098 6.49136 51.2578 6.49136 51.2578C6.49136 51.2578 5.27432 52.5424 4.76722 52.5086C4.26012 52.4749 5.68 51.8663 5.47716 50.345C5.27432 48.8237 5.10529 48.8237 4.97006 48.8237C4.83483 48.8238 4.32773 49.1279 4.1587 49.128C3.98967 49.1281 3.48257 48.9252 3.17831 48.7223C2.87405 48.5194 1.75843 48.6546 1.45417 48.6209C1.14991 48.5871 3.38112 46.4911 3.85444 46.4573C4.32776 46.4234 4.63203 46.2882 4.97006 46.153Z" fill="#E0E0E0"/>
<path d="M43.2349 46.153C42.8969 46.0178 41.3417 44.1246 41.2065 44.3613C41.0713 44.5979 41.6122 47.6743 41.4093 48.249C41.2065 48.8237 41.1727 48.6548 41.0713 49.4323C40.9698 50.2098 41.7136 51.2578 41.7136 51.2578C41.7136 51.2578 42.9306 52.5424 43.4377 52.5086C43.9448 52.4749 42.525 51.8663 42.7278 50.345C42.9306 48.8237 43.0997 48.8237 43.2349 48.8237C43.3701 48.8238 43.8772 49.1279 44.0463 49.128C44.2153 49.1281 44.7224 48.9252 45.0266 48.7223C45.3309 48.5194 46.4465 48.6546 46.7508 48.6209C47.055 48.5871 44.8238 46.4911 44.3505 46.4573C43.8772 46.4234 43.5729 46.2882 43.2349 46.153Z" fill="#E0E0E0"/>
<path d="M23.4703 41.9518C23.4703 41.9518 23.5597 47.1126 23.1322 47.4168C22.7046 47.7211 22.0623 47.3492 22.0623 47.3492C21.3434 46.6387 21.0653 45.7423 20.3601 43.5407C19.9377 41.446 19.6414 40.1779 19.7635 38.6609C19.9011 38.4695 20.3728 38.4021 20.3728 38.4021C20.3728 38.4021 22.8399 38.1538 23.1449 39.1342C23.45 40.1145 23.3653 40.0784 23.4703 41.9518Z" fill="#E0E0E0"/>
<path d="M18.3404 38.1382C18.5122 42.1801 20.2988 45.6007 20.6731 45.88C21.0474 46.1592 19.3546 45.88 17.5629 43.7501C15.7711 41.6203 15.2302 39.5581 15.2302 39.5581C15.0091 39.1029 15.4058 34.9712 15.7711 35.2985C16.1364 35.6258 16.1401 36.4171 17.0896 37.1241C18.0391 37.831 17.4027 37.3333 17.8672 37.6988C17.9886 37.7944 18.3265 37.8092 18.3404 38.1382Z" fill="#E0E0E0"/>
<path d="M18.2092 34.7399C18.1851 36.6119 18.816 36.5321 18.6487 36.8359C18.4814 37.1397 17.9049 37.6811 16.9921 36.3626C16.0794 35.0442 16.2931 35.0631 16.0794 34.7399C15.8656 34.4167 15.9423 32.7459 15.5704 31.6641C15.1985 30.5823 15.4265 30.5075 15.2661 29.8386C15.1058 29.1696 15.3356 27.049 16.2822 26.9306C17.2288 26.8121 18.3106 27.5729 18.4796 28.0462C18.6487 28.5195 18.5507 29.1631 18.4796 29.8386C18.4086 30.5141 18.4307 31.3254 18.3444 32.2044C18.2581 33.0834 18.2332 32.8678 18.2092 34.7399Z" fill="#E0E0E0"/>
<path d="M18.9866 18.6137C18.5133 18.8165 17.7357 19.6955 17.161 20.5407C16.5863 21.3859 15.701 22.4287 15.2678 23.3804C14.5545 24.1372 14.5352 24.248 14.896 24.6313C15.2567 25.0145 15.234 24.9693 17.7695 26.2878C20.305 27.6062 23.1786 27.6401 23.3476 26.3892C23.5167 25.1384 23.3476 24.2932 23.3476 22.4C23.3476 20.5068 23.2801 20.1688 22.5701 19.256C21.8601 18.3432 19.4599 18.4108 18.9866 18.6137Z" fill="#E0E0E0"/>
<path d="M19.4595 36.0912C19.5271 35.4827 20.3722 34.1304 21.5217 34.3333C22.2426 34.4605 22.4316 34.4946 22.4723 34.5024C22.5282 34.5042 23.1535 34.5434 23.3472 35.4151C23.5501 36.3279 23.3472 37.0378 23.3472 37.0378C23.3472 37.0378 23.4824 38.0858 22.164 38.0858C20.8455 38.0858 20.9131 38.0858 20.0342 37.8154C19.1552 37.5449 19.3919 36.6998 19.4595 36.0912Z" fill="#E0E0E0"/>
<path d="M19.1887 32.8464C19.2901 32.3731 20.2154 31.528 20.9128 31.1899C21.6103 30.8518 21.6904 30.5814 22.2313 30.6152C22.7722 30.649 23.1903 30.6828 23.3932 31.5956C23.596 32.5083 23.3932 33.6578 23.3932 33.6578C23.3932 33.6578 23.5498 34.0634 22.2313 34.0634C20.9128 34.0634 20.8114 34.3677 20.0001 34.2324C19.1887 34.0972 19.0873 33.3197 19.1887 32.8464Z" fill="#E0E0E0"/>
<path d="M19.3241 29.9052C19.4255 29.4319 19.8775 28.6206 20.575 28.2825C21.2724 27.9444 21.6568 27.674 22.1625 27.6768C22.6683 27.6797 22.8062 27.4711 23.2457 28.012C23.6852 28.553 23.7528 29.3643 23.3244 29.739C22.896 30.1138 23.1443 30.1419 22.2991 30.2771C21.4539 30.4123 20.6088 31.3251 19.7974 31.1899C18.986 31.0546 19.2227 30.3785 19.3241 29.9052Z" fill="#E0E0E0"/>
<path d="M20.6424 14.8952C20.3381 15.2333 15.808 17.5997 16.1799 17.7687C16.5518 17.9378 20.6424 17.7011 21.5551 17.9378C22.4679 18.1744 22.7722 18.8506 22.7722 18.8506C23.3613 19.6715 23.685 19.4253 23.8878 18.7491C24.0906 18.073 22.2989 13.0696 21.3861 12.6639C20.4733 12.2583 20.5748 12.2921 20.4733 12.833C20.3719 13.3739 20.9466 14.5571 20.6424 14.8952Z" fill="#E0E0E0"/>
<path d="M25.3478 49.4831C25.3138 49.8549 25.6522 61.5182 25.8549 59.8279C26.0576 58.1376 32.7852 41.2342 31.3654 43.8035C29.9455 46.3728 25.3817 49.1112 25.3478 49.4831Z" fill="#E0E0E0"/>
<path d="M32.1424 59.3546C32.1424 59.3546 30.5873 70.0716 30.3506 70.1727C30.114 70.2738 28.2546 66.8599 27.8151 64.9327C27.3757 63.0054 27.5447 57.7321 27.6461 56.7177C27.7475 55.7032 31.4651 44.8539 31.6691 44.0402C31.8731 43.2264 32.6097 41.7457 32.7509 42.147C32.8921 42.5483 33.7002 50.0082 33.4609 49.6521C33.3651 52.7842 33.1503 54.7915 32.1424 59.3546Z" fill="#E0E0E0"/>
<path d="M34.3612 27.3904C34.4965 27.7961 36.0177 32.4276 35.8149 32.5966C35.6121 32.7656 35.3754 32.2248 34.8683 31.2105C34.3612 30.1963 33.8541 27.6946 33.9217 27.4918C33.9894 27.289 34.226 26.9847 34.3612 27.3904Z" fill="#E74C3C"/>
<path d="M36.0856 19.8176C34.8686 18.8372 33.3473 17.7216 32.705 17.8906C32.0627 18.0597 31.4203 18.7696 31.4203 18.7696C31.4203 18.7696 31.2513 18.9725 31.4203 19.5134C31.5894 20.0543 31.826 21.1361 32.8402 22.4207C33.8544 23.7054 36.4913 24.5844 36.4913 24.5844C36.4913 24.5844 37.5393 25.1591 37.776 25.4295C38.0126 25.7 37.6069 23.2321 37.6069 23.2321C37.6069 23.2321 37.3027 20.798 36.0856 19.8176Z" fill="#E0E0E0"/>
<path d="M38.3159 27.9649C38.6202 29.9257 38.7892 36.5518 38.5526 36.2475C38.3159 35.9433 37.0651 33.7458 36.6256 33.2387C36.1861 32.7317 35.7466 30.8384 35.4762 30.1285C35.2057 29.4186 34.5726 27.1872 34.4282 25.0575C34.4282 25.0575 34.4282 24.1448 35.3072 24.4828C36.1861 24.8209 36.7608 25.3618 36.7608 25.3618C36.7608 25.3618 38.0117 26.0041 38.3159 27.9649Z" fill="#E74C3C"/>
<path d="M38.4848 36.5861C37.3016 34.693 36.0846 32.7998 35.8479 33.1716C35.6113 33.5435 35.6113 34.2873 35.6113 34.2873C35.8684 35.2587 36.1256 35.8438 36.6931 36.9242C37.1159 38.7188 37.5281 39.6555 38.282 41.319C38.2439 41.1516 40.7529 47.3703 40.8851 47.5733C41.0173 47.7762 40.9527 46.2211 40.8851 45.6463C40.8175 45.0715 39.6681 38.4793 38.4848 36.5861Z" fill="#E0E0E0"/>
<path d="M41.1217 43.4488C41.6288 44.1926 43.4881 45.6463 43.691 45.511C43.8938 45.3758 42.7106 42.7389 42.7106 42.7389C42.3171 41.645 42.1246 40.8664 41.8992 38.7835C41.8992 38.7835 41.4936 36.3832 41.4597 36.1128C41.4259 35.8424 40.2089 33.273 39.8032 32.9012C39.3975 32.5293 39.3975 32.3264 39.1271 32.9688C38.8566 33.6111 38.8566 34.8958 38.8566 34.8958C38.8566 34.8958 38.9242 36.6875 39.4651 38.1074C40.0061 39.5273 40.6146 41.7923 40.6146 41.7923C40.6146 41.7923 40.6146 42.7051 41.1217 43.4488Z" fill="#E0E0E0"/>
<path d="M24.727 41.9215C24.727 41.9215 24.6375 47.0823 25.0651 47.3866C25.4926 47.6908 26.1349 47.3189 26.1349 47.3189C26.8538 46.6084 27.1319 45.7121 27.8372 43.5104C28.2595 41.4157 28.5558 40.1476 28.4338 38.6306C28.2962 38.4393 27.8245 38.3718 27.8245 38.3718C27.8245 38.3718 25.3574 38.1235 25.0523 39.1039C24.7473 40.0843 24.8319 40.0481 24.727 41.9215Z" fill="#E0E0E0"/>
<path d="M29.8573 38.1087C29.6855 42.1506 27.8989 45.5712 27.5246 45.8504C27.1504 46.1296 28.8431 45.8504 30.6349 43.7206C32.4266 41.5908 32.9675 39.5286 32.9675 39.5286C33.1887 39.0734 32.7919 34.9416 32.4266 35.2689C32.0613 35.5963 32.0576 36.3875 31.1082 37.0945C30.1587 37.8015 30.795 37.3038 30.3306 37.6692C30.2091 37.7648 29.8713 37.7797 29.8573 38.1087Z" fill="#E0E0E0"/>
<path d="M29.9891 34.7094C30.0131 36.5814 29.3823 36.5016 29.5496 36.8054C29.7169 37.1092 30.2933 37.6506 31.2061 36.3321C32.1189 35.0136 31.9051 35.0326 32.1189 34.7094C32.3326 34.3862 32.2559 32.7154 32.6278 31.6336C32.9998 30.5518 32.7718 30.477 32.9321 29.808C33.0924 29.1391 32.8626 27.0185 31.916 26.9C30.9695 26.7816 29.8876 27.5423 29.7186 28.0156C29.5496 28.4889 29.6476 29.1325 29.7186 29.808C29.7897 30.4835 29.7675 31.2949 29.8538 32.1739C29.9402 33.0528 29.965 32.8373 29.9891 34.7094Z" fill="#E0E0E0"/>
<path d="M29.2117 18.5844C29.685 18.7872 30.4625 19.6662 31.0372 20.5114C31.6119 21.3566 32.4973 22.3994 32.9304 23.3511C33.6438 24.1079 33.663 24.2187 33.3023 24.602C32.9416 24.9852 32.9642 24.94 30.4287 26.2585C27.8932 27.5769 25.0196 27.6108 24.8506 26.3599C24.6816 25.1091 24.8506 24.2639 24.8506 22.3707C24.8506 20.4776 24.9182 20.1395 25.6282 19.2267C26.3382 18.3139 28.7384 18.3815 29.2117 18.5844Z" fill="#E0E0E0"/>
<path d="M28.7377 36.0617C28.6701 35.4531 27.825 34.1009 26.6755 34.3037C25.9546 34.431 25.7656 34.4651 25.7249 34.4729C25.669 34.4746 25.0437 34.5139 24.85 35.3855C24.6471 36.2983 24.85 37.0083 24.85 37.0083C24.85 37.0083 24.7148 38.0563 26.0332 38.0563C27.3517 38.0563 27.2841 38.0563 28.163 37.7858C29.042 37.5154 28.8054 36.6702 28.7377 36.0617Z" fill="#E0E0E0"/>
<path d="M29.0091 32.8161C28.9076 32.3428 27.9824 31.4977 27.2849 31.1596C26.5874 30.8215 26.5074 30.5511 25.9664 30.5849C25.4255 30.6187 25.0074 30.6525 24.8046 31.5653C24.6017 32.4781 24.8046 33.6275 24.8046 33.6275C24.8046 33.6275 24.648 34.0332 25.9665 34.0332C27.2849 34.0332 27.3863 34.3374 28.1977 34.2022C29.009 34.0669 29.1105 33.2894 29.0091 32.8161Z" fill="#E0E0E0"/>
<path d="M28.873 29.8749C28.7716 29.4017 28.3197 28.5903 27.6222 28.2522C26.9247 27.9141 26.5404 27.6437 26.0346 27.6466C25.5289 27.6494 25.391 27.4409 24.9515 27.9818C24.512 28.5227 24.4444 29.334 24.8727 29.7088C25.3011 30.0835 25.0529 30.1116 25.8981 30.2468C26.7432 30.382 27.5884 31.2948 28.3997 31.1596C29.2111 31.0244 28.9745 30.3482 28.873 29.8749Z" fill="#E0E0E0"/>
<path d="M27.556 14.8644C27.8603 15.2025 32.3903 17.5689 32.0185 17.738C31.6466 17.907 27.556 17.6704 26.6432 17.907C25.7304 18.1437 25.4262 18.8198 25.4262 18.8198C24.837 19.6407 24.5134 19.3945 24.3106 18.7184C24.1077 18.0422 25.8995 13.0389 26.8123 12.6332C27.725 12.2275 27.6236 12.2613 27.725 12.8022C27.8265 13.3431 27.2517 14.5263 27.556 14.8644Z" fill="#E0E0E0"/>
<path d="M23.9358 12.9675C22.1102 12.8999 20.7242 12.021 20.4875 11.6153C20.2509 11.2096 20.4194 8.3963 20.1495 7.96417C19.8796 7.53204 19.3778 4.76907 20.4875 2.99459C21.5265 1.68717 22.0426 0.999997 24.071 1C26.0994 1 26.351 1.68868 27.3841 2.99459C28.4172 4.3005 28.1616 7.52477 27.8236 7.96417C27.4855 8.40357 27.6883 11.2096 27.3841 11.6153C27.0798 12.021 25.7614 13.0352 23.9358 12.9675Z" fill="#E0E0E0"/>
<path d="M28.4802 6.4867C28.4463 6.2502 27.7873 5.74586 27.6415 6.02758C27.4956 6.30931 27.558 8.60287 27.6419 8.64878C27.7257 8.69469 27.9829 8.63978 28.1127 8.60193C28.2425 8.56408 28.5142 6.7232 28.4802 6.4867Z" fill="#E0E0E0"/>
<path d="M19.4265 6.42713C19.4604 6.19063 20.1193 5.68629 20.2652 5.96801C20.4111 6.24974 20.3487 8.54329 20.2648 8.58921C20.1809 8.63512 19.9238 8.58021 19.794 8.54236C19.6642 8.50451 19.3925 6.66363 19.4265 6.42713Z" fill="#E0E0E0"/>
</g>
<defs>
<clipPath id="clip0_736_2932">
<rect width="48" height="48" rx="24" fill="white"/>
</clipPath>
</defs>
</svg>
