<svg width="48" height="48" viewBox="0 0 48 48" fill="none" xmlns="http://www.w3.org/2000/svg">
<g clip-path="url(#clip0_736_3277)">
<path d="M19.3322 45.001C19.2743 46.2425 21.9107 47.475 22.3289 47.7538C22.747 48.0325 23.4091 47.8932 23.4439 47.7886C23.4787 47.6841 23.5136 37.8927 23.4439 37.3352C23.3743 36.7777 23.4439 35.5581 22.2244 35.5581C21.0048 35.5581 20.726 37.1261 20.726 37.1261C19.7266 44.2472 19.3902 43.7596 19.3322 45.001Z" fill="#E0E0E0"/>
<path d="M20.2732 34.582V37.5438C20.2732 37.2302 20.8307 35.5228 21.5973 35.2789C22.3639 35.0351 23.026 35.3834 23.1305 35.5228C23.235 35.6622 22.3291 33.467 22.3639 32.9792C22.3987 32.4913 22.9563 28.0312 23.026 27.8918C23.0956 27.7524 22.8517 28.2402 22.573 28.3448C22.2942 28.4494 22.3639 28.4842 21.5973 28.2054C20.8307 27.9266 20.4474 26.7768 20.4474 26.7768C20.4474 26.7768 19.2976 26.9162 18.8097 26.7071C18.3219 26.498 18.4265 26.6026 17.5902 25.5921C16.7539 24.5815 20.2732 33.5367 20.2732 34.582Z" fill="#E74C3C"/>
<path d="M17.6245 24.721C17.3855 20.7999 18.8918 15.6621 19.4713 15.6962C20.0507 15.7303 20.203 17.0551 20.5166 17.0552C20.8302 17.0552 21.9104 15.8007 22.0149 16.2537C22.1195 16.7067 22.0498 21.132 22.2937 21.3411C22.5376 21.5502 23.339 25.4876 23.2693 26.3239C23.1996 27.1602 22.8512 27.9964 22.4331 28.1009C22.0149 28.2054 21.7013 27.9267 21.4574 27.7525C21.2135 27.5782 20.5863 25.9057 20.3772 25.9057C20.1682 25.9057 19.8913 26.4445 18.9834 26.3239C18.0755 26.2032 17.5443 24.7041 17.6245 24.721Z" fill="#E74C3C"/>
<path d="M17.9732 15.9748C17.9732 16.3581 18.3216 17.055 18.3913 17.1944C18.461 17.3337 18.8792 15.6264 18.8792 15.6264C18.8792 15.6264 20.029 12.2812 20.029 11.8631C20.029 11.445 20.3775 -1.16883 19.5761 -1.0643C18.7746 -0.959766 18.1823 -0.437091 17.9732 -0.297715C17.7641 -0.158339 17.2763 4.89416 17.346 5.59105C17.4157 6.28795 17.6945 10.3648 17.7641 10.7481C17.8338 11.1314 17.9732 15.5915 17.9732 15.9748Z" fill="#E0E0E0"/>
<path d="M21.1444 -2.00505C21.6671 -2.24898 22.8518 -3.32915 23.1654 -3.39884C23.479 -3.46853 23.3048 -2.70195 23.3048 -2.70195L22.573 3.04744L22.4685 9.28466L22.6776 13.6751L22.4685 16.1491C22.4685 16.1491 22.3291 16.8808 22.2594 16.8808C22.1897 16.8808 22.2594 16.2885 22.2594 16.2885C22.2594 16.2885 22.0504 15.5916 21.7716 15.6264C21.4928 15.6612 20.6566 16.7066 20.4823 16.5324C20.3081 16.3581 19.7158 15.1037 19.5764 15.034C19.437 14.9644 20.2384 13.5009 20.4126 13.1524C20.5869 12.804 20.6566 9.28466 20.552 8.93621C20.4475 8.58776 20.552 -0.367346 20.552 -0.367346C20.552 -0.367346 20.6217 -1.76112 21.1444 -2.00505Z" fill="#E0E0E0"/>
<path d="M15.6039 1.51492C15.7084 2.76935 17.381 10.7488 17.3461 9.70343C17.3113 8.65809 16.8931 3.5359 17.2067 2.00273C17.5203 0.469564 17.7643 -1.58628 17.7643 -3.88603C17.7643 -6.18579 16.1962 -6.77815 16.1962 -6.77815C16.1962 -6.77815 15.2903 -7.30082 15.2903 -5.94187C15.2903 -4.58293 15.4994 0.260495 15.6039 1.51492Z" fill="#E0E0E0"/>
<path d="M4.29423 2.23205C4.74721 1.8836 5.75771 -0.0327125 5.75771 -0.207089C5.75772 -0.381465 4.99113 0.176356 4.85175 0.245893C4.71237 0.31543 4.5033 -0.102402 4.43361 -0.207089C4.36392 -0.311776 5.02597 -0.834142 5.09566 -0.938829C5.16535 -1.04352 5.44411 -1.74011 5.40927 -2.05386C5.37442 -2.36762 5.30473 -3.51719 5.02597 -3.51734C4.74722 -3.5175 4.5033 -3.37812 4.29423 -3.34312C4.08516 -3.30812 3.14436 -3.76141 2.97013 -3.7961C2.79591 -3.83079 1.82026 -3.97033 1.47181 -3.7961C1.12336 -3.62188 -0.131053 -3.1689 -0.235587 -2.99467C-0.340121 -2.82045 0.147705 -2.33262 0.461308 -2.29778C0.774911 -2.26293 1.68088 -2.57653 1.68088 -2.57653C1.68088 -2.57653 2.90044 -2.92498 2.72622 -2.57653C2.55199 -2.22809 0.670377 1.01248 0.635532 1.1867C0.600687 1.36093 0.530998 1.77906 0.774911 1.81391C1.01882 1.84875 1.01882 1.74422 1.19305 1.81391C1.36727 1.8836 1.01882 2.65018 1.01882 2.65018C1.01882 2.65018 1.05367 3.10317 1.29758 3.10317C1.5415 3.10317 1.86174 2.88689 1.99448 2.65018C2.12722 2.41348 2.1687 2.71987 2.1687 2.71987C2.1687 2.71987 2.30808 3.03348 2.44746 3.10317C2.58684 3.17285 2.90044 3.03348 3.03982 2.92894C3.1792 2.82441 3.77156 1.91844 3.77156 1.91844C3.77156 1.91844 3.84125 2.58049 4.29423 2.23205Z" fill="#E0E0E0"/>
<path d="M28.8638 45.001C28.9218 46.2425 26.2853 47.475 25.8672 47.7538C25.449 48.0325 24.7869 47.8932 24.7521 47.7886C24.7173 47.6841 24.6824 37.8927 24.7521 37.3352C24.8218 36.7777 24.7521 35.5581 25.9717 35.5581C27.1912 35.5581 27.47 37.1261 27.47 37.1261C28.4694 44.2472 28.8058 43.7596 28.8638 45.001Z" fill="#E0E0E0"/>
<path d="M27.9233 34.582V37.5438C27.9233 37.2302 27.3658 35.5228 26.5992 35.2789C25.8326 35.0351 25.1706 35.3834 25.066 35.5228C24.9615 35.6622 25.8675 33.467 25.8326 32.9792C25.7978 32.4913 25.2403 28.0312 25.1706 27.8918C25.1009 27.7524 25.3448 28.2402 25.6236 28.3448C25.9023 28.4494 25.8326 28.4842 26.5992 28.2054C27.3658 27.9266 27.7491 26.7768 27.7491 26.7768C27.7491 26.7768 28.8989 26.9162 29.3868 26.7071C29.8746 26.498 29.7701 26.6026 30.6064 25.5921C31.4427 24.5815 27.9233 33.5367 27.9233 34.582Z" fill="#E74C3C"/>
<path d="M30.5714 24.721C30.8105 20.7999 29.3041 15.6621 28.7247 15.6962C28.1452 15.7303 27.9929 17.0551 27.6793 17.0552C27.3657 17.0552 26.2855 15.8007 26.181 16.2537C26.0765 16.7067 26.1462 21.132 25.9022 21.3411C25.6583 21.5502 24.8569 25.4876 24.9266 26.3239C24.9963 27.1602 25.3447 27.9964 25.7629 28.1009C26.181 28.2054 26.4946 27.9267 26.7385 27.7525C26.9824 27.5782 27.6096 25.9057 27.8187 25.9057C28.0278 25.9057 28.3046 26.4445 29.2125 26.3239C30.1204 26.2032 30.6516 24.7041 30.5714 24.721Z" fill="#E74C3C"/>
<path d="M30.223 15.9748C30.223 16.3581 29.8745 17.055 29.8048 17.1944C29.7351 17.3337 29.317 15.6264 29.317 15.6264C29.317 15.6264 28.1671 12.2812 28.1671 11.8631C28.1671 11.445 27.8187 -1.16883 28.6201 -1.0643C29.4215 -0.959766 30.0139 -0.437091 30.223 -0.297715C30.432 -0.158339 30.9199 4.89416 30.8502 5.59105C30.7805 6.28795 30.5017 10.3648 30.432 10.7481C30.3624 11.1314 30.223 15.5915 30.223 15.9748Z" fill="#E0E0E0"/>
<path d="M27.0519 -2.00505C26.5292 -2.24898 25.3445 -3.32915 25.0309 -3.39884C24.7173 -3.46853 24.8915 -2.70195 24.8915 -2.70195L25.6233 3.04744L25.7278 9.28466L25.5187 13.6751L25.7278 16.1491C25.7278 16.1491 25.8672 16.8808 25.9369 16.8808C26.0066 16.8808 25.9369 16.2885 25.9369 16.2885C25.9369 16.2885 26.1459 15.5916 26.4247 15.6264C26.7035 15.6612 27.5397 16.7066 27.714 16.5324C27.8882 16.3581 28.4805 15.1037 28.6199 15.034C28.7593 14.9644 27.9579 13.5009 27.7836 13.1524C27.6094 12.804 27.5397 9.28466 27.6443 8.93621C27.7488 8.58776 27.6443 -0.367346 27.6443 -0.367346C27.6443 -0.367346 27.5746 -1.76112 27.0519 -2.00505Z" fill="#E0E0E0"/>
<path d="M32.5922 1.51492C32.4876 2.76935 30.8151 10.7488 30.8499 9.70343C30.8848 8.65809 31.3029 3.5359 30.9893 2.00273C30.6757 0.469564 30.4318 -1.58628 30.4318 -3.88603C30.4318 -6.18579 31.9998 -6.77815 31.9998 -6.77815C31.9998 -6.77815 32.9058 -7.30082 32.9058 -5.94187C32.9058 -4.58293 32.6967 0.260495 32.5922 1.51492Z" fill="#E0E0E0"/>
<path d="M43.9025 2.23205C43.4496 1.8836 42.4391 -0.0327125 42.4391 -0.207089C42.4391 -0.381465 43.2057 0.176356 43.345 0.245893C43.4844 0.31543 43.6935 -0.102402 43.7632 -0.207089C43.8329 -0.311776 43.1708 -0.834142 43.1011 -0.938829C43.0314 -1.04352 42.7527 -1.74011 42.7875 -2.05386C42.8224 -2.36762 42.8921 -3.51719 43.1708 -3.51734C43.4496 -3.5175 43.6935 -3.37812 43.9025 -3.34312C44.1116 -3.30812 45.0524 -3.76141 45.2266 -3.7961C45.4009 -3.83079 46.3765 -3.97033 46.725 -3.7961C47.0734 -3.62188 48.3278 -3.1689 48.4324 -2.99467C48.5369 -2.82045 48.0491 -2.33262 47.7355 -2.29778C47.4219 -2.26293 46.5159 -2.57653 46.5159 -2.57653C46.5159 -2.57653 45.2963 -2.92498 45.4706 -2.57653C45.6448 -2.22809 47.5264 1.01248 47.5612 1.1867C47.5961 1.36093 47.6658 1.77906 47.4219 1.81391C47.178 1.84875 47.178 1.74422 47.0037 1.81391C46.8295 1.8836 47.178 2.65018 47.178 2.65018C47.178 2.65018 47.1431 3.10317 46.8992 3.10317C46.6553 3.10317 46.335 2.88689 46.2023 2.65018C46.0696 2.41348 46.0281 2.71987 46.0281 2.71987C46.0281 2.71987 45.8887 3.03348 45.7493 3.10317C45.6099 3.17285 45.2963 3.03348 45.157 2.92894C45.0176 2.82441 44.4252 1.91844 44.4252 1.91844C44.4252 1.91844 44.3555 2.58049 43.9025 2.23205Z" fill="#E0E0E0"/>
</g>
<defs>
<clipPath id="clip0_736_3277">
<rect width="48" height="48" rx="24" fill="white"/>
</clipPath>
</defs>
</svg>
