<svg width="48" height="48" viewBox="0 0 48 48" fill="none" xmlns="http://www.w3.org/2000/svg">
<g clip-path="url(#clip0_736_3410)">
<path fill-rule="evenodd" clip-rule="evenodd" d="M23.9993 17.6974L23.1389 16.813C21.1193 14.737 17.4161 15.4534 16.0793 18.0634C15.5009 19.1938 15.3353 20.7874 16.2089 22.7998H14.9153C12.3617 15.9634 19.9133 12.2038 23.7881 15.7714C23.8601 15.8374 23.9309 15.9058 23.9993 15.9766C24.067 15.9058 24.1375 15.8378 24.2105 15.7726C28.0865 12.2038 35.6369 15.9634 33.0833 22.7998H31.7897C32.6633 20.7874 32.4977 19.1938 31.9193 18.0634C30.5825 15.4534 26.8793 14.7358 24.8597 16.8118L23.9993 17.6974ZM17.0537 26.3998H18.6317C19.9109 27.8194 21.6593 29.3494 23.9993 30.9538C26.3381 29.3494 28.0877 27.8194 29.3669 26.3998H30.9449C29.4269 28.279 27.1769 30.2998 23.9993 32.3998C20.8217 30.2998 18.5717 28.279 17.0537 26.3998ZM26.9561 18.3766C26.9096 18.2604 26.8279 18.1617 26.7224 18.0943C26.617 18.0268 26.4931 17.9941 26.3681 18.0005C26.2431 18.007 26.1233 18.0524 26.0254 18.1304C25.9275 18.2084 25.8564 18.315 25.8221 18.4354L23.9045 25.147L22.1561 20.7766C22.1154 20.6752 22.0478 20.5869 21.9605 20.5211C21.8733 20.4553 21.7697 20.4146 21.6611 20.4034C21.5524 20.3921 21.4427 20.4108 21.3439 20.4573C21.245 20.5038 21.1607 20.5765 21.1001 20.6674L18.8777 23.9998H14.9993C14.8402 23.9998 14.6876 24.063 14.5751 24.1755C14.4625 24.288 14.3993 24.4406 14.3993 24.5998C14.3993 24.7589 14.4625 24.9115 14.5751 25.024C14.6876 25.1366 14.8402 25.1998 14.9993 25.1998H19.1993C19.2981 25.1997 19.3954 25.1753 19.4825 25.1286C19.5696 25.0819 19.6438 25.0144 19.6985 24.9322L21.4661 22.2814L23.4425 27.223C23.4891 27.3392 23.5708 27.4379 23.6762 27.5053C23.7817 27.5727 23.9056 27.6055 24.0305 27.599C24.1555 27.5925 24.2754 27.5471 24.3733 27.4691C24.4712 27.3912 24.5422 27.2845 24.5765 27.1642L26.4941 20.4526L28.2425 24.823C28.2871 24.9342 28.3639 25.0295 28.4632 25.0967C28.5624 25.1638 28.6795 25.1997 28.7993 25.1998H32.9993C33.1584 25.1998 33.3111 25.1366 33.4236 25.024C33.5361 24.9115 33.5993 24.7589 33.5993 24.5998C33.5993 24.4406 33.5361 24.288 33.4236 24.1755C33.3111 24.063 33.1584 23.9998 32.9993 23.9998H29.2049L26.9561 18.3766Z" fill="#E0E0E0"/>
</g>
<defs>
<clipPath id="clip0_736_3410">
<rect width="19.2" height="19.2" fill="white" transform="translate(14.3995 14.3999)"/>
</clipPath>
</defs>
</svg>
