<svg width="48" height="48" viewBox="0 0 48 48" fill="none" xmlns="http://www.w3.org/2000/svg">
<g clip-path="url(#clip0_736_2886)">
<path d="M23.5154 13.4843C23.0421 13.3829 23.0592 13.4466 23.2449 13.7885C23.7067 14.7662 23.8754 15.4577 24.0901 16.8311C24.2353 17.2342 24.3168 17.1503 24.462 16.8311C24.6092 15.5841 24.7546 14.9074 25.2733 13.7885C25.505 13.4727 25.4485 13.4004 24.9691 13.4843C24.445 13.5853 23.9887 13.5856 23.5154 13.4843Z" fill="#E0E0E0"/>
<path d="M23.1 49.5124C23.1339 49.8842 22.7956 61.5475 22.5929 59.8572C22.3902 58.1669 15.6625 41.2635 17.0824 43.8328C18.5023 46.4021 23.066 49.1405 23.1 49.5124Z" fill="#E0E0E0"/>
<path d="M16.3054 59.3839C16.3054 59.3839 17.8605 70.1009 18.0971 70.202C18.3338 70.3031 20.1931 66.8892 20.6326 64.962C21.0721 63.0347 20.9031 57.7614 20.8016 56.747C20.7002 55.7325 16.9827 44.8832 16.7787 44.0695C16.5746 43.2557 15.838 41.775 15.6968 42.1763C15.5556 42.5776 14.7475 50.0375 14.9869 49.6814C15.0827 52.8135 15.2975 54.8208 16.3054 59.3839Z" fill="#E0E0E0"/>
<path d="M14.087 27.4204C13.9518 27.8261 12.4305 32.4576 12.6333 32.6266C12.8362 32.7957 13.0728 32.2548 13.5799 31.2406C14.087 30.2263 14.5941 27.7247 14.5265 27.5218C14.4589 27.319 14.2222 27.0147 14.087 27.4204Z" fill="#E0E0E0"/>
<path d="M12.3626 19.8479C13.5796 18.8675 15.1009 17.7519 15.7433 17.9209C16.3856 18.09 17.0279 18.7999 17.0279 18.7999C17.0279 18.7999 17.1969 19.0027 17.0279 19.5436C16.8589 20.0845 16.6222 21.1664 15.608 22.451C14.5938 23.7357 11.9569 24.6146 11.9569 24.6146C11.9569 24.6146 10.9089 25.1893 10.6723 25.4598C10.4356 25.7303 10.8413 23.2624 10.8413 23.2624C10.8413 23.2624 11.1456 20.8283 12.3626 19.8479Z" fill="#E0E0E0"/>
<path d="M10.1313 27.9942C9.82707 29.955 9.65802 36.5811 9.89467 36.2768C10.1313 35.9726 11.3822 33.7751 11.8216 33.268C12.2611 32.761 12.7006 30.8677 12.9711 30.1578C13.2415 29.4479 13.8747 27.2165 14.0191 25.0868C14.0191 25.0868 14.0191 24.1741 13.1401 24.5121C12.2611 24.8502 11.6864 25.3911 11.6864 25.3911C11.6864 25.3911 10.4356 26.0334 10.1313 27.9942Z" fill="#E0E0E0"/>
<path d="M9.96242 36.6157C11.1457 34.7225 12.3627 32.8293 12.5993 33.2012C12.836 33.5731 12.836 34.3168 12.836 34.3168C12.5789 35.2883 12.3217 35.8733 11.7542 36.9537C11.3313 38.7484 10.9192 39.6851 10.1653 41.3486C10.2034 41.1811 7.69437 47.3999 7.56215 47.6028C7.42994 47.8057 7.49454 46.2506 7.56215 45.6758C7.62977 45.101 8.77919 38.5088 9.96242 36.6157Z" fill="#E0E0E0"/>
<path d="M7.3256 43.4781C6.81849 44.2219 4.95914 45.6756 4.7563 45.5403C4.55346 45.4051 5.73669 42.7682 5.73669 42.7682C6.13019 41.6743 6.32268 40.8957 6.54805 38.8128C6.54805 38.8128 6.95372 36.4125 6.98753 36.1421C7.02135 35.8717 8.23837 33.3023 8.64406 32.9305C9.04975 32.5586 9.04974 32.3557 9.3202 32.9981C9.59065 33.6404 9.59065 34.9251 9.59065 34.9251C9.59065 34.9251 9.52305 36.7168 8.98213 38.1367C8.44121 39.5566 7.8327 41.8216 7.8327 41.8216C7.8327 41.8216 7.83271 42.7344 7.3256 43.4781Z" fill="#E0E0E0"/>
<path d="M5.22 46.153C5.55803 46.0178 7.11317 44.1246 7.2484 44.3613C7.38363 44.5979 6.84272 47.6743 7.04556 48.249C7.2484 48.8237 7.28221 48.6548 7.38363 49.4323C7.48505 50.2098 6.7413 51.2578 6.7413 51.2578C6.7413 51.2578 5.52426 52.5424 5.01716 52.5086C4.51006 52.4749 5.92994 51.8663 5.7271 50.345C5.52426 48.8237 5.35523 48.8237 5.22 48.8237C5.08477 48.8238 4.57767 49.1279 4.40864 49.128C4.23961 49.1281 3.73251 48.9252 3.42825 48.7223C3.12399 48.5194 2.00837 48.6546 1.70411 48.6209C1.39985 48.5871 3.63106 46.4911 4.10438 46.4573C4.5777 46.4234 4.88197 46.2882 5.22 46.153Z" fill="#E0E0E0"/>
<path d="M43.485 46.153C43.147 46.0178 41.5918 44.1246 41.4566 44.3613C41.3214 44.5979 41.8623 47.6743 41.6595 48.249C41.4566 48.8237 41.4228 48.6548 41.3214 49.4323C41.22 50.2098 41.9637 51.2578 41.9637 51.2578C41.9637 51.2578 43.1808 52.5424 43.6879 52.5086C44.195 52.4749 42.7751 51.8663 42.9779 50.345C43.1808 48.8237 43.3498 48.8237 43.485 48.8237C43.6202 48.8238 44.1273 49.1279 44.2964 49.128C44.4654 49.1281 44.9725 48.9252 45.2768 48.7223C45.581 48.5194 46.6966 48.6546 47.0009 48.6209C47.3052 48.5871 45.074 46.4911 44.6006 46.4573C44.1273 46.4234 43.823 46.2882 43.485 46.153Z" fill="#E0E0E0"/>
<path d="M23.7203 41.9518C23.7203 41.9518 23.8098 47.1126 23.3823 47.4168C22.9547 47.7211 22.3124 47.3492 22.3124 47.3492C21.5935 46.6387 21.3154 45.7423 20.6101 43.5407C20.1878 41.446 19.8915 40.1779 20.0135 38.6609C20.1511 38.4695 20.6228 38.4021 20.6228 38.4021C20.6228 38.4021 23.0899 38.1538 23.395 39.1342C23.7 40.1145 23.6154 40.0784 23.7203 41.9518Z" fill="#E0E0E0"/>
<path d="M18.59 38.1382C18.7617 42.1801 20.5484 45.6007 20.9226 45.88C21.2969 46.1592 19.6042 45.88 17.8124 43.7501C16.0207 41.6203 15.4798 39.5581 15.4798 39.5581C15.2586 39.1029 15.6554 34.9712 16.0207 35.2985C16.386 35.6258 16.3896 36.4171 17.3391 37.1241C18.2886 37.831 17.6522 37.3333 18.1167 37.6988C18.2382 37.7944 18.576 37.8092 18.59 38.1382Z" fill="#E0E0E0"/>
<path d="M18.4592 34.7399C18.4351 36.6119 19.066 36.5321 18.8987 36.8359C18.7314 37.1397 18.1549 37.6811 17.2421 36.3626C16.3294 35.0442 16.5431 35.0631 16.3294 34.7399C16.1156 34.4167 16.1923 32.7459 15.8204 31.6641C15.4485 30.5823 15.6765 30.5075 15.5161 29.8386C15.3558 29.1696 15.5856 27.049 16.5322 26.9306C17.4788 26.8121 18.5606 27.5729 18.7296 28.0462C18.8987 28.5195 18.8007 29.1631 18.7296 29.8386C18.6586 30.5141 18.6807 31.3254 18.5944 32.2044C18.5081 33.0834 18.4832 32.8678 18.4592 34.7399Z" fill="#E0E0E0"/>
<path d="M19.2366 18.6137C18.7633 18.8165 17.9857 19.6955 17.411 20.5407C16.8363 21.3859 15.951 22.4287 15.5178 23.3804C14.8045 24.1372 14.7852 24.248 15.146 24.6313C15.5067 25.0145 15.484 24.9693 18.0195 26.2878C20.555 27.6062 23.4286 27.6401 23.5976 26.3892C23.7667 25.1384 23.5976 24.2932 23.5976 22.4C23.5976 20.5068 23.5301 20.1688 22.8201 19.256C22.1101 18.3432 19.7099 18.4108 19.2366 18.6137Z" fill="#E74C3C"/>
<path d="M19.7094 36.0912C19.777 35.4827 20.6222 34.1304 21.7716 34.3333C22.4926 34.4605 22.6815 34.4946 22.7222 34.5024C22.7781 34.5042 23.4035 34.5434 23.5972 35.4151C23.8 36.3279 23.5972 37.0378 23.5972 37.0378C23.5972 37.0378 23.7324 38.0858 22.4139 38.0858C21.0955 38.0858 21.1631 38.0858 20.2841 37.8154C19.4051 37.5449 19.6418 36.6998 19.7094 36.0912Z" fill="#E0E0E0"/>
<path d="M19.4387 32.8464C19.5401 32.3731 20.4654 31.528 21.1628 31.1899C21.8603 30.8518 21.9404 30.5814 22.4813 30.6152C23.0222 30.649 23.4403 30.6828 23.6432 31.5956C23.846 32.5083 23.6432 33.6578 23.6432 33.6578C23.6432 33.6578 23.7998 34.0634 22.4813 34.0634C21.1628 34.0634 21.0614 34.3677 20.2501 34.2324C19.4387 34.0972 19.3373 33.3197 19.4387 32.8464Z" fill="#E0E0E0"/>
<path d="M19.5742 29.9052C19.6756 29.4319 20.1275 28.6206 20.825 28.2825C21.5225 27.9444 21.9068 27.674 22.4126 27.6768C22.9183 27.6797 23.0563 27.4711 23.4957 28.012C23.9352 28.553 24.0028 29.3643 23.5745 29.739C23.1461 30.1138 23.3943 30.1419 22.5492 30.2771C21.704 30.4123 20.8588 31.3251 20.0475 31.1899C19.2361 31.0546 19.4728 30.3785 19.5742 29.9052Z" fill="#E0E0E0"/>
<path d="M20.8924 14.8952C20.5881 15.2333 16.058 17.5997 16.4299 17.7687C16.8018 17.9378 20.8924 17.7011 21.8051 17.9378C22.7179 18.1744 23.0222 18.8506 23.0222 18.8506C23.6113 19.6715 23.935 19.4253 24.1378 18.7491C24.3406 18.073 22.5489 13.0696 21.6361 12.6639C20.7233 12.2583 20.8248 12.2921 20.7233 12.833C20.6219 13.3739 21.1966 14.5571 20.8924 14.8952Z" fill="#E0E0E0"/>
<path d="M25.5978 49.4831C25.5638 49.8549 25.9022 61.5182 26.1049 59.8279C26.3076 58.1376 33.0352 41.2342 31.6154 43.8035C30.1955 46.3728 25.6317 49.1112 25.5978 49.4831Z" fill="#E0E0E0"/>
<path d="M32.3924 59.3546C32.3924 59.3546 30.8373 70.0716 30.6006 70.1727C30.364 70.2738 28.5046 66.8599 28.0651 64.9327C27.6257 63.0054 27.7947 57.7321 27.8961 56.7177C27.9975 55.7032 31.7151 44.8539 31.9191 44.0402C32.1231 43.2264 32.8597 41.7457 33.0009 42.147C33.1421 42.5483 33.9502 50.0082 33.7109 49.6521C33.6151 52.7842 33.4003 54.7915 32.3924 59.3546Z" fill="#E0E0E0"/>
<path d="M34.6107 27.3904C34.746 27.7961 36.2673 32.4276 36.0644 32.5966C35.8616 32.7656 35.6249 32.2248 35.1178 31.2105C34.6107 30.1963 34.1036 27.6946 34.1712 27.4918C34.2389 27.289 34.4755 26.9847 34.6107 27.3904Z" fill="#E0E0E0"/>
<path d="M36.3356 19.8176C35.1186 18.8372 33.5973 17.7216 32.955 17.8906C32.3127 18.0597 31.6703 18.7696 31.6703 18.7696C31.6703 18.7696 31.5013 18.9725 31.6703 19.5134C31.8394 20.0543 32.076 21.1361 33.0902 22.4207C34.1044 23.7054 36.7413 24.5844 36.7413 24.5844C36.7413 24.5844 37.7893 25.1591 38.026 25.4295C38.2626 25.7 37.8569 23.2321 37.8569 23.2321C37.8569 23.2321 37.5527 20.798 36.3356 19.8176Z" fill="#E0E0E0"/>
<path d="M38.5659 27.9649C38.8702 29.9257 39.0392 36.5518 38.8026 36.2475C38.5659 35.9433 37.3151 33.7458 36.8756 33.2387C36.4361 32.7317 35.9966 30.8384 35.7262 30.1285C35.4557 29.4186 34.8226 27.1872 34.6782 25.0575C34.6782 25.0575 34.6782 24.1448 35.5572 24.4828C36.4361 24.8209 37.0108 25.3618 37.0108 25.3618C37.0108 25.3618 38.2617 26.0041 38.5659 27.9649Z" fill="#E0E0E0"/>
<path d="M38.7348 36.5861C37.5516 34.693 36.3346 32.7998 36.0979 33.1716C35.8613 33.5435 35.8613 34.2873 35.8613 34.2873C36.1184 35.2587 36.3756 35.8438 36.9431 36.9242C37.3659 38.7188 37.7781 39.6555 38.532 41.319C38.4939 41.1516 41.0029 47.3703 41.1351 47.5733C41.2673 47.7762 41.2027 46.2211 41.1351 45.6463C41.0675 45.0715 39.9181 38.4793 38.7348 36.5861Z" fill="#E0E0E0"/>
<path d="M41.3717 43.4488C41.8788 44.1926 43.7381 45.6463 43.941 45.511C44.1438 45.3758 42.9606 42.7389 42.9606 42.7389C42.5671 41.645 42.3746 40.8664 42.1492 38.7835C42.1492 38.7835 41.7436 36.3832 41.7097 36.1128C41.6759 35.8424 40.4589 33.273 40.0532 32.9012C39.6475 32.5293 39.6475 32.3264 39.3771 32.9688C39.1066 33.6111 39.1066 34.8958 39.1066 34.8958C39.1066 34.8958 39.1742 36.6875 39.7151 38.1074C40.2561 39.5273 40.8646 41.7923 40.8646 41.7923C40.8646 41.7923 40.8646 42.7051 41.3717 43.4488Z" fill="#E0E0E0"/>
<path d="M24.9774 41.9215C24.9774 41.9215 24.8879 47.0823 25.3155 47.3866C25.743 47.6908 26.3854 47.3189 26.3854 47.3189C27.1043 46.6084 27.3824 45.7121 28.0876 43.5104C28.51 41.4157 28.8063 40.1476 28.6842 38.6306C28.5466 38.4393 28.0749 38.3718 28.0749 38.3718C28.0749 38.3718 25.6078 38.1235 25.3028 39.1039C24.9977 40.0843 25.0824 40.0481 24.9774 41.9215Z" fill="#E0E0E0"/>
<path d="M30.1073 38.1087C29.9355 42.1506 28.1489 45.5712 27.7746 45.8504C27.4004 46.1296 29.0931 45.8504 30.8849 43.7206C32.6766 41.5908 33.2175 39.5286 33.2175 39.5286C33.4387 39.0734 33.0419 34.9416 32.6766 35.2689C32.3113 35.5963 32.3076 36.3875 31.3582 37.0945C30.4087 37.8015 31.045 37.3038 30.5806 37.6692C30.4591 37.7648 30.1213 37.7797 30.1073 38.1087Z" fill="#E0E0E0"/>
<path d="M30.2386 34.7094C30.2627 36.5814 29.6319 36.5016 29.7992 36.8054C29.9664 37.1092 30.5429 37.6506 31.4557 36.3321C32.3685 35.0136 32.1547 35.0326 32.3685 34.7094C32.5822 34.3862 32.5055 32.7154 32.8774 31.6336C33.2493 30.5518 33.0214 30.477 33.1817 29.808C33.342 29.1391 33.1122 27.0185 32.1656 26.9C31.219 26.7816 30.1372 27.5423 29.9682 28.0156C29.7992 28.4889 29.8971 29.1325 29.9682 29.808C30.0392 30.4835 30.0171 31.2949 30.1034 32.1739C30.1898 33.0528 30.2146 32.8373 30.2386 34.7094Z" fill="#E0E0E0"/>
<path d="M29.4612 18.5844C29.9345 18.7872 30.712 19.6662 31.2867 20.5114C31.8615 21.3566 32.7468 22.3994 33.1799 23.3511C33.8933 24.1079 33.9125 24.2187 33.5518 24.602C33.1911 24.9852 33.2137 24.94 30.6782 26.2585C28.1427 27.5769 25.2692 27.6108 25.1001 26.3599C24.9311 25.1091 25.1001 24.2639 25.1001 22.3707C25.1001 20.4776 25.1677 20.1395 25.8777 19.2267C26.5877 18.3139 28.9879 18.3815 29.4612 18.5844Z" fill="#E74C3C"/>
<path d="M28.9874 36.0617C28.9198 35.4531 28.0746 34.1009 26.9252 34.3037C26.2042 34.431 26.0153 34.4651 25.9746 34.4729C25.9187 34.4746 25.2933 34.5139 25.0996 35.3855C24.8968 36.2983 25.0996 37.0083 25.0996 37.0083C25.0996 37.0083 24.9644 38.0563 26.2828 38.0563C27.6013 38.0563 27.5337 38.0563 28.4127 37.7858C29.2916 37.5154 29.055 36.6702 28.9874 36.0617Z" fill="#E0E0E0"/>
<path d="M29.2595 32.8161C29.1581 32.3428 28.2329 31.4977 27.5354 31.1596C26.8379 30.8215 26.7578 30.5511 26.2169 30.5849C25.676 30.6187 25.2579 30.6525 25.0551 31.5653C24.8522 32.4781 25.0551 33.6275 25.0551 33.6275C25.0551 33.6275 24.8985 34.0332 26.2169 34.0332C27.5354 34.0332 27.6368 34.3374 28.4482 34.2022C29.2595 34.0669 29.361 33.2894 29.2595 32.8161Z" fill="#E0E0E0"/>
<path d="M29.1231 29.8749C29.0217 29.4017 28.5697 28.5903 27.8722 28.2522C27.1748 27.9141 26.7904 27.6437 26.2847 27.6466C25.7789 27.6494 25.641 27.4409 25.2015 27.9818C24.762 28.5227 24.6944 29.334 25.1228 29.7088C25.5512 30.0835 25.3029 30.1116 26.1481 30.2468C26.9933 30.382 27.8384 31.2948 28.6498 31.1596C29.4612 31.0244 29.2245 30.3482 29.1231 29.8749Z" fill="#E0E0E0"/>
<path d="M27.8054 14.8644C28.1097 15.2025 32.6397 17.5689 32.2679 17.738C31.896 17.907 27.8054 17.6704 26.8926 17.907C25.9798 18.1437 25.6756 18.8198 25.6756 18.8198C25.0864 19.6407 24.7628 19.3945 24.56 18.7184C24.3571 18.0422 26.1489 13.0389 27.0616 12.6332C27.9744 12.2275 27.873 12.2613 27.9744 12.8022C28.0758 13.3431 27.5011 14.5263 27.8054 14.8644Z" fill="#E0E0E0"/>
<path d="M24.1848 12.9675C22.3592 12.8999 20.9732 12.021 20.7365 11.6153C20.4998 11.2096 20.6683 8.3963 20.3984 7.96417C20.1285 7.53204 19.6268 4.76907 20.7365 2.99459C21.7754 1.68717 22.2916 0.999997 24.32 1C26.3484 1 26.6 1.68868 27.6331 2.99459C28.6661 4.3005 28.4106 7.52477 28.0725 7.96417C27.7345 8.40357 27.9373 11.2096 27.6331 11.6153C27.3288 12.021 26.0103 13.0352 24.1848 12.9675Z" fill="#E0E0E0"/>
<path d="M28.7303 6.4867C28.6963 6.2502 28.0374 5.74586 27.8915 6.02758C27.7456 6.30931 27.8081 8.60287 27.8919 8.64878C27.9758 8.69469 28.2329 8.63978 28.3628 8.60193C28.4926 8.56408 28.7642 6.7232 28.7303 6.4867Z" fill="#E0E0E0"/>
<path d="M19.6769 6.42713C19.7109 6.19063 20.3698 5.68629 20.5157 5.96801C20.6616 6.24974 20.5992 8.54329 20.5153 8.58921C20.4314 8.63512 20.1743 8.58021 20.0445 8.54236C19.9146 8.50451 19.643 6.66363 19.6769 6.42713Z" fill="#E0E0E0"/>
</g>
<defs>
<clipPath id="clip0_736_2886">
<rect width="48" height="48" rx="24" fill="white"/>
</clipPath>
</defs>
</svg>
