<svg width="48" height="48" viewBox="0 0 48 48" fill="none" xmlns="http://www.w3.org/2000/svg">
<g clip-path="url(#clip0_736_3318)">
<path d="M23.0434 1.99921C22.5695 1.89775 22.5867 1.96147 22.7726 2.30383C23.235 3.28272 23.4039 3.97501 23.6188 5.35007C23.7642 5.75359 23.8457 5.66959 23.9911 5.35007C24.1385 4.10159 24.2841 3.42407 24.8034 2.30383C25.0354 1.98765 24.9789 1.91526 24.4988 1.99921C23.9741 2.1004 23.5173 2.10067 23.0434 1.99921Z" fill="#E0E0E0"/>
<path d="M22.6277 38.0705C22.6616 38.4427 22.3229 50.12 22.12 48.4277C21.917 46.7354 15.1813 29.8118 16.6029 32.3842C18.0245 34.9566 22.5937 37.6982 22.6277 38.0705Z" fill="#E0E0E0"/>
<path d="M15.8251 47.9536C15.8251 47.9536 17.382 58.6834 17.619 58.7847C17.8559 58.8859 19.7175 55.468 20.1575 53.5384C20.5975 51.6088 20.4283 46.3292 20.3267 45.3135C20.2252 44.2978 16.5032 33.4356 16.2989 32.6209C16.0947 31.8062 15.3572 30.3237 15.2158 30.7254C15.0744 31.1272 14.2654 38.5961 14.505 38.2395C14.6009 41.3754 14.8159 43.3851 15.8251 47.9536Z" fill="#E0E0E0"/>
<path d="M21.206 56.8562C21.206 56.8562 21.4206 58.9309 21.4768 60.1732C21.533 61.4155 22.421 56.3525 22.4584 55.4685C22.4846 54.0488 22.5476 53.4444 22.1537 50.3576C22.1537 50.3576 21.1383 45.8897 21.0029 46.499C20.8676 47.1082 21.0029 49.5114 21.0029 49.8498C21.0029 50.1883 20.4952 54.25 20.4952 54.5884C20.4952 54.9269 20.8617 55.5265 21.206 56.8562Z" fill="#E0E0E0"/>
<path d="M13.6039 15.9522C13.4685 16.3583 11.9454 20.9954 12.1485 21.1646C12.3516 21.3338 12.5885 20.7923 13.0962 19.7769C13.6039 18.7614 14.1116 16.2568 14.0439 16.0537C13.9762 15.8506 13.7393 15.546 13.6039 15.9522Z" fill="#E0E0E0"/>
<path d="M11.8774 8.37048C13.0959 7.38891 14.619 6.27197 15.2621 6.4412C15.9052 6.61044 16.5483 7.32123 16.5483 7.32123C16.5483 7.32123 16.7175 7.52432 16.5483 8.06586C16.3791 8.60741 16.1421 9.69053 15.1267 10.9767C14.1113 12.2629 11.4712 13.1429 11.4712 13.1429C11.4712 13.1429 10.422 13.7183 10.185 13.9891C9.94812 14.2599 10.3543 11.789 10.3543 11.789C10.3543 11.789 10.6589 9.35206 11.8774 8.37048Z" fill="#E0E0E0"/>
<path d="M9.64394 16.5265C9.33933 18.4897 9.17008 25.1237 9.40701 24.8191C9.64394 24.5144 10.8963 22.3144 11.3363 21.8067C11.7763 21.299 12.2163 19.4035 12.4871 18.6927C12.7579 17.982 13.3918 15.7479 13.5364 13.6157C13.5364 13.6157 13.5363 12.7018 12.6563 13.0403C11.7763 13.3788 11.2009 13.9203 11.2009 13.9203C11.2009 13.9203 9.94855 14.5634 9.64394 16.5265Z" fill="#E0E0E0"/>
<path d="M9.47466 25.1581C10.6593 23.2627 11.8778 21.3672 12.1147 21.7396C12.3517 22.1119 12.3517 22.8565 12.3517 22.8565C12.0942 23.8292 11.8368 24.4149 11.2686 25.4966C10.8452 27.2934 10.4326 28.2312 9.67775 29.8967C9.71589 29.729 7.20389 35.9552 7.07152 36.1584C6.93915 36.3616 7.00383 34.8046 7.07152 34.2291C7.13922 33.6536 8.29002 27.0535 9.47466 25.1581Z" fill="#E74C3C"/>
<path d="M6.83505 32.029C6.32733 32.7736 4.46576 34.2291 4.26267 34.0937C4.05959 33.9583 5.24424 31.3182 5.24424 31.3182C5.6382 30.2231 5.83093 29.4434 6.05657 27.3581C6.05657 27.3581 6.46272 24.955 6.49658 24.6842C6.53044 24.4134 7.74891 21.841 8.15509 21.4687C8.56126 21.0964 8.56125 20.8933 8.83203 21.5364C9.10281 22.1795 9.10281 23.4657 9.10281 23.4657C9.10281 23.4657 9.03513 25.2596 8.49356 26.6812C7.95199 28.1027 7.34276 30.3705 7.34276 30.3705C7.34276 30.3705 7.34277 31.2844 6.83505 32.029Z" fill="#E74C3C"/>
<path d="M4.72662 34.7069C5.06505 34.5716 6.62206 32.6761 6.75744 32.913C6.89283 33.15 6.35128 36.2301 6.55436 36.8055C6.75744 37.3809 6.79129 37.2117 6.89283 37.9901C6.99437 38.7685 6.24974 39.8178 6.24974 39.8178C6.24974 39.8178 5.03124 41.1039 4.52354 41.0701C4.01583 41.0363 5.43741 40.4271 5.23433 38.904C5.03124 37.3809 4.86201 37.3808 4.72662 37.3809C4.59123 37.3809 4.08352 37.6854 3.91429 37.6855C3.74505 37.6855 3.23735 37.4825 2.93273 37.2793C2.6281 37.0762 1.51115 37.2116 1.20652 37.1778C0.901901 37.144 3.13578 35.0455 3.60967 35.0116C4.08355 34.9777 4.38818 34.8423 4.72662 34.7069Z" fill="#E0E0E0"/>
<path d="M3.91436 43.3375C4.35438 42.999 5.33594 41.1376 5.33594 40.9682C5.33594 40.7988 4.5913 41.3407 4.45592 41.4082C4.32053 41.4758 4.11744 41.0699 4.04975 40.9682C3.98206 40.8665 4.62515 40.3591 4.69285 40.2574C4.76054 40.1557 5.03132 39.4791 4.99747 39.1743C4.96363 38.8695 4.89593 37.7529 4.62515 37.7527C4.35438 37.7526 4.11745 37.888 3.91436 37.922C3.71128 37.956 2.79741 37.5157 2.62818 37.482C2.45894 37.4483 1.51122 37.3127 1.17275 37.482C0.834278 37.6512 -0.384214 38.0912 -0.485755 38.2604C-0.587297 38.4297 -0.113438 38.9035 0.191186 38.9374C0.49581 38.9712 1.37583 38.6666 1.37583 38.6666C1.37583 38.6666 2.56048 38.3281 2.39125 38.6666C2.22201 39.0051 0.394268 42.1529 0.360421 42.3221C0.326574 42.4913 0.25888 42.8975 0.49581 42.9313C0.732739 42.9652 0.732739 42.8636 0.901975 42.9313C1.07121 42.999 0.732739 43.7437 0.732739 43.7437C0.732739 43.7437 0.766586 44.1837 1.00352 44.1837C1.24045 44.1837 1.55152 43.9736 1.68046 43.7437C1.8094 43.5137 1.84969 43.8114 1.84969 43.8114C1.84969 43.8114 1.98508 44.116 2.12047 44.1837C2.25586 44.2514 2.56048 44.116 2.69587 44.0144C2.83126 43.9129 3.40666 43.0329 3.40666 43.0329C3.40666 43.0329 3.47435 43.676 3.91436 43.3375Z" fill="#E0E0E0"/>
<path d="M43.0367 34.7069C42.6983 34.5716 41.1412 32.6761 41.0059 32.913C40.8705 33.15 41.412 36.2301 41.2089 36.8055C41.0059 37.3809 40.972 37.2117 40.8705 37.9901C40.7689 38.7685 41.5136 39.8178 41.5136 39.8178C41.5136 39.8178 42.7321 41.1039 43.2398 41.0701C43.7475 41.0363 42.3259 40.4271 42.529 38.904C42.7321 37.3809 42.9013 37.3808 43.0367 37.3809C43.1721 37.3809 43.6798 37.6854 43.849 37.6855C44.0183 37.6855 44.526 37.4825 44.8306 37.2793C45.1352 37.0762 46.2522 37.2116 46.5568 37.1778C46.8614 37.144 44.6275 35.0455 44.1536 35.0116C43.6798 34.9777 43.3751 34.8423 43.0367 34.7069Z" fill="#E0E0E0"/>
<path d="M43.8496 43.3375C43.4095 42.999 42.428 41.1376 42.428 40.9682C42.428 40.7988 43.1726 41.3407 43.308 41.4082C43.4434 41.4758 43.6465 41.0699 43.7142 40.9682C43.7819 40.8665 43.1388 40.3591 43.0711 40.2574C43.0034 40.1557 42.7326 39.4791 42.7664 39.1743C42.8003 38.8695 42.868 37.7529 43.1388 37.7527C43.4095 37.7526 43.6465 37.888 43.8496 37.922C44.0526 37.956 44.9665 37.5157 45.1357 37.482C45.305 37.4483 46.2527 37.3127 46.5912 37.482C46.9296 37.6512 48.1481 38.0912 48.2497 38.2604C48.3512 38.4297 47.8774 38.9035 47.5727 38.9374C47.2681 38.9712 46.3881 38.6666 46.3881 38.6666C46.3881 38.6666 45.2034 38.3281 45.3727 38.6666C45.5419 39.0051 47.3696 42.1529 47.4035 42.3221C47.4373 42.4913 47.505 42.8975 47.2681 42.9313C47.0312 42.9652 47.0312 42.8636 46.8619 42.9313C46.6927 42.999 47.0312 43.7437 47.0312 43.7437C47.0312 43.7437 46.9973 44.1837 46.7604 44.1837C46.5235 44.1837 46.2124 43.9736 46.0835 43.7437C45.9545 43.5137 45.9142 43.8114 45.9142 43.8114C45.9142 43.8114 45.7788 44.116 45.6434 44.1837C45.5081 44.2514 45.2034 44.116 45.068 44.0144C44.9327 43.9129 44.3573 43.0329 44.3573 43.0329C44.3573 43.0329 44.2896 43.676 43.8496 43.3375Z" fill="#E0E0E0"/>
<path d="M23.2487 30.5008C23.2487 30.5008 23.3383 35.6677 22.9102 35.9723C22.4822 36.277 21.8391 35.9046 21.8391 35.9046C21.1193 35.1932 20.8409 34.2958 20.1348 32.0916C19.712 29.9943 19.4153 28.7247 19.5375 27.2059C19.6752 27.0143 20.1475 26.9468 20.1475 26.9468C20.1475 26.9468 22.6176 26.6982 22.923 27.6798C23.2284 28.6613 23.1436 28.6251 23.2487 30.5008Z" fill="#E0E0E0"/>
<path d="M18.1127 26.6827C18.2847 30.7294 20.0734 34.1541 20.4481 34.4337C20.8228 34.7132 19.1281 34.4336 17.3342 32.3013C15.5403 30.1689 14.9987 28.1042 14.9987 28.1042C14.7773 27.6485 15.1746 23.5118 15.5403 23.8395C15.906 24.1672 15.9097 24.9594 16.8603 25.6673C17.8109 26.3751 17.1738 25.8768 17.6388 26.2427C17.7605 26.3384 18.0987 26.3532 18.1127 26.6827Z" fill="#E0E0E0"/>
<path d="M17.9813 23.2803C17.9572 25.1545 18.5888 25.0746 18.4213 25.3788C18.2538 25.683 17.6767 26.225 16.7628 24.9049C15.8489 23.5849 16.0629 23.6038 15.8489 23.2803C15.6349 22.9567 15.7117 21.2839 15.3394 20.2008C14.967 19.1177 15.1953 19.0428 15.0347 18.3731C14.8742 17.7033 15.1043 15.5802 16.052 15.4616C16.9997 15.343 18.0828 16.1047 18.2521 16.5785C18.4213 17.0524 18.3232 17.6967 18.2521 18.3731C18.1809 19.0494 18.2031 19.8617 18.1167 20.7417C18.0302 21.6217 18.0054 21.406 17.9813 23.2803Z" fill="#E0E0E0"/>
<path d="M18.7586 7.13482C18.2847 7.33791 17.5062 8.21798 16.9308 9.06415C16.3554 9.91033 15.4691 10.9544 15.0354 11.9073C14.3212 12.665 14.3019 12.7759 14.6631 13.1596C15.0242 13.5433 15.0016 13.4981 17.5401 14.8181C20.0786 16.1381 22.9556 16.1721 23.1249 14.9197C23.2941 13.6673 23.1249 12.8211 23.1249 10.9257C23.1249 9.03026 23.0572 8.69176 22.3464 7.77789C21.6355 6.86402 19.2324 6.93173 18.7586 7.13482Z" fill="#E0E0E0"/>
<path d="M19.2332 24.6331C19.3009 24.0239 20.1471 22.67 21.2979 22.8731C22.0197 23.0005 22.2089 23.0346 22.2496 23.0424C22.3056 23.0442 22.9317 23.0835 23.1257 23.9562C23.3287 24.8701 23.1257 25.5809 23.1257 25.5809C23.1257 25.5809 23.261 26.6301 21.941 26.6301C20.621 26.6301 20.6887 26.6301 19.8086 26.3593C18.9286 26.0886 19.1656 25.2424 19.2332 24.6331Z" fill="#E0E0E0"/>
<path d="M18.9627 21.3842C19.0642 20.9104 19.9906 20.0642 20.6889 19.7257C21.3872 19.3872 21.4674 19.1165 22.0089 19.1503C22.5505 19.1842 22.9691 19.218 23.1722 20.1319C23.3753 21.0458 23.1722 22.1966 23.1722 22.1966C23.1722 22.1966 23.3289 22.6027 22.0089 22.6027C20.6889 22.6027 20.5873 22.9073 19.775 22.7719C18.9627 22.6365 18.8611 21.858 18.9627 21.3842Z" fill="#E0E0E0"/>
<path d="M19.0982 18.4394C19.1998 17.9656 19.6522 17.1533 20.3506 16.8148C21.0489 16.4763 21.4337 16.2055 21.94 16.2084C22.4464 16.2112 22.5845 16.0024 23.0245 16.544C23.4645 17.0855 23.5322 17.8979 23.1033 18.273C22.6744 18.6482 22.923 18.6764 22.0768 18.8117C21.2306 18.9471 20.3844 19.861 19.5721 19.7256C18.7598 19.5902 18.9967 18.9133 19.0982 18.4394Z" fill="#E0E0E0"/>
<path d="M20.4175 3.4116C20.1129 3.75008 15.5774 6.11937 15.9497 6.2886C16.322 6.45784 20.4175 6.22091 21.3314 6.45784C22.2452 6.69477 22.5499 7.37171 22.5499 7.37171C23.1397 8.19359 23.4637 7.94711 23.6668 7.27017C23.8699 6.59323 22.076 1.58386 21.1621 1.1777C20.2483 0.771531 20.3498 0.805386 20.2483 1.34693C20.1467 1.88848 20.7221 3.07312 20.4175 3.4116Z" fill="#E0E0E0"/>
<path d="M25.1284 38.0412C25.0945 38.4134 25.4332 50.0907 25.6361 48.3984C25.8391 46.7061 32.5748 29.7825 31.1532 32.3549C29.7316 34.9273 25.1624 37.6689 25.1284 38.0412Z" fill="#E0E0E0"/>
<path d="M31.931 47.9246C31.931 47.9246 30.3741 58.6544 30.1372 58.7556C29.9002 58.8569 28.0386 55.4389 27.5986 53.5093C27.1586 51.5797 27.3279 46.3002 27.4294 45.2845C27.5309 44.2688 31.2529 33.4065 31.4572 32.5918C31.6614 31.7771 32.3989 30.2946 32.5403 30.6964C32.6817 31.0982 33.4907 38.567 33.2511 38.2104C33.1552 41.3463 32.9402 43.356 31.931 47.9246Z" fill="#E0E0E0"/>
<path d="M26.55 56.8262C26.55 56.8262 26.3354 58.9009 26.2792 60.1432C26.223 61.3855 25.3349 56.3224 25.2976 55.4384C25.2714 54.0188 25.2084 53.4144 25.6022 50.3275C25.6022 50.3275 26.6176 45.8597 26.753 46.469C26.8884 47.0782 26.753 49.4813 26.753 49.8198C26.753 50.1583 27.2607 54.2199 27.2607 54.5584C27.2607 54.8969 26.8942 55.4965 26.55 56.8262Z" fill="#E0E0E0"/>
<path d="M34.1522 15.9216C34.2876 16.3278 35.8107 20.9648 35.6076 21.1341C35.4045 21.3033 35.1676 20.7618 34.6599 19.7464C34.1522 18.7309 33.6445 16.2262 33.7122 16.0232C33.7799 15.8201 34.0168 15.5155 34.1522 15.9216Z" fill="#E0E0E0"/>
<path d="M35.8787 8.33997C34.6602 7.3584 33.1371 6.24145 32.494 6.41068C31.8509 6.57992 31.2078 7.29071 31.2078 7.29071C31.2078 7.29071 31.0386 7.4938 31.2078 8.03534C31.377 8.57689 31.614 9.66001 32.6294 10.9462C33.6448 12.2324 36.2849 13.1124 36.2849 13.1124C36.2849 13.1124 37.3341 13.6878 37.5711 13.9586C37.808 14.2294 37.4018 11.7585 37.4018 11.7585C37.4018 11.7585 37.0972 9.32154 35.8787 8.33997Z" fill="#E0E0E0"/>
<path d="M38.112 16.4972C38.4166 18.4604 38.5859 25.0944 38.349 24.7898C38.112 24.4851 36.8597 22.2851 36.4197 21.7774C35.9797 21.2697 35.5397 19.3742 35.2689 18.6635C34.9981 17.9527 34.3642 15.7186 34.2196 13.5864C34.2196 13.5864 34.2196 12.6725 35.0997 13.011C35.9797 13.3495 36.5551 13.891 36.5551 13.891C36.5551 13.891 37.8074 14.5341 38.112 16.4972Z" fill="#E0E0E0"/>
<path d="M38.2814 25.1288C37.0968 23.2334 35.8783 21.338 35.6414 21.7103C35.4044 22.0826 35.4044 22.8272 35.4044 22.8272C35.6619 23.7999 35.9194 24.3856 36.4875 25.4673C36.9109 27.2641 37.3235 28.2019 38.0784 29.8674C38.0402 29.6997 40.5522 35.9259 40.6846 36.1291C40.817 36.3323 40.7523 34.7753 40.6846 34.1998C40.6169 33.6244 39.4661 27.0242 38.2814 25.1288Z" fill="#E74C3C"/>
<path d="M40.9209 31.9995C41.4286 32.7441 43.2902 34.1995 43.4933 34.0641C43.6964 33.9287 42.5117 31.2887 42.5117 31.2887C42.1178 30.1935 41.9251 29.4139 41.6994 27.3286C41.6994 27.3286 41.2933 24.9254 41.2594 24.6546C41.2255 24.3839 40.0071 21.8115 39.6009 21.4392C39.1947 21.0669 39.1947 20.8638 38.924 21.5069C38.6532 22.15 38.6532 23.4362 38.6532 23.4362C38.6532 23.4362 38.7209 25.23 39.2624 26.6516C39.804 28.0732 40.4132 30.341 40.4132 30.341C40.4132 30.341 40.4132 31.2548 40.9209 31.9995Z" fill="#E74C3C"/>
<path d="M24.5074 30.4705C24.5074 30.4705 24.4178 35.6374 24.8459 35.9421C25.2739 36.2467 25.917 35.8744 25.917 35.8744C26.6368 35.163 26.9152 34.2655 27.6213 32.0613C28.0441 29.964 28.3408 28.6944 28.2186 27.1757C28.0809 26.9841 27.6086 26.9165 27.6086 26.9165C27.6086 26.9165 25.1385 26.668 24.8331 27.6495C24.5277 28.631 24.6125 28.5948 24.5074 30.4705Z" fill="#E0E0E0"/>
<path d="M29.6438 26.6531C29.4718 30.6998 27.6831 34.1246 27.3083 34.4041C26.9336 34.6837 28.6284 34.4041 30.4223 32.2717C32.2162 30.1394 32.7577 28.0747 32.7577 28.0747C32.9791 27.619 32.5819 23.4823 32.2162 23.81C31.8504 24.1377 31.8467 24.9299 30.8961 25.6377C29.9455 26.3456 30.5826 25.8473 30.1177 26.2131C29.996 26.3088 29.6578 26.3237 29.6438 26.6531Z" fill="#E0E0E0"/>
<path d="M29.7748 23.2497C29.7989 25.124 29.1673 25.0441 29.3348 25.3483C29.5023 25.6524 30.0794 26.1944 30.9933 24.8744C31.9072 23.5544 31.6932 23.5733 31.9072 23.2497C32.1212 22.9262 32.0444 21.2534 32.4167 20.1703C32.7891 19.0872 32.5608 19.0123 32.7214 18.3425C32.8819 17.6728 32.6518 15.5496 31.7041 15.4311C30.7564 15.3125 29.6733 16.0741 29.504 16.548C29.3348 17.0219 29.4329 17.6662 29.504 18.3425C29.5752 19.0189 29.553 19.8312 29.6394 20.7112C29.7259 21.5912 29.7507 21.3755 29.7748 23.2497Z" fill="#E0E0E0"/>
<path d="M28.9975 7.10528C29.4714 7.30837 30.2499 8.18844 30.8253 9.03461C31.4007 9.88079 32.287 10.9249 32.7207 11.8777C33.4349 12.6354 33.4542 12.7464 33.093 13.1301C32.7319 13.5138 32.7545 13.4685 30.216 14.7886C27.6775 16.1086 24.8005 16.1425 24.6312 14.8901C24.462 13.6378 24.6312 12.7916 24.6312 10.8962C24.6312 9.00072 24.6989 8.66222 25.4097 7.74835C26.1206 6.83448 28.5237 6.90218 28.9975 7.10528Z" fill="#E0E0E0"/>
<path d="M28.523 24.6036C28.4553 23.9943 27.6091 22.6405 26.4583 22.8436C25.7365 22.9709 25.5473 23.0051 25.5066 23.0129C25.4506 23.0146 24.8245 23.0539 24.6306 23.9267C24.4275 24.8405 24.6306 25.5513 24.6306 25.5513C24.6306 25.5513 24.4952 26.6006 25.8152 26.6006C27.1353 26.6006 27.0676 26.6006 27.9476 26.3298C28.8276 26.059 28.5907 25.2129 28.523 24.6036Z" fill="#E0E0E0"/>
<path d="M28.7934 21.3542C28.6919 20.8803 27.7656 20.0342 27.0672 19.6957C26.3689 19.3572 26.2887 19.0864 25.7472 19.1203C25.2056 19.1541 24.787 19.188 24.5839 20.1019C24.3808 21.0157 24.5839 22.1665 24.5839 22.1665C24.5839 22.1665 24.4272 22.5727 25.7472 22.5727C27.0672 22.5727 27.1688 22.8773 27.9811 22.7419C28.7934 22.6065 28.895 21.828 28.7934 21.3542Z" fill="#E0E0E0"/>
<path d="M28.6579 18.4091C28.5563 17.9353 28.1039 17.123 27.4055 16.7845C26.7072 16.446 26.3224 16.1752 25.8161 16.1781C25.3097 16.181 25.1716 15.9722 24.7316 16.5137C24.2916 17.0553 24.2239 17.8676 24.6528 18.2428C25.0817 18.6179 24.8332 18.6461 25.6793 18.7815C26.5255 18.9169 27.3717 19.8307 28.184 19.6953C28.9963 19.5599 28.7594 18.883 28.6579 18.4091Z" fill="#E0E0E0"/>
<path d="M27.3386 3.38133C27.6432 3.71981 32.1787 6.0891 31.8064 6.25833C31.4341 6.42757 27.3386 6.19064 26.4247 6.42757C25.5109 6.6645 25.2062 7.34144 25.2062 7.34144C24.6164 8.16332 24.2924 7.91684 24.0893 7.2399C23.8862 6.56295 25.6801 1.55359 26.594 1.14742C27.5078 0.741258 27.4063 0.775113 27.5078 1.31666C27.6094 1.8582 27.034 3.04285 27.3386 3.38133Z" fill="#E0E0E0"/>
<path d="M23.7139 1.48186C21.8861 1.41417 20.4984 0.534143 20.2615 0.127978C20.0246 -0.278187 20.1932 -3.09485 19.923 -3.5275C19.6528 -3.96015 19.1505 -6.72642 20.2615 -8.50302C21.3017 -9.812 21.8184 -10.5 23.8493 -10.5C25.8801 -10.5 26.132 -9.8105 27.1663 -8.50302C28.2006 -7.19555 27.9448 -3.96742 27.6063 -3.5275C27.2678 -3.08758 27.4709 -0.278187 27.1663 0.127978C26.8617 0.534143 25.5416 1.54956 23.7139 1.48186Z" fill="#E0E0E0"/>
</g>
<defs>
<clipPath id="clip0_736_3318">
<rect width="48" height="48" rx="24" fill="white"/>
</clipPath>
</defs>
</svg>
