<svg width="48" height="48" viewBox="0 0 48 48" fill="none" xmlns="http://www.w3.org/2000/svg">
<g clip-path="url(#clip0_736_3151)">
<path d="M20.274 48.832V51.7938C20.274 51.4802 20.8315 49.7728 21.5981 49.5289C22.3646 49.2851 23.0267 49.6334 23.1312 49.7728C23.2358 49.9122 22.3298 47.717 22.3646 47.2292C22.3995 46.7413 22.957 42.2812 23.0267 42.1418C23.0964 42.0024 22.8524 42.4902 22.5737 42.5948C22.295 42.6994 22.3646 42.7342 21.5981 42.4554C20.8315 42.1766 20.4482 41.0268 20.4482 41.0268C20.4482 41.0268 19.2983 41.1662 18.8105 40.9571C18.3226 40.748 18.4272 40.8526 17.5909 39.8421C16.7546 38.8315 20.274 47.7867 20.274 48.832Z" fill="#E0E0E0"/>
<path d="M17.6256 38.971C17.3866 35.0499 18.8929 29.9121 19.4724 29.9462C20.0518 29.9803 20.2041 31.3051 20.5177 31.3052C20.8313 31.3052 21.9115 30.0507 22.016 30.5037C22.1206 30.9567 22.0509 35.382 22.2948 35.5911C22.5387 35.8002 23.3401 39.7376 23.2704 40.5739C23.2007 41.4102 22.8523 42.2464 22.4342 42.3509C22.016 42.4554 21.7024 42.1767 21.4585 42.0025C21.2146 41.8282 20.5874 40.1557 20.3783 40.1557C20.1693 40.1557 19.8924 40.6945 18.9845 40.5739C18.0766 40.4532 17.5454 38.9541 17.6256 38.971Z" fill="#E0E0E0"/>
<path d="M17.9738 30.2248C17.9738 30.6081 18.3223 31.305 18.3919 31.4444C18.4616 31.5837 18.8798 29.8764 18.8798 29.8764C18.8798 29.8764 20.0296 26.5312 20.0296 26.1131C20.0297 25.695 20.3781 13.0812 19.5767 13.1857C18.7752 13.2902 18.1829 13.8129 17.9738 13.9523C17.7647 14.0917 17.2769 19.1442 17.3466 19.8411C17.4163 20.5379 17.6951 24.6148 17.7647 24.9981C17.8344 25.3814 17.9738 29.8415 17.9738 30.2248Z" fill="#E74C3C"/>
<path d="M21.1448 12.2449C21.6674 12.001 22.8522 10.9208 23.1658 10.8512C23.4794 10.7815 23.3051 11.5481 23.3051 11.5481L22.5734 17.2974L22.4689 23.5347L22.6779 27.9251L22.4689 30.3991C22.4689 30.3991 22.3295 31.1308 22.2598 31.1308C22.1901 31.1308 22.2598 30.5385 22.2598 30.5385C22.2598 30.5385 22.0507 29.8416 21.772 29.8764C21.4932 29.9112 20.6569 30.9566 20.4827 30.7824C20.3085 30.6081 19.7161 29.3537 19.5767 29.284C19.4374 29.2144 20.2388 27.7509 20.413 27.4024C20.5872 27.054 20.6569 23.5347 20.5524 23.1862C20.4479 22.8378 20.5524 13.8827 20.5524 13.8827C20.5524 13.8827 20.6221 12.4889 21.1448 12.2449Z" fill="#E74C3C"/>
<path d="M15.6041 15.7649C15.7087 17.0193 17.3812 24.9988 17.3464 23.9534C17.3115 22.9081 16.8934 17.7859 17.207 16.2527C17.5206 14.7196 17.7645 12.6637 17.7645 10.364C17.7645 8.06421 16.1965 7.47185 16.1965 7.47185C16.1965 7.47185 15.2905 6.94918 15.2905 8.30813C15.2905 9.66707 15.4996 14.5105 15.6041 15.7649Z" fill="#E0E0E0"/>
<path d="M17.9036 12.5239C17.9036 12.5239 17.7643 13.5693 18.4263 13.2557C19.0884 12.942 23.2349 11.1301 23.4788 9.24851C23.5096 9.01121 23.5727 8.76066 23.5432 8.65613C23.5137 8.55159 23.3394 8.13347 23.3394 8.13347C22.2096 6.67666 21.6362 5.31038 20.6215 2.80222C20.5497 2.42756 20.4744 2.24939 19.855 2.38408C18.0385 2.98459 17.2395 3.80168 16.3008 6.32154C16.3008 6.32154 16.0569 6.87908 16.3008 7.08813C16.5447 7.29718 16.8931 7.47142 16.8931 7.47142C16.8931 7.47142 17.834 8.44709 17.9036 9.56211C17.9733 10.6771 17.9036 12.5239 17.9036 12.5239Z" fill="#E0E0E0"/>
<path d="M23.4788 -7.09402C23.4788 -6.78044 23.841 6.47728 23.653 7.19234C23.465 7.9074 21.9524 4.77894 21.3175 2.76705C20.6814 0.924434 20.1791 -0.17051 20.0988 -0.0553761C18.9829 -1.21897 18.8444 -0.717416 18.7747 -1.03103C18.705 -1.34464 18.8444 -3.01717 19.4368 -4.09736C20.0291 -5.17755 20.5867 -6.01382 20.97 -6.39712C21.3532 -6.78042 21.4229 -6.8501 22.1895 -7.58185C22.9561 -8.31359 22.7122 -8.24387 22.9213 -8.06964C23.1303 -7.89542 23.4788 -7.4076 23.4788 -7.09402Z" fill="#E0E0E0"/>
<path d="M15.9526 -0.438595C15.9177 0.18861 15.3254 5.06688 15.5345 5.13657C15.7435 5.20625 16.8237 3.25495 18.1827 2.62774C19.5416 2.00054 19.681 2.20961 20.1688 1.96569C20.6566 1.72178 19.1932 -0.264371 18.9144 -0.438595C18.6356 -0.612819 18.1827 -1.13549 18.1827 -1.13549C18.1827 -1.13549 19.4022 -5.49109 19.681 -5.63046C19.9597 -5.76984 17.9736 -5.17748 17.207 -5.49109C16.4404 -5.80469 15.5345 -7.82568 15.3254 -7.82568C15.1163 -7.82568 16.1617 -3.85338 16.301 -3.22618C16.4404 -2.59897 16.301 -2.11114 16.301 -2.11114C16.165 -1.45797 15.9875 -1.0658 15.9526 -0.438595Z" fill="#E0E0E0"/>
<path d="M5.13101 7.78458C5.63933 7.71486 6.99827 8.20271 7.13765 8.44663C7.27703 8.69054 7.13765 9.00414 7.27704 9.73588C7.41643 10.4676 7.25654 10.1752 7.36107 10.9765C7.46561 11.7779 6.69902 12.8582 6.69902 12.8582C6.69902 12.8582 5.44461 14.1821 4.92194 14.1474C4.39927 14.1126 5.86275 13.4854 5.65368 11.9173C5.44461 10.3493 5.27039 10.3493 5.13101 10.3493C4.99163 10.3494 4.46896 10.6629 4.29473 10.6629C4.12051 10.663 3.59784 10.4539 3.28423 10.2448C2.97063 10.0357 1.82075 10.175 1.50715 10.1403C1.19355 10.1055 3.54862 7.95888 4.03647 7.92398C4.52433 7.88907 4.62268 7.8543 5.13101 7.78458Z" fill="#E0E0E0"/>
<path d="M4.29423 16.4818C4.74721 16.1334 5.75771 14.217 5.75771 14.0427C5.75772 13.8683 4.99113 14.4261 4.85175 14.4956C4.71237 14.5652 4.5033 14.1474 4.43361 14.0427C4.36392 13.938 5.02597 13.4156 5.09566 13.3109C5.16535 13.2062 5.44411 12.5096 5.40927 12.1959C5.37442 11.8821 5.30473 10.7326 5.02597 10.7324C4.74722 10.7323 4.5033 10.8716 4.29423 10.9066C4.08516 10.9416 3.14436 10.4883 2.97013 10.4537C2.79591 10.419 1.82026 10.2794 1.47181 10.4537C1.12336 10.6279 -0.131053 11.0809 -0.235587 11.2551C-0.340121 11.4293 0.147705 11.9171 0.461308 11.952C0.774911 11.9868 1.68088 11.6732 1.68088 11.6732C1.68088 11.6732 2.90044 11.3248 2.72622 11.6732C2.55199 12.0217 0.670377 15.2622 0.635532 15.4365C0.600687 15.6107 0.530998 16.0288 0.774911 16.0637C1.01882 16.0985 1.01882 15.994 1.19305 16.0637C1.36727 16.1334 1.01882 16.8999 1.01882 16.8999C1.01882 16.8999 1.05367 17.3529 1.29758 17.3529C1.5415 17.3529 1.86174 17.1366 1.99448 16.8999C2.12722 16.6632 2.1687 16.9696 2.1687 16.9696C2.1687 16.9696 2.30808 17.2832 2.44746 17.3529C2.58684 17.4226 2.90044 17.2832 3.03982 17.1787C3.1792 17.0742 3.77156 16.1682 3.77156 16.1682C3.77156 16.1682 3.84125 16.8302 4.29423 16.4818Z" fill="#E0E0E0"/>
<path d="M6.19676 1.33916C5.95287 2.48904 4.35 7.26277 4.38484 7.47184C4.41967 7.68091 5.39532 7.3673 6.19676 7.68091C6.99821 7.99451 7.24211 8.23842 7.48602 8.16873C7.72993 8.09904 11.1099 0.154418 11.2493 -0.298542C11.3886 -0.751503 12.3643 -3.29521 12.5037 -3.67848C12.6431 -4.06175 12.7127 -4.54962 12.5037 -4.79352C12.2946 -5.03741 11.826 -3.74497 11.3538 -3.81786C10.8816 -3.89075 10.8108 -4.35365 10.5175 -4.44507C10.2242 -4.53649 9.71607 -4.23602 9.57671 -4.44507C9.43734 -4.65411 9.61157 -6.43122 9.36764 -6.36153C9.12371 -6.29184 7.48604 -3.78302 7.24211 -3.19066C6.99818 -2.5983 6.96336 -1.03028 6.82397 -0.472766C6.68458 0.0847497 6.44066 0.189284 6.19676 1.33916Z" fill="#E0E0E0"/>
<path d="M27.9238 48.832V51.7938C27.9238 51.4802 27.3663 49.7728 26.5997 49.5289C25.8331 49.2851 25.1711 49.6334 25.0665 49.7728C24.962 49.9122 25.8679 47.717 25.8331 47.2292C25.7983 46.7413 25.2408 42.2812 25.1711 42.1418C25.1014 42.0024 25.3453 42.4902 25.624 42.5948C25.9028 42.6994 25.8331 42.7342 26.5997 42.4554C27.3663 42.1766 27.7496 41.0268 27.7496 41.0268C27.7496 41.0268 28.8994 41.1662 29.3873 40.9571C29.8751 40.748 29.7706 40.8526 30.6068 39.8421C31.4431 38.8315 27.9238 47.7867 27.9238 48.832Z" fill="#E0E0E0"/>
<path d="M30.5717 38.971C30.8107 35.0499 29.3044 29.9121 28.7249 29.9462C28.1454 29.9803 27.9932 31.3051 27.6796 31.3052C27.366 31.3052 26.2858 30.0507 26.1812 30.5037C26.0767 30.9567 26.1464 35.382 25.9025 35.5911C25.6586 35.8002 24.8571 39.7376 24.9268 40.5739C24.9965 41.4102 25.345 42.2464 25.7631 42.3509C26.1812 42.4554 26.4948 42.1767 26.7388 42.0025C26.9827 41.8282 27.6099 40.1557 27.8189 40.1557C28.028 40.1557 28.3049 40.6945 29.2127 40.5739C30.1206 40.4532 30.6519 38.9541 30.5717 38.971Z" fill="#E0E0E0"/>
<path d="M30.224 30.2248C30.224 30.6081 29.8755 31.305 29.8058 31.4444C29.7361 31.5837 29.318 29.8764 29.318 29.8764C29.318 29.8764 28.1681 26.5312 28.1681 26.1131C28.1681 25.695 27.8197 13.0812 28.6211 13.1857C29.4225 13.2902 30.0149 13.8129 30.224 13.9523C30.433 14.0917 30.9208 19.1442 30.8512 19.8411C30.7815 20.5379 30.5027 24.6148 30.433 24.9981C30.3633 25.3814 30.224 29.8415 30.224 30.2248Z" fill="#E74C3C"/>
<path d="M27.053 12.2449C26.5303 12.001 25.3456 10.9208 25.032 10.8512C24.7184 10.7815 24.8926 11.5481 24.8926 11.5481L25.6244 17.2974L25.7289 23.5347L25.5198 27.9251L25.7289 30.3991C25.7289 30.3991 25.8683 31.1308 25.938 31.1308C26.0077 31.1308 25.938 30.5385 25.938 30.5385C25.938 30.5385 26.147 29.8416 26.4258 29.8764C26.7046 29.9112 27.5408 30.9566 27.7151 30.7824C27.8893 30.6081 28.4816 29.3537 28.621 29.284C28.7604 29.2144 27.959 27.7509 27.7847 27.4024C27.6105 27.054 27.5408 23.5347 27.6454 23.1862C27.7499 22.8378 27.6454 13.8827 27.6454 13.8827C27.6454 13.8827 27.5757 12.4889 27.053 12.2449Z" fill="#E74C3C"/>
<path d="M32.5931 15.7649C32.4886 17.0193 30.816 24.9988 30.8509 23.9534C30.8857 22.9081 31.3039 17.7859 30.9903 16.2527C30.6767 14.7196 30.4328 12.6637 30.4328 10.364C30.4328 8.06421 32.0008 7.47185 32.0008 7.47185C32.0008 7.47185 32.9067 6.94918 32.9067 8.30813C32.9067 9.66707 32.6977 14.5105 32.5931 15.7649Z" fill="#E0E0E0"/>
<path d="M30.2936 12.5239C30.2936 12.5239 30.433 13.5693 29.7709 13.2557C29.1089 12.942 24.9624 11.1301 24.7184 9.24851C24.6877 9.01121 24.6245 8.76066 24.6541 8.65613C24.6836 8.55159 24.8578 8.13347 24.8578 8.13347C25.9876 6.67666 26.5611 5.31038 27.5757 2.80222C27.6476 2.42756 27.7229 2.24939 28.3423 2.38408C30.1588 2.98459 30.9578 3.80168 31.8965 6.32154C31.8965 6.32154 32.1404 6.87908 31.8965 7.08813C31.6526 7.29718 31.3041 7.47142 31.3041 7.47142C31.3041 7.47142 30.3633 8.44709 30.2936 9.56211C30.2239 10.6771 30.2936 12.5239 30.2936 12.5239Z" fill="#E0E0E0"/>
<path d="M24.719 -7.09402C24.719 -6.78044 24.3568 6.47728 24.5448 7.19234C24.7327 7.9074 26.2454 4.77894 26.8803 2.76705C27.5163 0.924434 28.0186 -0.17051 28.0989 -0.0553761C29.2149 -1.21897 29.3533 -0.717416 29.423 -1.03103C29.4927 -1.34464 29.3533 -3.01717 28.761 -4.09736C28.1686 -5.17755 27.6111 -6.01382 27.2278 -6.39712C26.8445 -6.78042 26.7748 -6.8501 26.0082 -7.58185C25.2417 -8.31359 25.4856 -8.24387 25.2765 -8.06964C25.0674 -7.89542 24.719 -7.4076 24.719 -7.09402Z" fill="#E0E0E0"/>
<path d="M32.2452 -0.438595C32.28 0.18861 32.8724 5.06688 32.6633 5.13657C32.4542 5.20625 31.374 3.25495 30.0151 2.62774C28.6561 2.00054 28.5168 2.20961 28.0289 1.96569C27.5411 1.72178 29.0046 -0.264371 29.2833 -0.438595C29.5621 -0.612819 30.0151 -1.13549 30.0151 -1.13549C30.0151 -1.13549 28.7955 -5.49109 28.5168 -5.63046C28.238 -5.76984 30.2242 -5.17748 30.9907 -5.49109C31.7573 -5.80469 32.6633 -7.82568 32.8724 -7.82568C33.0814 -7.82568 32.0361 -3.85338 31.8967 -3.22618C31.7573 -2.59897 31.8967 -2.11114 31.8967 -2.11114C32.0328 -1.45797 32.2103 -1.0658 32.2452 -0.438595Z" fill="#E0E0E0"/>
<path d="M43.0667 7.78458C42.5584 7.71486 41.1995 8.20271 41.0601 8.44663C40.9207 8.69054 41.0601 9.00414 40.9207 9.73588C40.7813 10.4676 40.9412 10.1752 40.8367 10.9765C40.7321 11.7779 41.4987 12.8582 41.4987 12.8582C41.4987 12.8582 42.7531 14.1821 43.2758 14.1474C43.7985 14.1126 42.335 13.4854 42.5441 11.9173C42.7531 10.3493 42.9274 10.3493 43.0667 10.3493C43.2061 10.3494 43.7288 10.6629 43.903 10.6629C44.0772 10.663 44.5999 10.4539 44.9135 10.2448C45.2271 10.0357 46.377 10.175 46.6906 10.1403C47.0042 10.1055 44.6491 7.95888 44.1613 7.92398C43.6734 7.88907 43.5751 7.8543 43.0667 7.78458Z" fill="#E0E0E0"/>
<path d="M43.903 16.4818C43.4501 16.1334 42.4396 14.217 42.4396 14.0427C42.4396 13.8683 43.2061 14.4261 43.3455 14.4956C43.4849 14.5652 43.694 14.1474 43.7637 14.0427C43.8333 13.938 43.1713 13.4156 43.1016 13.3109C43.0319 13.2062 42.7532 12.5096 42.788 12.1959C42.8228 11.8821 42.8925 10.7326 43.1713 10.7324C43.4501 10.7323 43.694 10.8716 43.903 10.9066C44.1121 10.9416 45.0529 10.4883 45.2271 10.4537C45.4014 10.419 46.377 10.2794 46.7255 10.4537C47.0739 10.6279 48.3283 11.0809 48.4329 11.2551C48.5374 11.4293 48.0496 11.9171 47.736 11.952C47.4224 11.9868 46.5164 11.6732 46.5164 11.6732C46.5164 11.6732 45.2968 11.3248 45.4711 11.6732C45.6453 12.0217 47.5269 15.2622 47.5617 15.4365C47.5966 15.6107 47.6663 16.0288 47.4224 16.0637C47.1784 16.0985 47.1784 15.994 47.0042 16.0637C46.83 16.1334 47.1784 16.8999 47.1784 16.8999C47.1784 16.8999 47.1436 17.3529 46.8997 17.3529C46.6558 17.3529 46.3355 17.1366 46.2028 16.8999C46.07 16.6632 46.0286 16.9696 46.0286 16.9696C46.0286 16.9696 45.8892 17.2832 45.7498 17.3529C45.6104 17.4226 45.2968 17.2832 45.1574 17.1787C45.0181 17.0742 44.4257 16.1682 44.4257 16.1682C44.4257 16.1682 44.356 16.8302 43.903 16.4818Z" fill="#E0E0E0"/>
<path d="M42.0005 1.33916C42.2444 2.48904 43.8473 7.26277 43.8124 7.47184C43.7776 7.68091 42.8019 7.3673 42.0005 7.68091C41.1991 7.99451 40.9552 8.23842 40.7112 8.16873C40.4673 8.09904 37.0874 0.154418 36.948 -0.298542C36.8086 -0.751503 35.833 -3.29521 35.6936 -3.67848C35.5542 -4.06175 35.4846 -4.54962 35.6936 -4.79352C35.9027 -5.03741 36.3713 -3.74497 36.8435 -3.81786C37.3157 -3.89075 37.3865 -4.35365 37.6798 -4.44507C37.973 -4.53649 38.4812 -4.23602 38.6206 -4.44507C38.7599 -4.65411 38.5857 -6.43122 38.8296 -6.36153C39.0736 -6.29184 40.7112 -3.78302 40.9552 -3.19066C41.1991 -2.5983 41.2339 -1.03028 41.3733 -0.472766C41.5127 0.0847497 41.7566 0.189284 42.0005 1.33916Z" fill="#E0E0E0"/>
</g>
<defs>
<clipPath id="clip0_736_3151">
<rect width="48" height="48" rx="24" fill="white"/>
</clipPath>
</defs>
</svg>
