<svg width="48" height="48" viewBox="0 0 48 48" fill="none" xmlns="http://www.w3.org/2000/svg">
<g clip-path="url(#clip0_736_3064)">
<path d="M20.2737 56.332V59.2938C20.2737 58.9802 20.8312 57.2728 21.5978 57.0289C22.3644 56.7851 23.0264 57.1334 23.131 57.2728C23.2355 57.4122 22.3296 55.217 22.3644 54.7292C22.3992 54.2413 22.9568 49.7812 23.0264 49.6418C23.0961 49.5024 22.8522 49.9902 22.5735 50.0948C22.2947 50.1994 22.3644 50.2342 21.5978 49.9554C20.8312 49.6766 20.4479 48.5268 20.4479 48.5268C20.4479 48.5268 19.2981 48.6662 18.8102 48.4571C18.3224 48.248 18.427 48.3526 17.5907 47.3421C16.7544 46.3315 20.2737 55.2867 20.2737 56.332Z" fill="#E0E0E0"/>
<path d="M17.6256 46.4712C17.3866 42.5502 18.8929 37.4124 19.4724 37.4465C20.0518 37.4805 20.2041 38.8054 20.5177 38.8054C20.8313 38.8054 21.9115 37.551 22.016 38.004C22.1206 38.457 22.0509 42.8822 22.2948 43.0913C22.5387 43.3004 23.3401 47.2378 23.2704 48.0741C23.2007 48.9104 22.8523 49.7467 22.4342 49.8512C22.016 49.9557 21.7024 49.677 21.4585 49.5027C21.2146 49.3285 20.5874 47.656 20.3783 47.656C20.1693 47.6559 19.8924 48.1947 18.9845 48.0741C18.0766 47.9535 17.5454 46.4543 17.6256 46.4712Z" fill="#E0E0E0"/>
<path d="M17.9743 37.7248C17.9743 38.1081 18.3227 38.805 18.3924 38.9444C18.4621 39.0837 18.8803 37.3764 18.8803 37.3764C18.8803 37.3764 20.0301 34.0312 20.0301 33.6131C20.0301 33.195 20.3786 20.5812 19.5772 20.6857C18.7757 20.7902 18.1834 21.3129 17.9743 21.4523C17.7652 21.5917 17.2774 26.6442 17.3471 27.3411C17.4168 28.0379 17.6955 32.1148 17.7652 32.4981C17.8349 32.8814 17.9743 37.3415 17.9743 37.7248Z" fill="#E0E0E0"/>
<path d="M21.145 19.7449C21.6677 19.501 22.8524 18.4208 23.166 18.3512C23.4796 18.2815 23.3054 19.0481 23.3054 19.0481L22.5736 24.7974L22.4691 31.0347L22.6782 35.4251L22.4691 37.8991C22.4691 37.8991 22.3297 38.6308 22.26 38.6308C22.1903 38.6308 22.26 38.0385 22.26 38.0385C22.26 38.0385 22.051 37.3416 21.7722 37.3764C21.4934 37.4112 20.6572 38.4566 20.4829 38.2824C20.3087 38.1081 19.7164 36.8537 19.577 36.784C19.4376 36.7144 20.239 35.2509 20.4133 34.9024C20.5875 34.554 20.6572 31.0347 20.5526 30.6862C20.4481 30.3378 20.5526 21.3827 20.5526 21.3827C20.5526 21.3827 20.6223 19.9889 21.145 19.7449Z" fill="#E0E0E0"/>
<path d="M15.6049 23.2649C15.7094 24.5193 17.3819 32.4988 17.3471 31.4534C17.3123 30.4081 16.8941 25.2859 17.2077 23.7527C17.5213 22.2196 17.7652 20.1637 17.7652 17.864C17.7652 15.5642 16.1972 14.9719 16.1972 14.9719C16.1972 14.9719 15.2913 14.4492 15.2913 15.8081C15.2913 17.1671 15.5003 22.0105 15.6049 23.2649Z" fill="#E74C3C"/>
<path d="M17.9054 20.0237C17.9054 20.0237 17.766 21.069 18.428 20.7554C19.0901 20.4418 23.2366 18.6299 23.4805 16.7483C23.5113 16.511 23.5744 16.2604 23.5449 16.1559C23.5154 16.0514 23.3411 15.6332 23.3411 15.6332C22.2113 14.1764 21.6379 12.8101 20.6232 10.302C20.5514 9.92731 20.4761 9.74915 19.8567 9.88384C18.0402 10.4843 17.2412 11.3014 16.3025 13.8213C16.3025 13.8213 16.0586 14.3788 16.3025 14.5879C16.5464 14.7969 16.8949 14.9712 16.8949 14.9712C16.8949 14.9712 17.8357 15.9468 17.9054 17.0619C17.975 18.1769 17.9054 20.0237 17.9054 20.0237Z" fill="#E74C3C"/>
<path d="M23.479 0.405981C23.479 0.719557 23.8412 13.9773 23.6532 14.6923C23.4653 15.4074 21.9526 12.2789 21.3177 10.2671C20.6817 8.42443 20.1794 7.32949 20.0991 7.44462C18.9831 6.28103 18.8447 6.78258 18.775 6.46897C18.7053 6.15536 18.8447 4.48283 19.437 3.40264C20.0294 2.32245 20.5869 1.48618 20.9702 1.10288C21.3535 0.719583 21.4232 0.649902 22.1898 -0.081846C22.9563 -0.813594 22.7124 -0.743866 22.9215 -0.569642C23.1306 -0.395418 23.479 0.0924048 23.479 0.405981Z" fill="#E0E0E0"/>
<path d="M15.9528 7.06165C15.918 7.68885 15.3256 12.5671 15.5347 12.6368C15.7438 12.7065 16.824 10.7552 18.1829 10.128C19.5418 9.50078 19.6812 9.70985 20.1691 9.46594C20.6569 9.22202 19.1934 7.23587 18.9146 7.06165C18.6359 6.88742 18.1829 6.36475 18.1829 6.36475C18.1829 6.36475 19.4025 2.00916 19.6812 1.86978C19.96 1.7304 17.9738 2.32276 17.2073 2.00916C16.4407 1.69556 15.5347 -0.325439 15.3256 -0.325439C15.1166 -0.325439 16.1619 3.64686 16.3013 4.27407C16.4407 4.90127 16.3013 5.3891 16.3013 5.3891C16.1652 6.04227 15.9877 6.43444 15.9528 7.06165Z" fill="#E0E0E0"/>
<path d="M17.6605 -4.54128C17.6605 -4.54128 15.3608 -5.16849 15.082 -5.30787C14.8033 -5.44725 14.873 -3.73989 14.9078 -3.00811C14.9426 -2.27634 15.3956 -0.603823 15.8486 -0.0114613C16.3016 0.5809 16.9288 1.8005 18.3574 1.76562C19.7861 1.73075 20.7966 0.755156 20.9359 0.5809C21.0753 0.406645 22.3646 -0.743171 22.4691 -1.33556C22.5737 -1.92796 21.4934 -3.07777 21.4238 -3.21718C21.3541 -3.35659 20.4481 -4.85486 20.2042 -4.7852C19.9603 -4.71554 18.9174 -4.47352 17.6605 -4.54128Z" fill="#E0E0E0"/>
<path d="M10.9011 -5.90011C11.3192 -6.00461 12.5736 -5.90011 13.3751 -6.17887C14.1765 -6.45763 13.8977 -6.49247 14.2113 -6.38794C14.5249 -6.2834 14.5249 -3.60035 14.5249 -3.60035C14.5249 -3.60035 14.4553 -2.13684 14.2113 -1.57935C13.9674 -1.02187 13.166 -0.220376 12.8872 0.197731C12.6085 0.615839 11.8767 3.08988 11.4586 3.05501C11.0405 3.02013 10.5526 3.05501 10.1693 2.77625C9.78605 2.49749 9.82089 1.45211 9.82089 0.790092C9.82089 0.128072 10.1693 -1.02187 10.1693 -1.47482C10.1693 -1.92777 9.96027 -2.1369 9.92543 -2.69439C9.89058 -3.25187 10.4829 -5.7956 10.9011 -5.90011Z" fill="#E0E0E0"/>
<path d="M5.13101 15.2848C5.63933 15.2151 6.99827 15.703 7.13765 15.9469C7.27703 16.1908 7.13765 16.5044 7.27704 17.2361C7.41643 17.9679 7.25654 17.6754 7.36107 18.4768C7.46561 19.2782 6.69902 20.3584 6.69902 20.3584C6.69902 20.3584 5.44461 21.6824 4.92194 21.6476C4.39927 21.6128 5.86275 20.9856 5.65368 19.4176C5.44461 17.8496 5.27039 17.8495 5.13101 17.8496C4.99163 17.8496 4.46896 18.1631 4.29473 18.1632C4.12051 18.1632 3.59784 17.9542 3.28423 17.745C2.97063 17.5359 1.82075 17.6753 1.50715 17.6405C1.19355 17.6057 3.54862 15.4591 4.03647 15.4242C4.52433 15.3893 4.62268 15.3545 5.13101 15.2848Z" fill="#E0E0E0"/>
<path d="M4.29448 23.982C4.74746 23.6336 5.75796 21.7173 5.75796 21.5429C5.75796 21.3685 4.99137 21.9264 4.85199 21.9959C4.71262 22.0654 4.50354 21.6476 4.43386 21.5429C4.36417 21.4382 5.02622 20.9159 5.09591 20.8112C5.1656 20.7065 5.44435 20.0099 5.40951 19.6961C5.37467 19.3824 5.30497 18.2328 5.02622 18.2327C4.74746 18.2325 4.50355 18.3719 4.29448 18.4069C4.08541 18.4419 3.1446 17.9886 2.97038 17.9539C2.79615 17.9192 1.8205 17.7797 1.47205 17.9539C1.1236 18.1281 -0.130808 18.5811 -0.235343 18.7553C-0.339877 18.9296 0.14795 19.4174 0.461553 19.4522C0.775155 19.4871 1.68112 19.1735 1.68112 19.1735C1.68112 19.1735 2.90069 18.825 2.72646 19.1735C2.55224 19.5219 0.670621 22.7625 0.635776 22.9367C0.600932 23.1109 0.531242 23.5291 0.775155 23.5639C1.01907 23.5988 1.01907 23.4942 1.19329 23.5639C1.36752 23.6336 1.01907 24.4002 1.01907 24.4002C1.01907 24.4002 1.05391 24.8532 1.29783 24.8532C1.54174 24.8532 1.86198 24.6369 1.99472 24.4002C2.12746 24.1635 2.16895 24.4699 2.16895 24.4699C2.16895 24.4699 2.30833 24.7835 2.4477 24.8532C2.58708 24.9229 2.90069 24.7835 3.04007 24.6789C3.17944 24.5744 3.77181 23.6684 3.77181 23.6684C3.77181 23.6684 3.8415 24.3305 4.29448 23.982Z" fill="#E0E0E0"/>
<path d="M6.19725 8.83916C5.95335 9.98904 4.35049 14.7628 4.38533 14.9718C4.42016 15.1809 5.39581 14.8673 6.19725 15.1809C6.9987 15.4945 7.2426 15.7384 7.48651 15.6687C7.73042 15.599 11.1104 7.65442 11.2497 7.20146C11.3891 6.7485 12.3648 4.20479 12.5042 3.82152C12.6435 3.43825 12.7132 2.95038 12.5042 2.70648C12.2951 2.46259 11.8265 3.75503 11.3543 3.68214C10.8821 3.60925 10.8113 3.14635 10.518 3.05493C10.2247 2.96351 9.71656 3.26398 9.57719 3.05493C9.43783 2.84589 9.61205 1.06878 9.36813 1.13847C9.1242 1.20816 7.48652 3.71698 7.2426 4.30934C6.99867 4.9017 6.96385 6.46972 6.82446 7.02723C6.68506 7.58475 6.44115 7.68928 6.19725 8.83916Z" fill="#E0E0E0"/>
<path d="M12.8875 0.964318C12.8875 0.964318 12.2645 1.88087 12.2254 2.39295C12.1863 2.90504 13.2355 1.44135 13.4102 0.964318C13.4102 0.964318 14.1419 -0.708231 14.1419 -0.84761C14.1419 -0.986989 12.8875 0.964318 12.8875 0.964318Z" fill="#E0E0E0"/>
<path d="M21.9112 -3.42638C22.9217 -2.38104 23.5838 0.0580921 23.5838 -0.116131C23.5838 -0.290355 23.758 -9.52423 23.5838 -10.3256C23.4096 -11.1271 22.6778 -13.1132 21.9112 -13.4268C21.1446 -13.7405 19.0191 -13.6011 18.4965 -13.5662C17.9738 -13.5314 15.7089 -13.0087 16.127 -12.939C16.5451 -12.8693 17.5556 -12.4163 17.9738 -11.1619C18.3919 -9.90751 18.4965 -8.51372 19.0191 -7.50322C19.5418 -6.49272 20.9007 -4.47173 21.9112 -3.42638Z" fill="#E0E0E0"/>
<path d="M27.9238 56.332V59.2938C27.9238 58.9802 27.3663 57.2728 26.5997 57.0289C25.8331 56.7851 25.1711 57.1334 25.0665 57.2728C24.962 57.4122 25.8679 55.217 25.8331 54.7292C25.7983 54.2413 25.2408 49.7812 25.1711 49.6418C25.1014 49.5024 25.3453 49.9902 25.624 50.0948C25.9028 50.1994 25.8331 50.2342 26.5997 49.9554C27.3663 49.6766 27.7496 48.5268 27.7496 48.5268C27.7496 48.5268 28.8994 48.6662 29.3873 48.4571C29.8751 48.248 29.7706 48.3526 30.6068 47.3421C31.4431 46.3315 27.9238 55.2867 27.9238 56.332Z" fill="#E0E0E0"/>
<path d="M30.5724 46.4712C30.8114 42.5502 29.3051 37.4124 28.7256 37.4465C28.1462 37.4805 27.9939 38.8054 27.6803 38.8054C27.3667 38.8054 26.2865 37.551 26.182 38.004C26.0774 38.457 26.1471 42.8822 25.9032 43.0913C25.6593 43.3004 24.8579 47.2378 24.9276 48.0741C24.9973 48.9104 25.3457 49.7467 25.7638 49.8512C26.182 49.9557 26.4956 49.677 26.7395 49.5027C26.9834 49.3285 27.6106 47.656 27.8197 47.656C28.0287 47.6559 28.3056 48.1947 29.2135 48.0741C30.1214 47.9535 30.6526 46.4543 30.5724 46.4712Z" fill="#E0E0E0"/>
<path d="M30.224 37.7248C30.224 38.1081 29.8755 38.805 29.8058 38.9444C29.7361 39.0837 29.318 37.3764 29.318 37.3764C29.318 37.3764 28.1681 34.0312 28.1681 33.6131C28.1681 33.195 27.8197 20.5812 28.6211 20.6857C29.4225 20.7902 30.0149 21.3129 30.224 21.4523C30.433 21.5917 30.9208 26.6442 30.8512 27.3411C30.7815 28.0379 30.5027 32.1148 30.433 32.4981C30.3633 32.8814 30.224 37.3415 30.224 37.7248Z" fill="#E0E0E0"/>
<path d="M27.0525 19.7449C26.5298 19.501 25.3451 18.4208 25.0315 18.3512C24.7179 18.2815 24.8921 19.0481 24.8921 19.0481L25.6239 24.7974L25.7284 31.0347L25.5193 35.4251L25.7284 37.8991C25.7284 37.8991 25.8678 38.6308 25.9375 38.6308C26.0072 38.6308 25.9375 38.0385 25.9375 38.0385C25.9375 38.0385 26.1465 37.3416 26.4253 37.3764C26.7041 37.4112 27.5403 38.4566 27.7146 38.2824C27.8888 38.1081 28.4811 36.8537 28.6205 36.784C28.7599 36.7144 27.9585 35.2509 27.7843 34.9024C27.61 34.554 27.5403 31.0347 27.6449 30.6862C27.7494 30.3378 27.6449 21.3827 27.6449 21.3827C27.6449 21.3827 27.5752 19.9889 27.0525 19.7449Z" fill="#E0E0E0"/>
<path d="M32.5939 23.2649C32.4893 24.5193 30.8168 32.4988 30.8516 31.4534C30.8865 30.4081 31.3046 25.2859 30.991 23.7527C30.6774 22.2196 30.4335 20.1637 30.4335 17.864C30.4335 15.5642 32.0015 14.9719 32.0015 14.9719C32.0015 14.9719 32.9075 14.4492 32.9075 15.8081C32.9075 17.1671 32.6984 22.0105 32.5939 23.2649Z" fill="#E74C3C"/>
<path d="M30.2934 20.0237C30.2934 20.0237 30.4328 21.069 29.7707 20.7554C29.1086 20.4418 24.9621 18.6299 24.7182 16.7483C24.6874 16.511 24.6243 16.2604 24.6538 16.1559C24.6834 16.0514 24.8576 15.6332 24.8576 15.6332C25.9874 14.1764 26.5608 12.8101 27.5755 10.302C27.6473 9.92731 27.7226 9.74915 28.3421 9.88384C30.1586 10.4843 30.9575 11.3014 31.8962 13.8213C31.8962 13.8213 32.1401 14.3788 31.8962 14.5879C31.6523 14.7969 31.3039 14.9712 31.3039 14.9712C31.3039 14.9712 30.3631 15.9468 30.2934 17.0619C30.2237 18.1769 30.2934 20.0237 30.2934 20.0237Z" fill="#E74C3C"/>
<path d="M24.7184 0.405981C24.7184 0.719557 24.3562 13.9773 24.5442 14.6923C24.7321 15.4074 26.2448 12.2789 26.8796 10.2671C27.5157 8.42443 28.018 7.32949 28.0983 7.44462C29.2143 6.28103 29.3527 6.78258 29.4224 6.46897C29.4921 6.15536 29.3527 4.48283 28.7604 3.40264C28.168 2.32245 27.6105 1.48618 27.2272 1.10288C26.8439 0.719583 26.7742 0.649902 26.0076 -0.081846C25.241 -0.813594 25.485 -0.743866 25.2759 -0.569642C25.0668 -0.395418 24.7184 0.0924048 24.7184 0.405981Z" fill="#E0E0E0"/>
<path d="M32.2454 7.06165C32.2803 7.68885 32.8726 12.5671 32.6635 12.6368C32.4545 12.7065 31.3743 10.7552 30.0153 10.128C28.6564 9.50078 28.517 9.70985 28.0292 9.46594C27.5414 9.22202 29.0048 7.23587 29.2836 7.06165C29.5624 6.88742 30.0153 6.36475 30.0153 6.36475C30.0153 6.36475 28.7958 2.00916 28.517 1.86978C28.2382 1.7304 30.2244 2.32276 30.991 2.00916C31.7576 1.69556 32.6635 -0.325439 32.8726 -0.325439C33.0817 -0.325439 32.0363 3.64686 31.897 4.27407C31.7576 4.90127 31.897 5.3891 31.897 5.3891C32.033 6.04227 32.2105 6.43444 32.2454 7.06165Z" fill="#E0E0E0"/>
<path d="M30.5372 -4.54128C30.5372 -4.54128 32.837 -5.16849 33.1157 -5.30787C33.3945 -5.44725 33.3248 -3.73989 33.29 -3.00811C33.2551 -2.27634 32.8021 -0.603823 32.3491 -0.0114613C31.8962 0.5809 31.269 1.8005 29.8403 1.76562C28.4117 1.73075 27.4012 0.755156 27.2618 0.5809C27.1224 0.406645 25.8332 -0.743171 25.7286 -1.33556C25.6241 -1.92796 26.7043 -3.07777 26.774 -3.21718C26.8437 -3.35659 27.7496 -4.85486 27.9935 -4.7852C28.2375 -4.71554 29.2803 -4.47352 30.5372 -4.54128Z" fill="#E0E0E0"/>
<path d="M37.2973 -5.90011C36.8791 -6.00461 35.6247 -5.90011 34.8233 -6.17887C34.0219 -6.45763 34.3006 -6.49247 33.987 -6.38794C33.6734 -6.2834 33.6734 -3.60035 33.6734 -3.60035C33.6734 -3.60035 33.7431 -2.13684 33.987 -1.57935C34.231 -1.02187 35.0324 -0.220376 35.3111 0.197731C35.5899 0.615839 36.3216 3.08988 36.7398 3.05501C37.1579 3.02013 37.6457 3.05501 38.029 2.77625C38.4123 2.49749 38.3775 1.45211 38.3775 0.790092C38.3775 0.128072 38.029 -1.02187 38.029 -1.47482C38.029 -1.92777 38.2381 -2.1369 38.2729 -2.69439C38.3078 -3.25187 37.7154 -5.7956 37.2973 -5.90011Z" fill="#E0E0E0"/>
<path d="M43.0667 15.2848C42.5584 15.2151 41.1995 15.703 41.0601 15.9469C40.9207 16.1908 41.0601 16.5044 40.9207 17.2361C40.7813 17.9679 40.9412 17.6754 40.8367 18.4768C40.7321 19.2782 41.4987 20.3584 41.4987 20.3584C41.4987 20.3584 42.7531 21.6824 43.2758 21.6476C43.7985 21.6128 42.335 20.9856 42.5441 19.4176C42.7531 17.8496 42.9274 17.8495 43.0667 17.8496C43.2061 17.8496 43.7288 18.1631 43.903 18.1632C44.0772 18.1632 44.5999 17.9542 44.9135 17.745C45.2271 17.5359 46.377 17.6753 46.6906 17.6405C47.0042 17.6057 44.6491 15.4591 44.1613 15.4242C43.6734 15.3893 43.5751 15.3545 43.0667 15.2848Z" fill="#E0E0E0"/>
<path d="M43.9033 23.982C43.4503 23.6336 42.4398 21.7173 42.4398 21.5429C42.4398 21.3685 43.2064 21.9264 43.3458 21.9959C43.4851 22.0654 43.6942 21.6476 43.7639 21.5429C43.8336 21.4382 43.1715 20.9159 43.1019 20.8112C43.0322 20.7065 42.7534 20.0099 42.7883 19.6961C42.8231 19.3824 42.8928 18.2328 43.1715 18.2327C43.4503 18.2325 43.6942 18.3719 43.9033 18.4069C44.1124 18.4419 45.0532 17.9886 45.2274 17.9539C45.4016 17.9192 46.3773 17.7797 46.7257 17.9539C47.0742 18.1281 48.3286 18.5811 48.4331 18.7553C48.5376 18.9296 48.0498 19.4174 47.7362 19.4522C47.4226 19.4871 46.5166 19.1735 46.5166 19.1735C46.5166 19.1735 45.2971 18.825 45.4713 19.1735C45.6455 19.5219 47.5271 22.7625 47.562 22.9367C47.5968 23.1109 47.6665 23.5291 47.4226 23.5639C47.1787 23.5988 47.1787 23.4942 47.0045 23.5639C46.8302 23.6336 47.1787 24.4002 47.1787 24.4002C47.1787 24.4002 47.1438 24.8532 46.8999 24.8532C46.656 24.8532 46.3358 24.6369 46.203 24.4002C46.0703 24.1635 46.0288 24.4699 46.0288 24.4699C46.0288 24.4699 45.8894 24.7835 45.7501 24.8532C45.6107 24.9229 45.2971 24.7835 45.1577 24.6789C45.0183 24.5744 44.426 23.6684 44.426 23.6684C44.426 23.6684 44.3563 24.3305 43.9033 23.982Z" fill="#E0E0E0"/>
<path d="M42.0012 8.83916C42.2451 9.98904 43.848 14.7628 43.8132 14.9718C43.7783 15.1809 42.8027 14.8673 42.0012 15.1809C41.1998 15.4945 40.9559 15.7384 40.712 15.6687C40.4681 15.599 37.0881 7.65442 36.9488 7.20146C36.8094 6.7485 35.8337 4.20479 35.6943 3.82152C35.5549 3.43825 35.4853 2.95038 35.6943 2.70648C35.9034 2.46259 36.372 3.75503 36.8442 3.68214C37.3164 3.60925 37.3872 3.14635 37.6805 3.05493C37.9738 2.96351 38.4819 3.26398 38.6213 3.05493C38.7607 2.84589 38.5864 1.06878 38.8304 1.13847C39.0743 1.20816 40.712 3.71698 40.9559 4.30934C41.1998 4.9017 41.2346 6.46972 41.374 7.02723C41.5134 7.58475 41.7573 7.68928 42.0012 8.83916Z" fill="#E0E0E0"/>
<path d="M35.3108 0.964318C35.3108 0.964318 35.9337 1.88087 35.9728 2.39295C36.0119 2.90504 34.9627 1.44135 34.7881 0.964318C34.7881 0.964318 34.0564 -0.708231 34.0564 -0.84761C34.0563 -0.986989 35.3108 0.964318 35.3108 0.964318Z" fill="#E0E0E0"/>
<path d="M26.2863 -3.42638C25.2758 -2.38104 24.6137 0.0580921 24.6137 -0.116131C24.6137 -0.290355 24.4395 -9.52423 24.6137 -10.3256C24.788 -11.1271 25.5197 -13.1132 26.2863 -13.4268C27.0529 -13.7405 29.1784 -13.6011 29.7011 -13.5662C30.2237 -13.5314 32.4886 -13.0087 32.0705 -12.939C31.6524 -12.8693 30.6419 -12.4163 30.2237 -11.1619C29.8056 -9.90751 29.7011 -8.51372 29.1784 -7.50322C28.6557 -6.49272 27.2968 -4.47173 26.2863 -3.42638Z" fill="#E0E0E0"/>
</g>
<defs>
<clipPath id="clip0_736_3064">
<rect width="48" height="48" rx="24" fill="white"/>
</clipPath>
</defs>
</svg>
