<svg width="48" height="48" viewBox="0 0 48 48" fill="none" xmlns="http://www.w3.org/2000/svg">
<g clip-path="url(#clip0_736_3364)">
<path d="M23.2648 13.4845C22.7916 13.3832 22.8087 13.4468 22.9944 13.7888C23.4562 14.7665 23.6249 15.4579 23.8396 16.8314C23.9848 17.2344 24.0662 17.1505 24.2114 16.8314C24.3586 15.5844 24.5041 14.9077 25.0228 13.7888C25.2545 13.473 25.198 13.4007 24.7185 13.4845C24.1944 13.5856 23.7381 13.5858 23.2648 13.4845Z" fill="#E0E0E0"/>
<path d="M22.8495 49.5124C22.8834 49.8842 22.5451 61.5475 22.3424 59.8572C22.1397 58.1669 15.412 41.2635 16.8319 43.8328C18.2518 46.4021 22.8155 49.1405 22.8495 49.5124Z" fill="#E0E0E0"/>
<path d="M16.0549 59.3841C16.0549 59.3841 17.61 70.1011 17.8466 70.2022C18.0833 70.3034 19.9426 66.8895 20.3821 64.9622C20.8216 63.0349 20.6526 57.7617 20.5512 56.7472C20.4497 55.7327 16.7322 44.8835 16.5282 44.0697C16.3242 43.256 15.5876 41.7753 15.4464 42.1765C15.3051 42.5778 14.497 50.0378 14.7364 49.6816C14.8322 52.8137 15.047 54.821 16.0549 59.3841Z" fill="#E0E0E0"/>
<path d="M13.8365 27.4204C13.7013 27.8261 12.18 32.4576 12.3828 32.6266C12.5857 32.7957 12.8223 32.2548 13.3294 31.2406C13.8365 30.2263 14.3436 27.7247 14.276 27.5218C14.2084 27.319 13.9718 27.0147 13.8365 27.4204Z" fill="#E0E0E0"/>
<path d="M12.1116 19.8477C13.3287 18.8673 14.85 17.7516 15.4923 17.9207C16.1346 18.0897 16.7769 18.7996 16.7769 18.7996C16.7769 18.7996 16.946 19.0025 16.7769 19.5434C16.6079 20.0843 16.3713 21.1661 15.3571 22.4508C14.3429 23.7354 11.7059 24.6144 11.7059 24.6144C11.7059 24.6144 10.6579 25.1891 10.4213 25.4596C10.1846 25.73 10.5903 23.2621 10.5903 23.2621C10.5903 23.2621 10.8946 20.828 12.1116 19.8477Z" fill="#E0E0E0"/>
<path d="M9.88132 27.9942C9.57707 29.955 9.40802 36.5811 9.64467 36.2768C9.88132 35.9726 11.1322 33.7751 11.5716 33.268C12.0111 32.761 12.4506 30.8677 12.7211 30.1578C12.9915 29.4479 13.6247 27.2165 13.7691 25.0868C13.7691 25.0868 13.7691 24.1741 12.8901 24.5121C12.0111 24.8502 11.4364 25.3911 11.4364 25.3911C11.4364 25.3911 10.1856 26.0334 9.88132 27.9942Z" fill="#E0E0E0"/>
<path d="M9.71242 36.6157C10.8957 34.7225 12.1127 32.8293 12.3493 33.2012C12.586 33.5731 12.586 34.3168 12.586 34.3168C12.3289 35.2883 12.0717 35.8733 11.5042 36.9537C11.0813 38.7484 10.6692 39.6851 9.91526 41.3486C9.95336 41.1811 7.44437 47.3999 7.31215 47.6028C7.17994 47.8057 7.24454 46.2506 7.31215 45.6758C7.37977 45.101 8.52919 38.5088 9.71242 36.6157Z" fill="#E0E0E0"/>
<path d="M7.0756 43.4781C6.56849 44.2219 4.70914 45.6756 4.5063 45.5403C4.30346 45.4051 5.48669 42.7682 5.48669 42.7682C5.88019 41.6743 6.07268 40.8957 6.29805 38.8128C6.29805 38.8128 6.70372 36.4125 6.73753 36.1421C6.77135 35.8717 7.98837 33.3023 8.39406 32.9305C8.79975 32.5586 8.79974 32.3557 9.0702 32.9981C9.34065 33.6404 9.34065 34.9251 9.34065 34.9251C9.34065 34.9251 9.27305 36.7168 8.73213 38.1367C8.19121 39.5566 7.5827 41.8216 7.5827 41.8216C7.5827 41.8216 7.58271 42.7344 7.0756 43.4781Z" fill="#E0E0E0"/>
<path d="M4.97006 46.153C5.30809 46.0178 6.86323 44.1246 6.99846 44.3613C7.13369 44.5979 6.59278 47.6743 6.79562 48.249C6.99846 48.8237 7.03227 48.6548 7.13369 49.4323C7.23511 50.2098 6.49136 51.2578 6.49136 51.2578C6.49136 51.2578 5.27432 52.5424 4.76722 52.5086C4.26012 52.4749 5.68 51.8663 5.47716 50.345C5.27432 48.8237 5.10529 48.8237 4.97006 48.8237C4.83483 48.8238 4.32773 49.1279 4.1587 49.128C3.98967 49.1281 3.48257 48.9252 3.17831 48.7223C2.87405 48.5194 1.75843 48.6546 1.45417 48.6209C1.14991 48.5871 3.38112 46.4911 3.85444 46.4573C4.32776 46.4234 4.63203 46.2882 4.97006 46.153Z" fill="#E0E0E0"/>
<path d="M43.2345 46.153C42.8965 46.0178 41.3414 44.1246 41.2061 44.3613C41.0709 44.5979 41.6118 47.6743 41.409 48.249C41.2061 48.8237 41.1723 48.6548 41.0709 49.4323C40.9695 50.2098 41.7132 51.2578 41.7132 51.2578C41.7132 51.2578 42.9303 52.5424 43.4374 52.5086C43.9445 52.4749 42.5246 51.8663 42.7274 50.345C42.9303 48.8237 43.0993 48.8237 43.2345 48.8237C43.3698 48.8238 43.8769 49.1279 44.0459 49.128C44.2149 49.1281 44.722 48.9252 45.0263 48.7223C45.3305 48.5194 46.4462 48.6546 46.7504 48.6209C47.0547 48.5871 44.8235 46.4911 44.3501 46.4573C43.8768 46.4234 43.5726 46.2882 43.2345 46.153Z" fill="#E0E0E0"/>
<path d="M23.4698 41.952C23.4698 41.952 23.5593 47.1128 23.1318 47.4171C22.7042 47.7213 22.0619 47.3495 22.0619 47.3495C21.343 46.6389 21.0649 45.7426 20.3596 43.541C19.9373 41.4462 19.641 40.1781 19.763 38.6612C19.9006 38.4698 20.3724 38.4023 20.3724 38.4023C20.3724 38.4023 22.8394 38.1541 23.1445 39.1344C23.4495 40.1148 23.3649 40.0786 23.4698 41.952Z" fill="#E0E0E0"/>
<path d="M18.3404 38.138C18.5122 42.1799 20.2988 45.6005 20.6731 45.8797C21.0474 46.1589 19.3546 45.8797 17.5629 43.7499C15.7711 41.6201 15.2302 39.5579 15.2302 39.5579C15.0091 39.1027 15.4058 34.9709 15.7711 35.2982C16.1364 35.6255 16.1401 36.4168 17.0896 37.1238C18.0391 37.8308 17.4027 37.3331 17.8672 37.6985C17.9886 37.7941 18.3265 37.809 18.3404 38.138Z" fill="#E0E0E0"/>
<path d="M18.2087 34.7397C18.1846 36.6117 18.8155 36.5318 18.6482 36.8357C18.4809 37.1395 17.9044 37.6808 16.9916 36.3624C16.0789 35.0439 16.2926 35.0628 16.0789 34.7397C15.8651 34.4165 15.9418 32.7457 15.5699 31.6639C15.198 30.5821 15.426 30.5073 15.2656 29.8383C15.1053 29.1693 15.3351 27.0487 16.2817 26.9303C17.2283 26.8119 18.3101 27.5726 18.4791 28.0459C18.6482 28.5192 18.5502 29.1628 18.4791 29.8383C18.4081 30.5138 18.4303 31.3252 18.3439 32.2042C18.2576 33.0831 18.2327 32.8676 18.2087 34.7397Z" fill="#E0E0E0"/>
<path d="M18.9856 18.6137C18.5123 18.8165 17.7347 19.6955 17.16 20.5407C16.5853 21.3859 15.7 22.4287 15.2669 23.3804C14.5535 24.1372 14.5343 24.248 14.895 24.6313C15.2557 25.0145 15.2331 24.9693 17.7686 26.2878C20.3041 27.6062 23.1776 27.6401 23.3467 26.3892C23.5157 25.1384 23.3467 24.2932 23.3467 22.4C23.3467 20.5068 23.2791 20.1688 22.5691 19.256C21.8591 18.3432 19.4589 18.4108 18.9856 18.6137Z" fill="#E0E0E0"/>
<path d="M19.46 36.0912C19.5276 35.4827 20.3727 34.1304 21.5222 34.3333C22.2431 34.4605 22.4321 34.4946 22.4727 34.5024C22.5287 34.5042 23.154 34.5434 23.3477 35.4151C23.5506 36.3279 23.3477 37.0378 23.3477 37.0378C23.3477 37.0378 23.4829 38.0858 22.1645 38.0858C20.846 38.0858 20.9136 38.0858 20.0347 37.8154C19.1557 37.5449 19.3923 36.6998 19.46 36.0912Z" fill="#E0E0E0"/>
<path d="M19.1892 32.8464C19.2906 32.3731 20.2158 31.528 20.9133 31.1899C21.6108 30.8518 21.6909 30.5814 22.2318 30.6152C22.7727 30.649 23.1908 30.6828 23.3937 31.5956C23.5965 32.5083 23.3937 33.6578 23.3937 33.6578C23.3937 33.6578 23.5502 34.0634 22.2318 34.0634C20.9133 34.0634 20.8119 34.3677 20.0006 34.2324C19.1892 34.0972 19.0878 33.3197 19.1892 32.8464Z" fill="#E0E0E0"/>
<path d="M19.3242 29.905C19.4256 29.4317 19.8775 28.6204 20.575 28.2823C21.2725 27.9442 21.6568 27.6737 22.1626 27.6766C22.6683 27.6795 22.8063 27.4709 23.2457 28.0118C23.6852 28.5527 23.7528 29.3641 23.3245 29.7388C22.8961 30.1135 23.1443 30.1416 22.2992 30.2768C21.454 30.4121 20.6088 31.3249 19.7975 31.1896C18.9861 31.0544 19.2228 30.3782 19.3242 29.905Z" fill="#E0E0E0"/>
<path d="M20.6419 14.8949C20.3376 15.233 15.8075 17.5995 16.1794 17.7685C16.5513 17.9375 20.6419 17.7009 21.5547 17.9375C22.4674 18.1742 22.7717 18.8503 22.7717 18.8503C23.3608 19.6712 23.6845 19.425 23.8873 18.7489C24.0902 18.0728 22.2984 13.0694 21.3856 12.6637C20.4728 12.258 20.5743 12.2918 20.4728 12.8327C20.3714 13.3736 20.9461 14.5569 20.6419 14.8949Z" fill="#E74C3C"/>
<path d="M25.3477 49.4831C25.3137 49.8549 25.6521 61.5182 25.8548 59.8279C26.0575 58.1376 32.7851 41.2342 31.3652 43.8035C29.9454 46.3728 25.3816 49.1112 25.3477 49.4831Z" fill="#E0E0E0"/>
<path d="M32.1419 59.3546C32.1419 59.3546 30.5868 70.0716 30.3502 70.1727C30.1135 70.2738 28.2541 66.8599 27.8147 64.9327C27.3752 63.0054 27.5442 57.7321 27.6456 56.7177C27.747 55.7032 31.4646 44.8539 31.6686 44.0402C31.8726 43.2264 32.6092 41.7457 32.7504 42.147C32.8916 42.5483 33.6997 50.0082 33.4604 49.6521C33.3646 52.7842 33.1498 54.7915 32.1419 59.3546Z" fill="#E0E0E0"/>
<path d="M34.3602 27.3901C34.4955 27.7958 36.0168 32.4273 35.8139 32.5964C35.6111 32.7654 35.3744 32.2245 34.8673 31.2103C34.3602 30.1961 33.8531 27.6944 33.9208 27.4916C33.9884 27.2887 34.225 26.9845 34.3602 27.3901Z" fill="#E0E0E0"/>
<path d="M36.0847 19.8174C34.8676 18.837 33.3463 17.7214 32.704 17.8904C32.0617 18.0594 31.4194 18.7694 31.4194 18.7694C31.4194 18.7694 31.2503 18.9722 31.4194 19.5131C31.5884 20.054 31.825 21.1358 32.8392 22.4205C33.8534 23.7051 36.4903 24.5841 36.4903 24.5841C36.4903 24.5841 37.5384 25.1588 37.775 25.4293C38.0116 25.6997 37.606 23.2318 37.606 23.2318C37.606 23.2318 37.3017 20.7978 36.0847 19.8174Z" fill="#E0E0E0"/>
<path d="M38.3159 27.9649C38.6202 29.9257 38.7892 36.5518 38.5526 36.2475C38.3159 35.9433 37.0651 33.7458 36.6256 33.2387C36.1861 32.7317 35.7466 30.8384 35.4762 30.1285C35.2057 29.4186 34.5726 27.1872 34.4282 25.0575C34.4282 25.0575 34.4282 24.1448 35.3072 24.4828C36.1861 24.8209 36.7608 25.3618 36.7608 25.3618C36.7608 25.3618 38.0117 26.0041 38.3159 27.9649Z" fill="#E0E0E0"/>
<path d="M38.4853 36.5864C37.3021 34.6932 36.0851 32.8 35.8484 33.1719C35.6118 33.5438 35.6118 34.2875 35.6118 34.2875C35.8689 35.259 36.1261 35.8441 36.6936 36.9244C37.1164 38.7191 37.5286 39.6558 38.2825 41.3193C38.2444 41.1518 40.7534 47.3706 40.8856 47.5735C41.0178 47.7765 40.9532 46.2213 40.8856 45.6465C40.818 45.0717 39.6686 38.4795 38.4853 36.5864Z" fill="#E0E0E0"/>
<path d="M41.1217 43.4488C41.6288 44.1926 43.4881 45.6463 43.691 45.511C43.8938 45.3758 42.7106 42.7389 42.7106 42.7389C42.3171 41.645 42.1246 40.8664 41.8992 38.7835C41.8992 38.7835 41.4936 36.3832 41.4597 36.1128C41.4259 35.8424 40.2089 33.273 39.8032 32.9012C39.3975 32.5293 39.3975 32.3264 39.1271 32.9688C38.8566 33.6111 38.8566 34.8958 38.8566 34.8958C38.8566 34.8958 38.9242 36.6875 39.4651 38.1074C40.0061 39.5273 40.6146 41.7923 40.6146 41.7923C40.6146 41.7923 40.6146 42.7051 41.1217 43.4488Z" fill="#E0E0E0"/>
<path d="M24.7269 41.9215C24.7269 41.9215 24.6375 47.0823 25.065 47.3866C25.4926 47.6908 26.1349 47.3189 26.1349 47.3189C26.8538 46.6084 27.1319 45.7121 27.8371 43.5104C28.2595 41.4157 28.5558 40.1476 28.4337 38.6306C28.2961 38.4393 27.8244 38.3718 27.8244 38.3718C27.8244 38.3718 25.3573 38.1235 25.0523 39.1039C24.7472 40.0843 24.8319 40.0481 24.7269 41.9215Z" fill="#E0E0E0"/>
<path d="M29.8574 38.1087C29.6856 42.1506 27.899 45.5712 27.5248 45.8504C27.1505 46.1296 28.8432 45.8504 30.635 43.7206C32.4267 41.5908 32.9676 39.5286 32.9676 39.5286C33.1888 39.0734 32.792 34.9416 32.4267 35.2689C32.0614 35.5963 32.0577 36.3875 31.1083 37.0945C30.1588 37.8015 30.7951 37.3038 30.3307 37.6692C30.2092 37.7648 29.8714 37.7797 29.8574 38.1087Z" fill="#E0E0E0"/>
<path d="M29.9886 34.7094C30.0126 36.5814 29.3818 36.5016 29.5491 36.8054C29.7164 37.1092 30.2928 37.6506 31.2056 36.3321C32.1184 35.0136 31.9047 35.0326 32.1184 34.7094C32.3321 34.3862 32.2554 32.7154 32.6274 31.6336C32.9993 30.5518 32.7713 30.477 32.9316 29.808C33.0919 29.1391 32.8621 27.0185 31.9156 26.9C30.969 26.7816 29.8872 27.5423 29.7181 28.0156C29.5491 28.4889 29.6471 29.1325 29.7181 29.808C29.7892 30.4835 29.767 31.2949 29.8534 32.1739C29.9397 33.0529 29.9645 32.8373 29.9886 34.7094Z" fill="#E0E0E0"/>
<path d="M29.2117 18.5844C29.685 18.7872 30.4625 19.6662 31.0372 20.5114C31.6119 21.3566 32.4973 22.3994 32.9304 23.3511C33.6438 24.1079 33.663 24.2187 33.3023 24.602C32.9416 24.9852 32.9642 24.94 30.4287 26.2585C27.8932 27.5769 25.0196 27.6108 24.8506 26.3599C24.6816 25.1091 24.8506 24.2639 24.8506 22.3707C24.8506 20.4776 24.9182 20.1395 25.6282 19.2267C26.3382 18.3139 28.7384 18.3815 29.2117 18.5844Z" fill="#E0E0E0"/>
<path d="M28.7378 36.0617C28.6702 35.4531 27.825 34.1009 26.6756 34.3037C25.9546 34.431 25.7657 34.4651 25.725 34.4729C25.6691 34.4746 25.0438 34.5139 24.85 35.3855C24.6472 36.2983 24.85 37.0083 24.85 37.0083C24.85 37.0083 24.7148 38.0563 26.0333 38.0563C27.3517 38.0563 27.2841 38.0563 28.1631 37.7858C29.0421 37.5154 28.8054 36.6702 28.7378 36.0617Z" fill="#E0E0E0"/>
<path d="M29.0076 32.8161C28.9062 32.3428 27.9809 31.4977 27.2834 31.1596C26.586 30.8215 26.5059 30.5511 25.965 30.5849C25.4241 30.6187 25.0059 30.6525 24.8031 31.5653C24.6003 32.4781 24.8031 33.6275 24.8031 33.6275C24.8031 33.6275 24.6465 34.0332 25.965 34.0332C27.2834 34.0332 27.3849 34.3374 28.1962 34.2022C29.0076 34.0669 29.109 33.2894 29.0076 32.8161Z" fill="#E0E0E0"/>
<path d="M28.8736 29.8747C28.7722 29.4014 28.3202 28.5901 27.6227 28.252C26.9252 27.9139 26.5409 27.6435 26.0352 27.6463C25.5294 27.6492 25.3915 27.4406 24.952 27.9815C24.5125 28.5224 24.4449 29.3338 24.8733 29.7085C25.3017 30.0833 25.0534 30.1113 25.8986 30.2466C26.7438 30.3818 27.5889 31.2946 28.4003 31.1594C29.2116 31.0241 28.975 30.348 28.8736 29.8747Z" fill="#E0E0E0"/>
<path d="M27.5548 14.8647C27.859 15.2027 32.3891 17.5692 32.0173 17.7382C31.6454 17.9073 27.5548 17.6706 26.642 17.9073C25.7292 18.1439 25.425 18.82 25.425 18.82C24.8358 19.6409 24.5122 19.3947 24.3093 18.7186C24.1065 18.0425 25.8983 13.0391 26.811 12.6334C27.7238 12.2277 27.6224 12.2616 27.7238 12.8025C27.8252 13.3434 27.2505 14.5266 27.5548 14.8647Z" fill="#E74C3C"/>
<path d="M23.9348 12.9675C22.1092 12.8999 20.7232 12.021 20.4865 11.6153C20.2498 11.2096 20.4183 8.3963 20.1484 7.96417C19.8785 7.53204 19.3768 4.76907 20.4865 2.99459C21.5254 1.68717 22.0416 0.999997 24.07 1C26.0984 1 26.35 1.68868 27.3831 2.99459C28.4161 4.3005 28.1606 7.52477 27.8225 7.96417C27.4845 8.40357 27.6873 11.2096 27.3831 11.6153C27.0788 12.021 25.7603 13.0352 23.9348 12.9675Z" fill="#E0E0E0"/>
<path d="M28.4803 6.4867C28.4463 6.2502 27.7874 5.74586 27.6415 6.02758C27.4956 6.30931 27.5581 8.60287 27.6419 8.64878C27.7258 8.69469 27.9829 8.63978 28.1128 8.60193C28.2426 8.56408 28.5142 6.7232 28.4803 6.4867Z" fill="#E0E0E0"/>
<path d="M19.4265 6.42738C19.4604 6.19087 20.1193 5.68653 20.2652 5.96826C20.4111 6.24998 20.3487 8.54354 20.2648 8.58945C20.1809 8.63536 19.9238 8.58045 19.794 8.5426C19.6642 8.50476 19.3925 6.66388 19.4265 6.42738Z" fill="#E0E0E0"/>
</g>
<defs>
<clipPath id="clip0_736_3364">
<rect width="48" height="48" rx="24" fill="white"/>
</clipPath>
</defs>
</svg>
