<svg width="48" height="48" viewBox="0 0 48 48" fill="none" xmlns="http://www.w3.org/2000/svg">
<g clip-path="url(#clip0_736_3231)">
<path d="M23.2648 13.4843C22.7916 13.3829 22.8087 13.4466 22.9944 13.7885C23.4562 14.7662 23.6249 15.4577 23.8396 16.8311C23.9848 17.2342 24.0662 17.1503 24.2114 16.8311C24.3586 15.5841 24.5041 14.9074 25.0228 13.7885C25.2545 13.4727 25.198 13.4004 24.7185 13.4843C24.1944 13.5853 23.7381 13.5856 23.2648 13.4843Z" fill="#E0E0E0"/>
<path d="M22.85 49.5124C22.8839 49.8842 22.5456 61.5475 22.3429 59.8572C22.1402 58.1669 15.4125 41.2635 16.8324 43.8328C18.2523 46.4021 22.816 49.1405 22.85 49.5124Z" fill="#E0E0E0"/>
<path d="M16.0554 59.3839C16.0554 59.3839 17.6105 70.1009 17.8471 70.202C18.0838 70.3031 19.9431 66.8892 20.3826 64.962C20.8221 63.0347 20.6531 57.7614 20.5516 56.747C20.4502 55.7325 16.7327 44.8832 16.5287 44.0695C16.3246 43.2557 15.588 41.775 15.4468 42.1763C15.3056 42.5776 14.4975 50.0375 14.7369 49.6814C14.8327 52.8135 15.0475 54.8208 16.0554 59.3839Z" fill="#E0E0E0"/>
<path d="M13.8365 27.4207C13.7013 27.8263 12.18 32.4578 12.3828 32.6269C12.5857 32.7959 12.8223 32.255 13.3294 31.2408C13.8365 30.2266 14.3436 27.7249 14.276 27.5221C14.2084 27.3193 13.9718 27.015 13.8365 27.4207Z" fill="#E0E0E0"/>
<path d="M12.1126 19.8479C13.3296 18.8675 14.8509 17.7519 15.4933 17.9209C16.1356 18.09 16.7779 18.7999 16.7779 18.7999C16.7779 18.7999 16.9469 19.0027 16.7779 19.5436C16.6089 20.0845 16.3722 21.1664 15.358 22.451C14.3438 23.7357 11.7069 24.6146 11.7069 24.6146C11.7069 24.6146 10.6589 25.1893 10.4223 25.4598C10.1856 25.7303 10.5913 23.2624 10.5913 23.2624C10.5913 23.2624 10.8956 20.8283 12.1126 19.8479Z" fill="#E74C3C"/>
<path d="M9.88083 27.9942C9.57658 29.955 9.40754 36.5811 9.64418 36.2768C9.88083 35.9726 11.1317 33.7751 11.5712 33.268C12.0106 32.761 12.4501 30.8677 12.7206 30.1578C12.991 29.4479 13.6242 27.2165 13.7686 25.0868C13.7686 25.0868 13.7686 24.1741 12.8896 24.5121C12.0107 24.8502 11.4359 25.3911 11.4359 25.3911C11.4359 25.3911 10.1851 26.0334 9.88083 27.9942Z" fill="#E0E0E0"/>
<path d="M9.71242 36.6157C10.8957 34.7225 12.1127 32.8293 12.3493 33.2012C12.586 33.5731 12.586 34.3168 12.586 34.3168C12.3289 35.2883 12.0717 35.8733 11.5042 36.9537C11.0813 38.7484 10.6692 39.6851 9.91526 41.3486C9.95336 41.1811 7.44437 47.3999 7.31215 47.6028C7.17994 47.8057 7.24454 46.2506 7.31215 45.6758C7.37977 45.101 8.52919 38.5088 9.71242 36.6157Z" fill="#E0E0E0"/>
<path d="M7.0756 43.4781C6.56849 44.2219 4.70914 45.6756 4.5063 45.5403C4.30346 45.4051 5.48669 42.7682 5.48669 42.7682C5.88019 41.6743 6.07268 40.8957 6.29805 38.8128C6.29805 38.8128 6.70372 36.4125 6.73753 36.1421C6.77135 35.8717 7.98837 33.3023 8.39406 32.9305C8.79975 32.5586 8.79974 32.3557 9.0702 32.9981C9.34065 33.6404 9.34065 34.9251 9.34065 34.9251C9.34065 34.9251 9.27305 36.7168 8.73213 38.1367C8.19121 39.5566 7.5827 41.8216 7.5827 41.8216C7.5827 41.8216 7.58271 42.7344 7.0756 43.4781Z" fill="#E0E0E0"/>
<path d="M4.96994 46.153C5.30797 46.0178 6.86311 44.1246 6.99834 44.3613C7.13356 44.5979 6.59266 47.6743 6.7955 48.249C6.99834 48.8237 7.03214 48.6548 7.13356 49.4323C7.23498 50.2098 6.49124 51.2578 6.49124 51.2578C6.49124 51.2578 5.2742 52.5424 4.7671 52.5086C4.26 52.4749 5.67988 51.8663 5.47704 50.345C5.2742 48.8237 5.10517 48.8237 4.96994 48.8237C4.83471 48.8238 4.32761 49.1279 4.15858 49.128C3.98955 49.1281 3.48245 48.9252 3.17819 48.7223C2.87393 48.5194 1.75831 48.6546 1.45405 48.6209C1.14979 48.5871 3.381 46.4911 3.85432 46.4573C4.32764 46.4234 4.63191 46.2882 4.96994 46.153Z" fill="#E0E0E0"/>
<path d="M43.235 46.153C42.897 46.0178 41.3418 44.1246 41.2066 44.3613C41.0714 44.5979 41.6123 47.6743 41.4095 48.249C41.2066 48.8237 41.1728 48.6548 41.0714 49.4323C40.97 50.2098 41.7137 51.2578 41.7137 51.2578C41.7137 51.2578 42.9308 52.5424 43.4379 52.5086C43.945 52.4749 42.5251 51.8663 42.7279 50.345C42.9308 48.8237 43.0998 48.8237 43.235 48.8237C43.3702 48.8238 43.8773 49.1279 44.0464 49.128C44.2154 49.1281 44.7225 48.9252 45.0268 48.7223C45.331 48.5194 46.4466 48.6546 46.7509 48.6209C47.0552 48.5871 44.824 46.4911 44.3506 46.4573C43.8773 46.4234 43.573 46.2882 43.235 46.153Z" fill="#E0E0E0"/>
<path d="M23.4703 41.9518C23.4703 41.9518 23.5598 47.1126 23.1323 47.4168C22.7047 47.7211 22.0624 47.3492 22.0624 47.3492C21.3435 46.6387 21.0654 45.7423 20.3601 43.5407C19.9378 41.446 19.6415 40.1779 19.7635 38.6609C19.9011 38.4695 20.3728 38.4021 20.3728 38.4021C20.3728 38.4021 22.8399 38.1538 23.145 39.1342C23.45 40.1145 23.3654 40.0784 23.4703 41.9518Z" fill="#E0E0E0"/>
<path d="M18.34 38.1382C18.5117 42.1801 20.2984 45.6007 20.6726 45.88C21.0469 46.1592 19.3542 45.88 17.5624 43.7501C15.7707 41.6203 15.2298 39.5581 15.2298 39.5581C15.0086 39.1029 15.4054 34.9712 15.7707 35.2985C16.136 35.6258 16.1396 36.4171 17.0891 37.1241C18.0386 37.831 17.4022 37.3333 17.8667 37.6988C17.9882 37.7944 18.326 37.8092 18.34 38.1382Z" fill="#E0E0E0"/>
<path d="M18.2087 34.7399C18.1846 36.6119 18.8155 36.5321 18.6482 36.8359C18.4809 37.1397 17.9044 37.6811 16.9916 36.3626C16.0789 35.0442 16.2926 35.0631 16.0789 34.7399C15.8651 34.4167 15.9418 32.7459 15.5699 31.6641C15.198 30.5823 15.426 30.5075 15.2656 29.8386C15.1053 29.1696 15.3351 27.049 16.2817 26.9306C17.2283 26.8121 18.3101 27.5729 18.4791 28.0462C18.6482 28.5195 18.5502 29.1631 18.4791 29.8386C18.4081 30.5141 18.4303 31.3254 18.3439 32.2044C18.2576 33.0834 18.2327 32.8678 18.2087 34.7399Z" fill="#E0E0E0"/>
<path d="M18.9866 18.6137C18.5133 18.8165 17.7357 19.6955 17.161 20.5407C16.5863 21.3859 15.701 22.4287 15.2678 23.3804C14.5545 24.1372 14.5352 24.248 14.896 24.6313C15.2567 25.0145 15.234 24.9693 17.7695 26.2878C20.305 27.6062 23.1786 27.6401 23.3476 26.3892C23.5167 25.1384 23.3476 24.2932 23.3476 22.4C23.3476 20.5068 23.2801 20.1688 22.5701 19.256C21.8601 18.3432 19.4599 18.4108 18.9866 18.6137Z" fill="#E0E0E0"/>
<path d="M19.4595 36.0912C19.5271 35.4827 20.3722 34.1304 21.5217 34.3333C22.2426 34.4605 22.4316 34.4946 22.4723 34.5024C22.5282 34.5042 23.1535 34.5434 23.3472 35.4151C23.5501 36.3279 23.3472 37.0378 23.3472 37.0378C23.3472 37.0378 23.4824 38.0858 22.164 38.0858C20.8455 38.0858 20.9131 38.0858 20.0342 37.8154C19.1552 37.5449 19.3919 36.6998 19.4595 36.0912Z" fill="#E0E0E0"/>
<path d="M19.1887 32.8464C19.2901 32.3731 20.2154 31.528 20.9128 31.1899C21.6103 30.8518 21.6904 30.5814 22.2313 30.6152C22.7722 30.649 23.1903 30.6828 23.3932 31.5956C23.596 32.5083 23.3932 33.6578 23.3932 33.6578C23.3932 33.6578 23.5498 34.0634 22.2313 34.0634C20.9128 34.0634 20.8114 34.3677 20.0001 34.2324C19.1887 34.0972 19.0873 33.3197 19.1887 32.8464Z" fill="#E0E0E0"/>
<path d="M19.3242 29.905C19.4256 29.4317 19.8775 28.6204 20.575 28.2823C21.2725 27.9442 21.6568 27.6737 22.1626 27.6766C22.6683 27.6795 22.8063 27.4709 23.2457 28.0118C23.6852 28.5527 23.7528 29.3641 23.3245 29.7388C22.8961 30.1135 23.1443 30.1416 22.2992 30.2768C21.454 30.4121 20.6088 31.3249 19.7975 31.1896C18.9861 31.0544 19.2228 30.3782 19.3242 29.905Z" fill="#E0E0E0"/>
<path d="M20.6424 14.8952C20.3381 15.2333 15.808 17.5997 16.1799 17.7687C16.5518 17.9378 20.6424 17.7011 21.5551 17.9378C22.4679 18.1744 22.7722 18.8506 22.7722 18.8506C23.3613 19.6715 23.685 19.4253 23.8878 18.7491C24.0906 18.073 22.2989 13.0696 21.3861 12.6639C20.4733 12.2583 20.5748 12.2921 20.4733 12.833C20.3719 13.3739 20.9466 14.5571 20.6424 14.8952Z" fill="#E0E0E0"/>
<path d="M25.3478 49.4833C25.3138 49.8551 25.6522 61.5184 25.8549 59.8281C26.0576 58.1378 32.7852 41.2345 31.3654 43.8038C29.9455 46.3731 25.3817 49.1115 25.3478 49.4833Z" fill="#E0E0E0"/>
<path d="M32.1424 59.3546C32.1424 59.3546 30.5873 70.0716 30.3506 70.1727C30.114 70.2738 28.2546 66.8599 27.8151 64.9327C27.3757 63.0054 27.5447 57.7321 27.6461 56.7177C27.7475 55.7032 31.4651 44.8539 31.6691 44.0402C31.8731 43.2264 32.6097 41.7457 32.7509 42.147C32.8921 42.5483 33.7002 50.0082 33.4609 49.6521C33.3651 52.7842 33.1503 54.7915 32.1424 59.3546Z" fill="#E0E0E0"/>
<path d="M34.3607 27.3901C34.496 27.7958 36.0173 32.4273 35.8144 32.5964C35.6116 32.7654 35.3749 32.2245 34.8678 31.2103C34.3607 30.1961 33.8536 27.6944 33.9212 27.4916C33.9889 27.2887 34.2255 26.9845 34.3607 27.3901Z" fill="#E0E0E0"/>
<path d="M36.0852 19.8174C34.8681 18.837 33.3468 17.7214 32.7045 17.8904C32.0622 18.0594 31.4198 18.7694 31.4198 18.7694C31.4198 18.7694 31.2508 18.9722 31.4198 19.5131C31.5889 20.054 31.8255 21.1358 32.8397 22.4205C33.8539 23.7051 36.4908 24.5841 36.4908 24.5841C36.4908 24.5841 37.5388 25.1588 37.7755 25.4293C38.0121 25.6997 37.6065 23.2318 37.6065 23.2318C37.6065 23.2318 37.3022 20.7978 36.0852 19.8174Z" fill="#E74C3C"/>
<path d="M38.3164 27.9649C38.6207 29.9257 38.7897 36.5518 38.5531 36.2475C38.3164 35.9433 37.0656 33.7458 36.6261 33.2387C36.1866 32.7317 35.7471 30.8384 35.4767 30.1285C35.2062 29.4186 34.573 27.1872 34.4287 25.0575C34.4287 25.0575 34.4287 24.1448 35.3076 24.4828C36.1866 24.8209 36.7613 25.3618 36.7613 25.3618C36.7613 25.3618 38.0122 26.0041 38.3164 27.9649Z" fill="#E0E0E0"/>
<path d="M38.4848 36.5861C37.3016 34.693 36.0846 32.7998 35.8479 33.1716C35.6113 33.5435 35.6113 34.2873 35.6113 34.2873C35.8684 35.2587 36.1256 35.8438 36.6931 36.9242C37.1159 38.7188 37.5281 39.6555 38.282 41.319C38.2439 41.1516 40.7529 47.3703 40.8851 47.5733C41.0173 47.7762 40.9527 46.2211 40.8851 45.6463C40.8175 45.0715 39.6681 38.4793 38.4848 36.5861Z" fill="#E0E0E0"/>
<path d="M41.1217 43.4488C41.6288 44.1926 43.4881 45.6463 43.691 45.511C43.8938 45.3758 42.7106 42.7389 42.7106 42.7389C42.3171 41.645 42.1246 40.8664 41.8992 38.7835C41.8992 38.7835 41.4936 36.3832 41.4597 36.1128C41.4259 35.8424 40.2089 33.273 39.8032 32.9012C39.3975 32.5293 39.3975 32.3264 39.1271 32.9688C38.8566 33.6111 38.8566 34.8958 38.8566 34.8958C38.8566 34.8958 38.9242 36.6875 39.4651 38.1074C40.0061 39.5273 40.6146 41.7923 40.6146 41.7923C40.6146 41.7923 40.6146 42.7051 41.1217 43.4488Z" fill="#E0E0E0"/>
<path d="M24.7274 41.9215C24.7274 41.9215 24.6379 47.0823 25.0655 47.3866C25.493 47.6908 26.1354 47.3189 26.1354 47.3189C26.8543 46.6084 27.1324 45.7121 27.8376 43.5104C28.26 41.4157 28.5563 40.1476 28.4342 38.6306C28.2966 38.4393 27.8249 38.3718 27.8249 38.3718C27.8249 38.3718 25.3578 38.1235 25.0528 39.1039C24.7477 40.0843 24.8324 40.0481 24.7274 41.9215Z" fill="#E0E0E0"/>
<path d="M29.8573 38.1087C29.6855 42.1506 27.8989 45.5712 27.5246 45.8504C27.1504 46.1296 28.8431 45.8504 30.6349 43.7206C32.4266 41.5908 32.9675 39.5286 32.9675 39.5286C33.1887 39.0734 32.7919 34.9416 32.4266 35.2689C32.0613 35.5963 32.0576 36.3875 31.1082 37.0945C30.1587 37.8015 30.795 37.3038 30.3306 37.6692C30.2091 37.7648 29.8713 37.7797 29.8573 38.1087Z" fill="#E0E0E0"/>
<path d="M29.9886 34.7096C30.0126 36.5817 29.3818 36.5018 29.5491 36.8056C29.7164 37.1095 30.2928 37.6508 31.2056 36.3323C32.1184 35.0139 31.9047 35.0328 32.1184 34.7096C32.3321 34.3864 32.2554 32.7157 32.6274 31.6338C32.9993 30.552 32.7713 30.4773 32.9316 29.8083C33.0919 29.1393 32.8621 27.0187 31.9156 26.9003C30.969 26.7819 29.8872 27.5426 29.7181 28.0159C29.5491 28.4892 29.6471 29.1328 29.7181 29.8083C29.7892 30.4838 29.767 31.2952 29.8534 32.1741C29.9397 33.0531 29.9645 32.8376 29.9886 34.7096Z" fill="#E0E0E0"/>
<path d="M29.2112 18.5844C29.6845 18.7872 30.462 19.6662 31.0367 20.5114C31.6115 21.3566 32.4968 22.3994 32.9299 23.3511C33.6433 24.1079 33.6625 24.2187 33.3018 24.602C32.9411 24.9852 32.9637 24.94 30.4282 26.2585C27.8927 27.5769 25.0192 27.6108 24.8501 26.3599C24.6811 25.1091 24.8501 24.2639 24.8501 22.3707C24.8501 20.4776 24.9177 20.1395 25.6277 19.2267C26.3377 18.3139 28.7379 18.3815 29.2112 18.5844Z" fill="#E0E0E0"/>
<path d="M28.7373 36.0617C28.6697 35.4531 27.8245 34.1009 26.6751 34.3037C25.9542 34.431 25.7652 34.4651 25.7245 34.4729C25.6686 34.4746 25.0433 34.5139 24.8496 35.3855C24.6467 36.2983 24.8496 37.0083 24.8496 37.0083C24.8496 37.0083 24.7143 38.0563 26.0328 38.0563C27.3512 38.0563 27.2836 38.0563 28.1626 37.7858C29.0416 37.5154 28.8049 36.6702 28.7373 36.0617Z" fill="#E0E0E0"/>
<path d="M29.0091 32.8161C28.9076 32.3428 27.9824 31.4977 27.2849 31.1596C26.5874 30.8215 26.5074 30.5511 25.9664 30.5849C25.4255 30.6187 25.0074 30.6525 24.8046 31.5653C24.6017 32.4781 24.8046 33.6275 24.8046 33.6275C24.8046 33.6275 24.648 34.0332 25.9665 34.0332C27.2849 34.0332 27.3863 34.3374 28.1977 34.2022C29.009 34.0669 29.1105 33.2894 29.0091 32.8161Z" fill="#E0E0E0"/>
<path d="M28.8731 29.8747C28.7717 29.4014 28.3197 28.5901 27.6222 28.252C26.9248 27.9139 26.5404 27.6435 26.0347 27.6463C25.5289 27.6492 25.391 27.4406 24.9515 27.9815C24.512 28.5224 24.4444 29.3338 24.8728 29.7085C25.3012 30.0833 25.0529 30.1113 25.8981 30.2466C26.7433 30.3818 27.5884 31.2946 28.3998 31.1594C29.2112 31.0241 28.9745 30.348 28.8731 29.8747Z" fill="#E0E0E0"/>
<path d="M27.5549 14.8647C27.8592 15.2027 32.3892 17.5692 32.0174 17.7382C31.6455 17.9073 27.5549 17.6706 26.6421 17.9073C25.7293 18.1439 25.4251 18.82 25.4251 18.82C24.8359 19.6409 24.5123 19.3947 24.3095 18.7186C24.1066 18.0425 25.8984 13.0391 26.8112 12.6334C27.7239 12.2277 27.6225 12.2616 27.7239 12.8025C27.8254 13.3434 27.2506 14.5266 27.5549 14.8647Z" fill="#E0E0E0"/>
<path d="M23.9348 12.9675C22.1092 12.8999 20.7232 12.021 20.4865 11.6153C20.2498 11.2096 20.4183 8.3963 20.1484 7.96417C19.8785 7.53204 19.3768 4.76907 20.4865 2.99459C21.5254 1.68717 22.0416 0.999997 24.07 1C26.0984 1 26.35 1.68868 27.3831 2.99459C28.4161 4.3005 28.1606 7.52477 27.8225 7.96417C27.4845 8.40357 27.6873 11.2096 27.3831 11.6153C27.0788 12.021 25.7603 13.0352 23.9348 12.9675Z" fill="#E0E0E0"/>
<path d="M28.4803 6.4867C28.4463 6.2502 27.7874 5.74586 27.6415 6.02758C27.4956 6.30931 27.5581 8.60287 27.6419 8.64878C27.7258 8.69469 27.9829 8.63978 28.1128 8.60193C28.2426 8.56408 28.5142 6.7232 28.4803 6.4867Z" fill="#E0E0E0"/>
<path d="M19.4274 6.42713C19.4614 6.19063 20.1203 5.68629 20.2662 5.96801C20.4121 6.24974 20.3497 8.54329 20.2658 8.58921C20.1819 8.63512 19.9248 8.58021 19.795 8.54236C19.6651 8.50451 19.3935 6.66363 19.4274 6.42713Z" fill="#E0E0E0"/>
</g>
<defs>
<clipPath id="clip0_736_3231">
<rect width="48" height="48" rx="24" fill="white"/>
</clipPath>
</defs>
</svg>
