<svg width="48" height="48" viewBox="0 0 48 48" fill="none" xmlns="http://www.w3.org/2000/svg">
<g clip-path="url(#clip0_736_3105)">
<path d="M22.8495 17.7626C22.8834 18.1344 22.5451 29.7977 22.3424 28.1074C22.1397 26.4171 15.412 9.51378 16.8319 12.0831C18.2518 14.6524 22.8155 17.3908 22.8495 17.7626Z" fill="#E74C3C"/>
<path d="M22.5462 58.9725C22.0765 58.5254 21.5989 58.0439 20.0107 56.3694C17.4819 49.8491 17.0561 47.9954 16.8667 45.0105C16.5708 43.984 17.6361 39.861 18.0161 39.1959C18.396 38.5307 19.7383 35.1812 20.4502 34.6994C21.0393 34.3007 21.3942 39.9325 21.4033 41.1977C21.6383 41.7221 22.5462 45.1105 22.5462 46.0247C22.5462 47.1404 21.1172 54.1109 21.701 55.5581C22.2849 57.0053 22.772 58.0526 22.5462 58.9725Z" fill="#E0E0E0"/>
<path d="M16.0549 27.6339C16.0549 27.6339 17.61 38.3509 17.8466 38.452C18.0833 38.5531 19.9426 35.1392 20.3821 33.212C20.8216 31.2847 20.6526 26.0114 20.5512 24.997C20.4497 23.9825 16.7322 13.1332 16.5282 12.3195C16.3242 11.5057 15.5876 10.025 15.4464 10.4263C15.3051 10.8276 14.497 18.2875 14.7364 17.9314C14.8322 21.0635 15.047 23.0708 16.0549 27.6339Z" fill="#E74C3C"/>
<path d="M21.4302 36.5259C21.4302 36.5259 21.6445 38.5981 21.7006 39.8389C21.7567 41.0798 22.6437 36.0228 22.681 35.1398C22.7072 33.7219 22.7701 33.1182 22.3767 30.035C22.3767 30.035 21.3625 25.5725 21.2273 26.181C21.0921 26.7896 21.2273 29.1898 21.2273 29.5279C21.2273 29.866 20.7202 33.9228 20.7202 34.2608C20.7202 34.5989 21.0863 35.1978 21.4302 36.5259Z" fill="#E0E0E0"/>
<path d="M13.8365 -4.32958C13.7013 -3.9239 12.18 0.707605 12.3828 0.876638C12.5857 1.04567 12.8223 0.50479 13.3294 -0.509433C13.8365 -1.52366 14.3436 -4.02535 14.276 -4.22816C14.2084 -4.43098 13.9718 -4.73526 13.8365 -4.32958Z" fill="#E0E0E0"/>
<path d="M9.88132 -3.75555C9.57707 -1.79477 9.40802 4.83133 9.64467 4.52707C9.88132 4.22281 11.1322 2.02535 11.5716 1.51828C12.0111 1.01121 12.4506 -0.882022 12.7211 -1.59193C12.9915 -2.30183 13.6247 -4.5333 13.7691 -6.66292C13.7691 -6.66292 13.7691 -7.5757 12.8901 -7.23764C12.0111 -6.89957 11.4364 -6.35866 11.4364 -6.35866C11.4364 -6.35866 10.1856 -5.71634 9.88132 -3.75555Z" fill="#E0E0E0"/>
<path d="M9.71242 4.86541C10.8957 2.97225 12.1127 1.07906 12.3493 1.45094C12.586 1.82281 12.586 2.56655 12.586 2.56655C12.3289 3.53804 12.0717 4.1231 11.5042 5.20347C11.0813 6.99814 10.6692 7.93483 9.91526 9.59833C9.95336 9.43086 7.44437 15.6496 7.31215 15.8526C7.17994 16.0555 7.24454 14.5004 7.31215 13.9256C7.37977 13.3508 8.52919 6.75856 9.71242 4.86541Z" fill="#E0E0E0"/>
<path d="M7.07609 11.7284C6.56898 12.4721 4.70963 13.9258 4.50679 13.7906C4.30395 13.6554 5.48718 11.0184 5.48718 11.0184C5.88067 9.92459 6.07317 9.1459 6.29854 7.06306C6.29854 7.06306 6.7042 4.66277 6.73802 4.39233C6.77184 4.1219 7.98886 1.55258 8.39455 1.1807C8.80024 0.80883 8.80023 0.605991 9.07068 1.24832C9.34114 1.89064 9.34114 3.17529 9.34114 3.17529C9.34114 3.17529 9.27354 4.96705 8.73262 6.38692C8.1917 7.8068 7.58319 10.0718 7.58319 10.0718C7.58319 10.0718 7.5832 10.9846 7.07609 11.7284Z" fill="#E0E0E0"/>
<path d="M4.96957 14.403C5.3076 14.2678 6.86275 12.3746 6.99797 12.6113C7.1332 12.8479 6.59229 15.9243 6.79513 16.499C6.99797 17.0737 7.03178 16.9048 7.1332 17.6823C7.23462 18.4598 6.49087 19.5078 6.49087 19.5078C6.49087 19.5078 5.27383 20.7924 4.76673 20.7586C4.25963 20.7249 5.67951 20.1163 5.47667 18.595C5.27383 17.0737 5.1048 17.0737 4.96957 17.0737C4.83435 17.0738 4.32725 17.3779 4.15821 17.378C3.98918 17.3781 3.48208 17.1752 3.17782 16.9723C2.87356 16.7694 1.75794 16.9046 1.45368 16.8709C1.14942 16.8371 3.38063 14.7411 3.85395 14.7073C4.32728 14.6734 4.63154 14.5382 4.96957 14.403Z" fill="#E0E0E0"/>
<path d="M4.15885 23.023C4.59833 22.685 5.57872 20.8258 5.57873 20.6566C5.57873 20.4874 4.83498 21.0286 4.69975 21.0961C4.56453 21.1635 4.36168 20.7581 4.29407 20.6566C4.22646 20.555 4.86879 20.0482 4.9364 19.9466C5.00401 19.8451 5.27446 19.1692 5.24066 18.8648C5.20685 18.5604 5.13924 17.4451 4.86879 17.4449C4.59833 17.4448 4.36169 17.58 4.15885 17.614C3.956 17.6479 3.04323 17.2081 2.87419 17.1745C2.70516 17.1408 1.75858 17.0055 1.42051 17.1745C1.08244 17.3435 -0.134596 17.783 -0.236016 17.952C-0.337436 18.1211 0.135857 18.5944 0.440116 18.6282C0.744376 18.662 1.62335 18.3577 1.62335 18.3577C1.62335 18.3577 2.80658 18.0197 2.63755 18.3577C2.46851 18.6958 0.642956 21.8398 0.60915 22.0088C0.575343 22.1779 0.50773 22.5836 0.744376 22.6174C0.981023 22.6512 0.981023 22.5497 1.15006 22.6174C1.31909 22.685 0.981023 23.4287 0.981023 23.4287C0.981023 23.4287 1.01483 23.8682 1.25148 23.8682C1.48812 23.8682 1.79882 23.6584 1.92761 23.4287C2.05639 23.1991 2.09664 23.4963 2.09664 23.4963C2.09664 23.4963 2.23187 23.8006 2.36709 23.8682C2.50232 23.9358 2.80658 23.8006 2.94181 23.6992C3.07703 23.5977 3.65175 22.7188 3.65175 22.7188C3.65175 22.7188 3.71936 23.3611 4.15885 23.023Z" fill="#E0E0E0"/>
<path d="M43.234 14.403C42.896 14.2678 41.3409 12.3746 41.2056 12.6113C41.0704 12.8479 41.6113 15.9243 41.4085 16.499C41.2056 17.0737 41.1718 16.9048 41.0704 17.6823C40.969 18.4598 41.7127 19.5078 41.7127 19.5078C41.7127 19.5078 42.9298 20.7924 43.4369 20.7586C43.944 20.7249 42.5241 20.1163 42.7269 18.595C42.9298 17.0737 43.0988 17.0737 43.234 17.0737C43.3693 17.0738 43.8764 17.3779 44.0454 17.378C44.2144 17.3781 44.7215 17.1752 45.0258 16.9723C45.3301 16.7694 46.4457 16.9046 46.7499 16.8709C47.0542 16.8371 44.823 14.7411 44.3497 14.7073C43.8763 14.6734 43.5721 14.5382 43.234 14.403Z" fill="#E0E0E0"/>
<path d="M44.0467 23.023C43.6072 22.685 42.6268 20.8258 42.6268 20.6566C42.6268 20.4874 43.3706 21.0286 43.5058 21.0961C43.641 21.1635 43.8439 20.7581 43.9115 20.6566C43.9791 20.555 43.3368 20.0482 43.2692 19.9466C43.2016 19.8451 42.9311 19.1692 42.9649 18.8648C42.9987 18.5604 43.0663 17.4451 43.3368 17.4449C43.6072 17.4448 43.8439 17.58 44.0467 17.614C44.2496 17.6479 45.1623 17.2081 45.3314 17.1745C45.5004 17.1408 46.447 17.0055 46.7851 17.1745C47.1231 17.3435 48.3402 17.783 48.4416 17.952C48.543 18.1211 48.0697 18.5944 47.7655 18.6282C47.4612 18.662 46.5822 18.3577 46.5822 18.3577C46.5822 18.3577 45.399 18.0197 45.568 18.3577C45.7371 18.6958 47.5626 21.8398 47.5964 22.0088C47.6302 22.1779 47.6978 22.5836 47.4612 22.6174C47.2245 22.6512 47.2245 22.5497 47.0555 22.6174C46.8865 22.685 47.2245 23.4287 47.2245 23.4287C47.2245 23.4287 47.1907 23.8682 46.9541 23.8682C46.7174 23.8682 46.4067 23.6584 46.278 23.4287C46.1492 23.1991 46.1089 23.4963 46.1089 23.4963C46.1089 23.4963 45.9737 23.8006 45.8385 23.8682C45.7032 23.9358 45.399 23.8006 45.2638 23.6992C45.1285 23.5977 44.5538 22.7188 44.5538 22.7188C44.5538 22.7188 44.4862 23.3611 44.0467 23.023Z" fill="#E0E0E0"/>
<path d="M23.4703 10.2018C23.4703 10.2018 23.5598 15.3626 23.1323 15.6668C22.7047 15.9711 22.0624 15.5992 22.0624 15.5992C21.3435 14.8887 21.0654 13.9923 20.3601 11.7907C19.9378 9.69596 19.6415 8.42788 19.7635 6.91092C19.9011 6.71954 20.3728 6.65208 20.3728 6.65208C20.3728 6.65208 22.8399 6.40382 23.145 7.38418C23.45 8.36454 23.3654 8.3284 23.4703 10.2018Z" fill="#E0E0E0"/>
<path d="M18.3404 6.38799C18.5122 10.4299 20.2988 13.8505 20.6731 14.1297C21.0474 14.4089 19.3546 14.1297 17.5629 11.9999C15.7711 9.87008 15.2302 7.80786 15.2302 7.80786C15.0091 7.35267 15.4058 3.22091 15.7711 3.54823C16.1364 3.87555 16.1401 4.66683 17.0896 5.37381C18.0391 6.0808 17.4027 5.58308 17.8672 5.94853C17.9886 6.04412 18.3265 6.05895 18.3404 6.38799Z" fill="#E0E0E0"/>
<path d="M18.2082 2.9899C18.1841 4.86194 18.815 4.78208 18.6477 5.08591C18.4804 5.38973 17.9039 5.93107 16.9912 4.61261C16.0784 3.29416 16.2921 3.31307 16.0784 2.9899C15.8646 2.66672 15.9413 0.995929 15.5694 -0.0858836C15.1975 -1.1677 15.4255 -1.24246 15.2652 -1.91144C15.1048 -2.58042 15.3346 -4.70101 16.2812 -4.81944C17.2278 -4.93787 18.3096 -4.17713 18.4787 -3.70384C18.6477 -3.23055 18.5497 -2.58694 18.4787 -1.91144C18.4076 -1.23594 18.4298 -0.42457 18.3434 0.454399C18.2571 1.33337 18.2322 1.11785 18.2082 2.9899Z" fill="#E0E0E0"/>
<path d="M19.4595 4.34098C19.5271 3.73244 20.3722 2.38019 21.5217 2.58303C22.2426 2.71026 22.4316 2.74438 22.4723 2.75215C22.5282 2.75391 23.1535 2.79316 23.3472 3.66484C23.5501 4.57762 23.3472 5.28756 23.3472 5.28756C23.3472 5.28756 23.4824 6.33557 22.164 6.33557C20.8455 6.33557 20.9131 6.33557 20.0342 6.06511C19.1552 5.79466 19.3919 4.94951 19.4595 4.34098Z" fill="#E0E0E0"/>
<path d="M19.1892 1.09638C19.2906 0.623109 20.2158 -0.222016 20.9133 -0.560117C21.6108 -0.898218 21.6909 -1.16864 22.2318 -1.13484C22.7727 -1.10103 23.1908 -1.06722 23.3937 -0.154444C23.5965 0.758336 23.3937 1.90776 23.3937 1.90776C23.3937 1.90776 23.5502 2.31344 22.2318 2.31344C20.9133 2.31344 20.8119 2.61768 20.0006 2.48244C19.1892 2.34721 19.0878 1.56965 19.1892 1.09638Z" fill="#E0E0E0"/>
<path d="M25.3478 17.7331C25.3138 18.1049 25.6522 29.7682 25.8549 28.0779C26.0576 26.3876 32.7852 9.48424 31.3654 12.0535C29.9455 14.6228 25.3817 17.3612 25.3478 17.7331Z" fill="#E74C3C"/>
<path d="M25.6506 58.9427C26.1203 58.4956 26.5978 58.0141 28.1861 56.3396C30.7148 49.8194 31.1406 47.9656 31.3301 44.9808C31.626 43.9542 30.5606 39.8312 30.1807 39.1661C29.8007 38.5009 28.4585 35.1514 27.7466 34.6696C27.1575 34.2709 26.8026 39.9027 26.7935 41.1679C26.5585 41.6923 25.6506 45.0807 25.6506 45.9949C25.6506 47.1106 27.0796 54.0811 26.4957 55.5283C25.9119 56.9756 25.4247 58.0229 25.6506 58.9427Z" fill="#E0E0E0"/>
<path d="M32.1419 27.6046C32.1419 27.6046 30.5868 38.3216 30.3502 38.4227C30.1135 38.5238 28.2541 35.1099 27.8147 33.1827C27.3752 31.2554 27.5442 25.9821 27.6456 24.9677C27.747 23.9532 31.4646 13.1039 31.6686 12.2902C31.8726 11.4764 32.6092 9.99572 32.7504 10.397C32.8916 10.7983 33.6997 18.2582 33.4604 17.9021C33.3646 21.0342 33.1498 23.0415 32.1419 27.6046Z" fill="#E74C3C"/>
<path d="M26.7671 36.4956C26.7671 36.4956 26.5528 38.5678 26.4967 39.8087C26.4405 41.0495 25.5535 35.9925 25.5163 35.1095C25.4901 33.6916 25.4271 33.0879 25.8205 30.0047C25.8205 30.0047 26.8347 25.5423 26.97 26.1508C27.1052 26.7593 26.97 29.1596 26.97 29.4976C26.97 29.8357 27.4771 33.8925 27.4771 34.2306C27.4771 34.5686 27.111 35.1675 26.7671 36.4956Z" fill="#E0E0E0"/>
<path d="M34.3607 -4.35986C34.496 -3.95418 36.0173 0.677331 35.8144 0.846365C35.6116 1.0154 35.3749 0.474516 34.8678 -0.539706C34.3607 -1.55393 33.8536 -4.05562 33.9212 -4.25844C33.9889 -4.46125 34.2255 -4.76554 34.3607 -4.35986Z" fill="#E0E0E0"/>
<path d="M38.3155 -3.78509C38.6197 -1.82431 38.7888 4.80179 38.5521 4.49753C38.3155 4.19327 37.0646 1.99581 36.6251 1.48874C36.1856 0.981671 35.7462 -0.911563 35.4757 -1.62147C35.2053 -2.33138 34.5721 -4.56284 34.4277 -6.69246C34.4277 -6.69246 34.4277 -7.60524 35.3067 -7.26718C36.1856 -6.92911 36.7604 -6.38821 36.7604 -6.38821C36.7604 -6.38821 38.0112 -5.74588 38.3155 -3.78509Z" fill="#E0E0E0"/>
<path d="M38.4848 4.83611C37.3016 2.94296 36.0846 1.04977 35.8479 1.42164C35.6113 1.79351 35.6113 2.53726 35.6113 2.53726C35.8684 3.50874 36.1256 4.09381 36.6931 5.17418C37.1159 6.96884 37.5281 7.90553 38.282 9.56904C38.2439 9.40156 40.7529 15.6203 40.8851 15.8233C41.0173 16.0262 40.9527 14.4711 40.8851 13.8963C40.8175 13.3215 39.6681 6.72926 38.4848 4.83611Z" fill="#E0E0E0"/>
<path d="M41.1212 11.6988C41.6283 12.4426 43.4876 13.8963 43.6905 13.761C43.8933 13.6258 42.7101 10.9889 42.7101 10.9889C42.3166 9.89505 42.1241 9.11636 41.8987 7.03352C41.8987 7.03352 41.4931 4.63323 41.4592 4.36279C41.4254 4.09235 40.2084 1.52304 39.8027 1.15116C39.397 0.779289 39.397 0.57645 39.1266 1.21878C38.8561 1.8611 38.8561 3.14575 38.8561 3.14575C38.8561 3.14575 38.9237 4.9375 39.4646 6.35738C40.0056 7.77726 40.6141 10.0423 40.6141 10.0423C40.6141 10.0423 40.6141 10.9551 41.1212 11.6988Z" fill="#E0E0E0"/>
<path d="M24.7269 10.1715C24.7269 10.1715 24.6375 15.3323 25.065 15.6366C25.4926 15.9408 26.1349 15.5689 26.1349 15.5689C26.8538 14.8584 27.1319 13.9621 27.8371 11.7604C28.2595 9.66569 28.5558 8.3976 28.4337 6.88064C28.2961 6.68926 27.8244 6.62181 27.8244 6.62181C27.8244 6.62181 25.3573 6.37355 25.0523 7.35391C24.7472 8.33427 24.8319 8.29813 24.7269 10.1715Z" fill="#E0E0E0"/>
<path d="M29.8568 6.35869C29.685 10.4006 27.8984 13.8212 27.5242 14.1004C27.1499 14.3796 28.8426 14.1004 30.6344 11.9706C32.4261 9.84078 32.967 7.77857 32.967 7.77857C33.1882 7.32337 32.7914 3.19161 32.4261 3.51893C32.0608 3.84625 32.0571 4.63753 31.1077 5.34452C30.1582 6.0515 30.7945 5.55378 30.3301 5.91923C30.2086 6.01483 29.8708 6.02965 29.8568 6.35869Z" fill="#E0E0E0"/>
<path d="M29.9881 2.95938C30.0121 4.83142 29.3813 4.75156 29.5486 5.05539C29.7159 5.35922 30.2924 5.90056 31.2051 4.5821C32.1179 3.26364 31.9042 3.28255 32.1179 2.95938C32.3317 2.6362 32.255 0.965411 32.6269 -0.116401C32.9988 -1.19821 32.7708 -1.27297 32.9311 -1.94196C33.0915 -2.61094 32.8617 -4.73153 31.9151 -4.84996C30.9685 -4.96839 29.8867 -4.20765 29.7176 -3.73436C29.5486 -3.26107 29.6466 -2.61746 29.7176 -1.94196C29.7887 -1.26645 29.7665 -0.455087 29.8529 0.423882C29.9392 1.30285 29.964 1.08733 29.9881 2.95938Z" fill="#E0E0E0"/>
<path d="M28.7378 4.31144C28.6702 3.7029 27.825 2.35065 26.6756 2.55349C25.9546 2.68072 25.7657 2.71484 25.725 2.72261C25.6691 2.72437 25.0438 2.76362 24.85 3.6353C24.6472 4.54808 24.85 5.25802 24.85 5.25802C24.85 5.25802 24.7148 6.30603 26.0333 6.30603C27.3517 6.30603 27.2841 6.30603 28.1631 6.03557C29.0421 5.76512 28.8054 4.91997 28.7378 4.31144Z" fill="#E0E0E0"/>
<path d="M29.0081 1.06586C28.9067 0.592591 27.9814 -0.252534 27.2839 -0.590635C26.5864 -0.928735 26.5064 -1.19916 25.9655 -1.16535C25.4246 -1.13155 25.0064 -1.09774 24.8036 -0.184961C24.6007 0.727818 24.8036 1.87724 24.8036 1.87724C24.8036 1.87724 24.647 2.28292 25.9655 2.28292C27.2839 2.28292 27.3854 2.58716 28.1967 2.45193C29.0081 2.31669 29.1095 1.53914 29.0081 1.06586Z" fill="#E0E0E0"/>
</g>
<defs>
<clipPath id="clip0_736_3105">
<rect width="48" height="48" rx="24" fill="white"/>
</clipPath>
</defs>
</svg>
