<svg width="48" height="48" viewBox="0 0 48 48" fill="none" xmlns="http://www.w3.org/2000/svg">
<g clip-path="url(#clip0_736_2978)">
<path d="M15.6036 53.0152C15.7082 54.2696 17.3807 62.249 17.3459 61.2037C17.311 60.1583 16.8929 55.0361 17.2065 53.503C17.5201 51.9698 17.764 49.914 17.764 47.6142C17.764 45.3145 16.196 44.7221 16.196 44.7221C16.196 44.7221 15.29 44.1994 15.29 45.5584C15.29 46.9173 15.4991 51.7607 15.6036 53.0152Z" fill="#E0E0E0"/>
<path d="M17.9032 49.7739C17.9032 49.7739 17.7638 50.8193 18.4258 50.5057C19.0879 50.192 23.2344 48.3801 23.4783 46.4985C23.5091 46.2612 23.5722 46.0107 23.5427 45.9061C23.5132 45.8016 23.3389 45.3835 23.3389 45.3835C22.2091 43.9267 21.6357 42.5604 20.621 40.0522C20.5492 39.6776 20.4739 39.4994 19.8545 39.6341C18.038 40.2346 17.239 41.0517 16.3003 43.5715C16.3003 43.5715 16.0564 44.1291 16.3003 44.3381C16.5442 44.5472 16.8927 44.7214 16.8927 44.7214C16.8927 44.7214 17.8335 45.6971 17.9032 46.8121C17.9728 47.9271 17.9032 49.7739 17.9032 49.7739Z" fill="#E0E0E0"/>
<path d="M12.1557 18.8347C13.4101 17.8242 15.1252 16.8309 15.7873 17.0051C16.4494 17.1793 17.0417 17.7369 17.0417 17.7369C17.0417 17.7369 18.0174 19.0261 17.6689 19.5139C17.3205 20.0017 16.7251 19.9669 15.5008 21.5177C14.2765 23.0685 12.7825 23.3965 12.6779 23.4314C12.5734 23.4662 10.8312 23.6753 10.5877 23.4862C10.3442 23.2971 10.5877 22.354 10.5877 22.354C10.5877 22.354 10.9013 19.8452 12.1557 18.8347Z" fill="#E0E0E0"/>
<path d="M23.4788 30.1562C23.4788 30.4698 23.841 43.7275 23.653 44.4426C23.465 45.1576 21.9524 42.0292 21.3175 40.0173C20.6814 38.1747 20.1791 37.0797 20.0988 37.1949C18.9829 36.0313 18.8444 36.5328 18.7747 36.2192C18.705 35.9056 18.8444 34.2331 19.4368 33.1529C20.0291 32.0727 20.5867 31.2364 20.97 30.8531C21.3532 30.4698 21.4229 30.4001 22.1895 29.6684C22.9561 28.9366 22.7122 29.0064 22.9213 29.1806C23.1303 29.3548 23.4788 29.8426 23.4788 30.1562Z" fill="#E0E0E0"/>
<path d="M15.9526 36.8114C15.9177 37.4386 15.3254 42.3169 15.5345 42.3866C15.7435 42.4563 16.8237 40.5049 18.1827 39.8777C19.5416 39.2505 19.681 39.4596 20.1688 39.2157C20.6566 38.9718 19.1932 36.9856 18.9144 36.8114C18.6356 36.6372 18.1827 36.1145 18.1827 36.1145C18.1827 36.1145 19.4022 31.7589 19.681 31.6195C19.9597 31.4802 17.9736 32.0725 17.207 31.7589C16.4404 31.4453 15.5345 29.4243 15.3254 29.4243C15.1163 29.4243 16.1617 33.3966 16.301 34.0238C16.4404 34.651 16.301 35.1389 16.301 35.1389C16.165 35.792 15.9875 36.1842 15.9526 36.8114Z" fill="#E0E0E0"/>
<path d="M17.6593 25.2087C17.6593 25.2087 15.3596 24.5815 15.0808 24.4421C14.802 24.3028 14.8717 26.0101 14.9066 26.7419C14.9414 27.4737 15.3944 29.1462 15.8474 29.7385C16.3004 30.3309 16.9276 31.5505 18.3562 31.5156C19.7849 31.4807 20.7953 30.5052 20.9347 30.3309C21.0741 30.1566 22.3633 29.0068 22.4679 28.4144C22.5724 27.822 21.4922 26.6722 21.4225 26.5328C21.3529 26.3934 20.4469 24.8951 20.203 24.9648C19.9591 25.0345 18.9162 25.2765 17.6593 25.2087Z" fill="#E0E0E0"/>
<path d="M16.0229 21.5504C15.6745 22.073 14.9079 23.3623 14.9776 23.7804C15.0473 24.1986 16.5804 24.7212 17.3819 24.8955C18.1833 25.0697 20.2043 24.8955 20.0649 24.547C19.9256 24.1986 18.8802 22.7699 18.6363 22.2821C18.3924 21.7943 18.0788 20.2611 17.8349 20.0172C17.591 19.7733 16.3714 21.0277 16.0229 21.5504Z" fill="#E0E0E0"/>
<path d="M10.9008 23.8496C11.319 23.7451 12.5734 23.8496 13.3748 23.5709C14.1762 23.2921 13.8975 23.2573 14.2111 23.3618C14.5247 23.4664 14.5247 26.1494 14.5247 26.1494C14.5247 26.1494 14.455 27.6129 14.2111 28.1704C13.9672 28.7279 13.1658 29.5294 12.887 29.9475C12.6082 30.3656 11.8765 32.8396 11.4584 32.8048C11.0402 32.7699 10.5524 32.8048 10.1691 32.526C9.7858 32.2472 9.82065 31.2019 9.82065 30.5398C9.82065 29.8778 10.1691 28.7279 10.1691 28.2749C10.1691 27.822 9.96003 27.6129 9.92518 27.0554C9.89034 26.4979 10.4827 23.9542 10.9008 23.8496Z" fill="#E74C3C"/>
<path d="M5.13052 45.0346C5.63885 44.9649 6.99778 45.4527 7.13716 45.6966C7.27654 45.9405 7.13716 46.2541 7.27655 46.9859C7.41594 47.7176 7.25605 47.4252 7.36058 48.2265C7.46512 49.0279 6.69853 50.1082 6.69853 50.1082C6.69853 50.1082 5.44412 51.4321 4.92145 51.3974C4.39878 51.3626 5.86226 50.7354 5.65319 49.1673C5.44412 47.5993 5.2699 47.5993 5.13052 47.5993C4.99114 47.5994 4.46847 47.9129 4.29424 47.9129C4.12002 47.913 3.59735 47.7039 3.28375 47.4948C2.97014 47.2857 1.82027 47.425 1.50666 47.3903C1.19306 47.3555 3.54813 45.2089 4.03599 45.174C4.52384 45.1391 4.62219 45.1043 5.13052 45.0346Z" fill="#E0E0E0"/>
<path d="M4.29423 53.732C4.74721 53.3836 5.75771 51.4673 5.75771 51.2929C5.75772 51.1185 4.99113 51.6764 4.85175 51.7459C4.71237 51.8154 4.5033 51.3976 4.43361 51.2929C4.36392 51.1882 5.02597 50.6659 5.09566 50.5612C5.16535 50.4565 5.44411 49.7599 5.40927 49.4461C5.37442 49.1324 5.30473 47.9828 5.02597 47.9827C4.74722 47.9825 4.5033 48.1219 4.29423 48.1569C4.08516 48.1919 3.14436 47.7386 2.97013 47.7039C2.79591 47.6692 1.82026 47.5297 1.47181 47.7039C1.12336 47.8781 -0.131053 48.3311 -0.235587 48.5053C-0.340121 48.6796 0.147705 49.1674 0.461308 49.2022C0.774911 49.2371 1.68088 48.9235 1.68088 48.9235C1.68088 48.9235 2.90044 48.575 2.72622 48.9235C2.55199 49.2719 0.670377 52.5125 0.635532 52.6867C0.600687 52.8609 0.530998 53.2791 0.774911 53.3139C1.01882 53.3488 1.01882 53.2442 1.19305 53.3139C1.36727 53.3836 1.01882 54.1502 1.01882 54.1502C1.01882 54.1502 1.05367 54.6032 1.29758 54.6032C1.5415 54.6032 1.86174 54.3869 1.99448 54.1502C2.12722 53.9135 2.1687 54.2199 2.1687 54.2199C2.1687 54.2199 2.30808 54.5335 2.44746 54.6032C2.58684 54.6729 2.90044 54.5335 3.03982 54.4289C3.1792 54.3244 3.77156 53.4184 3.77156 53.4184C3.77156 53.4184 3.84125 54.0805 4.29423 53.732Z" fill="#E0E0E0"/>
<path d="M6.19676 38.5892C5.95287 39.739 4.35 44.5128 4.38484 44.7218C4.41967 44.9309 5.39532 44.6173 6.19676 44.9309C6.99821 45.2445 7.24211 45.4884 7.48602 45.4187C7.72993 45.349 11.1099 37.4044 11.2493 36.9515C11.3886 36.4985 12.3643 33.9548 12.5037 33.5715C12.6431 33.1882 12.7127 32.7004 12.5037 32.4565C12.2946 32.2126 11.826 33.505 11.3538 33.4321C10.8816 33.3592 10.8108 32.8964 10.5175 32.8049C10.2243 32.7135 9.71607 33.014 9.57671 32.8049C9.43734 32.5959 9.61157 30.8188 9.36764 30.8885C9.12371 30.9582 7.48604 33.467 7.24211 34.0593C6.99818 34.6517 6.96336 36.2197 6.82397 36.7772C6.68458 37.3347 6.44066 37.4393 6.19676 38.5892Z" fill="#E0E0E0"/>
<path d="M12.8872 30.7146C12.8872 30.7146 12.2643 31.6311 12.2252 32.1432C12.1861 32.6553 13.2353 31.1916 13.4099 30.7146C13.4099 30.7146 14.1416 29.042 14.1416 28.9026C14.1417 28.7633 12.8872 30.7146 12.8872 30.7146Z" fill="#E74C3C"/>
<path d="M21.9111 26.3239C22.9216 27.3692 23.5837 29.8083 23.5837 29.6341C23.5837 29.4599 23.7579 20.226 23.5837 19.4246C23.4094 18.6232 22.6777 16.637 21.9111 16.3234C21.1445 16.0098 19.019 16.1492 18.4963 16.184C17.9737 16.2189 15.7087 16.7415 16.1269 16.8112C16.545 16.8809 17.5555 17.3339 17.9737 18.5883C18.3918 19.8427 18.4963 21.2365 19.019 22.247C19.5417 23.2575 20.9006 25.2785 21.9111 26.3239Z" fill="#E0E0E0"/>
<path d="M32.5936 53.0152C32.4891 54.2696 30.8165 62.249 30.8514 61.2037C30.8862 60.1583 31.3044 55.0361 30.9908 53.503C30.6772 51.9698 30.4332 49.914 30.4332 47.6142C30.4332 45.3145 32.0013 44.7221 32.0013 44.7221C32.0013 44.7221 32.9072 44.1994 32.9072 45.5584C32.9072 46.9173 32.6982 51.7607 32.5936 53.0152Z" fill="#E0E0E0"/>
<path d="M30.2941 49.7739C30.2941 49.7739 30.4335 50.8193 29.7714 50.5057C29.1094 50.192 24.9628 48.3801 24.7189 46.4985C24.6882 46.2612 24.625 46.0107 24.6546 45.9061C24.6841 45.8016 24.8583 45.3835 24.8583 45.3835C25.9881 43.9267 26.5616 42.5604 27.5762 40.0522C27.648 39.6776 27.7234 39.4994 28.3428 39.6341C30.1593 40.2346 30.9582 41.0517 31.897 43.5715C31.897 43.5715 32.1409 44.1291 31.897 44.3381C31.6531 44.5472 31.3046 44.7214 31.3046 44.7214C31.3046 44.7214 30.3638 45.6971 30.2941 46.8121C30.2244 47.9271 30.2941 49.7739 30.2941 49.7739Z" fill="#E0E0E0"/>
<path d="M36.0416 18.8347C34.7871 17.8242 33.072 16.8309 32.41 17.0051C31.7479 17.1793 31.1556 17.7369 31.1556 17.7369C31.1556 17.7369 30.1799 19.0261 30.5283 19.5139C30.8768 20.0017 31.4721 19.9669 32.6965 21.5177C33.9208 23.0685 35.4148 23.3965 35.5193 23.4314C35.6239 23.4662 37.3661 23.6753 37.6096 23.4862C37.853 23.2971 37.6096 22.354 37.6096 22.354C37.6096 22.354 37.296 19.8452 36.0416 18.8347Z" fill="#E0E0E0"/>
<path d="M24.7185 30.1562C24.7185 30.4698 24.3563 43.7275 24.5443 44.4426C24.7323 45.1576 26.2449 42.0292 26.8798 40.0173C27.5158 38.1747 28.0181 37.0797 28.0984 37.1949C29.2144 36.0313 29.3528 36.5328 29.4225 36.2192C29.4922 35.9056 29.3528 34.2331 28.7605 33.1529C28.1681 32.0727 27.6106 31.2364 27.2273 30.8531C26.844 30.4698 26.7743 30.4001 26.0078 29.6684C25.2412 28.9366 25.4851 29.0064 25.276 29.1806C25.0669 29.3548 24.7185 29.8426 24.7185 30.1562Z" fill="#E0E0E0"/>
<path d="M32.2447 36.8114C32.2795 37.4386 32.8719 42.3169 32.6628 42.3866C32.4537 42.4563 31.3735 40.5049 30.0146 39.8777C28.6557 39.2505 28.5163 39.4596 28.0284 39.2157C27.5406 38.9718 29.0041 36.9856 29.2829 36.8114C29.5616 36.6372 30.0146 36.1145 30.0146 36.1145C30.0146 36.1145 28.795 31.7589 28.5163 31.6195C28.2375 31.4802 30.2237 32.0725 30.9903 31.7589C31.7568 31.4453 32.6628 29.4243 32.8719 29.4243C33.0809 29.4243 32.0356 33.3966 31.8962 34.0238C31.7568 34.651 31.8962 35.1389 31.8962 35.1389C32.0323 35.792 32.2098 36.1842 32.2447 36.8114Z" fill="#E0E0E0"/>
<path d="M30.538 25.2087C30.538 25.2087 32.8377 24.5815 33.1165 24.4421C33.3952 24.3028 33.3255 26.0101 33.2907 26.7419C33.2559 27.4737 32.8029 29.1462 32.3499 29.7385C31.8969 30.3309 31.2697 31.5505 29.8411 31.5156C28.4124 31.4807 27.4019 30.5052 27.2625 30.3309C27.1232 30.1566 25.8339 29.0068 25.7294 28.4144C25.6248 27.822 26.705 26.6722 26.7747 26.5328C26.8444 26.3934 27.7504 24.8951 27.9943 24.9648C28.2382 25.0345 29.281 25.2765 30.538 25.2087Z" fill="#E0E0E0"/>
<path d="M32.1743 21.5504C32.5228 22.073 33.2894 23.3623 33.2197 23.7804C33.15 24.1986 31.6168 24.7212 30.8154 24.8955C30.0139 25.0697 27.9929 24.8955 28.1323 24.547C28.2717 24.1986 29.317 22.7699 29.561 22.2821C29.8049 21.7943 30.1185 20.2611 30.3624 20.0172C30.6063 19.7733 31.8259 21.0277 32.1743 21.5504Z" fill="#E0E0E0"/>
<path d="M37.2964 23.8499C36.8783 23.7454 35.6239 23.8499 34.8225 23.5711C34.021 23.2924 34.2998 23.2575 33.9862 23.3621C33.6726 23.4666 33.6726 26.1496 33.6726 26.1496C33.6726 26.1496 33.7423 27.6132 33.9862 28.1706C34.2301 28.7281 35.0315 29.5296 35.3103 29.9477C35.589 30.3658 36.3208 32.8399 36.7389 32.805C37.1571 32.7701 37.6449 32.805 38.0282 32.5262C38.4115 32.2475 38.3766 31.2021 38.3766 30.5401C38.3766 29.8781 38.0282 28.7281 38.0282 28.2752C38.0282 27.8222 38.2372 27.6131 38.2721 27.0556C38.3069 26.4981 37.7146 23.9544 37.2964 23.8499Z" fill="#E74C3C"/>
<path d="M43.0663 45.0346C42.5579 44.9649 41.199 45.4527 41.0596 45.6966C40.9202 45.9405 41.0596 46.2541 40.9202 46.9859C40.7808 47.7176 40.9407 47.4252 40.8362 48.2265C40.7317 49.0279 41.4982 50.1082 41.4982 50.1082C41.4982 50.1082 42.7527 51.4321 43.2753 51.3974C43.798 51.3626 42.3345 50.7354 42.5436 49.1673C42.7527 47.5993 42.9269 47.5993 43.0663 47.5993C43.2056 47.5994 43.7283 47.9129 43.9025 47.9129C44.0768 47.913 44.5994 47.7039 44.913 47.4948C45.2266 47.2857 46.3765 47.425 46.6901 47.3903C47.0037 47.3555 44.6486 45.2089 44.1608 45.174C43.6729 45.1391 43.5746 45.1043 43.0663 45.0346Z" fill="#E0E0E0"/>
<path d="M43.9029 53.732C43.4499 53.3836 42.4394 51.4673 42.4394 51.2929C42.4394 51.1185 43.206 51.6764 43.3454 51.7459C43.4848 51.8154 43.6938 51.3976 43.7635 51.2929C43.8332 51.1882 43.1712 50.6659 43.1015 50.5612C43.0318 50.4565 42.753 49.7599 42.7879 49.4461C42.8227 49.1324 42.8924 47.9828 43.1712 47.9827C43.4499 47.9825 43.6938 48.1219 43.9029 48.1569C44.112 48.1919 45.0528 47.7386 45.227 47.7039C45.4012 47.6692 46.3769 47.5297 46.7253 47.7039C47.0738 47.8781 48.3282 48.3311 48.4327 48.5053C48.5373 48.6796 48.0494 49.1674 47.7358 49.2022C47.4222 49.2371 46.5163 48.9235 46.5163 48.9235C46.5163 48.9235 45.2967 48.575 45.4709 48.9235C45.6452 49.2719 47.5268 52.5125 47.5616 52.6867C47.5965 52.8609 47.6661 53.2791 47.4222 53.3139C47.1783 53.3488 47.1783 53.2442 47.0041 53.3139C46.8299 53.3836 47.1783 54.1502 47.1783 54.1502C47.1783 54.1502 47.1435 54.6032 46.8996 54.6032C46.6556 54.6032 46.3354 54.3869 46.2027 54.1502C46.0699 53.9135 46.0284 54.2199 46.0284 54.2199C46.0284 54.2199 45.8891 54.5335 45.7497 54.6032C45.6103 54.6729 45.2967 54.5335 45.1573 54.4289C45.0179 54.3244 44.4256 53.4184 44.4256 53.4184C44.4256 53.4184 44.3559 54.0805 43.9029 53.732Z" fill="#E0E0E0"/>
<path d="M42.001 38.5892C42.2449 39.739 43.8478 44.5128 43.8129 44.7218C43.7781 44.9309 42.8024 44.6173 42.001 44.9309C41.1995 45.2445 40.9557 45.4884 40.7117 45.4187C40.4678 45.349 37.0879 37.4044 36.9485 36.9515C36.8091 36.4985 35.8335 33.9548 35.6941 33.5715C35.5547 33.1882 35.485 32.7004 35.6941 32.4565C35.9032 32.2126 36.3718 33.505 36.844 33.4321C37.3161 33.3592 37.387 32.8964 37.6802 32.8049C37.9735 32.7135 38.4817 33.014 38.6211 32.8049C38.7604 32.5959 38.5862 30.8188 38.8301 30.8885C39.0741 30.9582 40.7117 33.467 40.9557 34.0593C41.1996 34.6517 41.2344 36.2197 41.3738 36.7772C41.5132 37.3347 41.7571 37.4393 42.001 38.5892Z" fill="#E0E0E0"/>
<path d="M35.31 30.7146C35.31 30.7146 35.933 31.6311 35.9721 32.1432C36.0112 32.6553 34.962 31.1916 34.7874 30.7146C34.7874 30.7146 34.0556 29.042 34.0556 28.9026C34.0556 28.7633 35.31 30.7146 35.31 30.7146Z" fill="#E74C3C"/>
<path d="M26.2861 26.3239C25.2757 27.3692 24.6136 29.8083 24.6136 29.6341C24.6136 29.4599 24.4394 20.226 24.6136 19.4246C24.7878 18.6232 25.5196 16.637 26.2861 16.3234C27.0527 16.0098 29.1783 16.1492 29.7009 16.184C30.2236 16.2189 32.4885 16.7415 32.0704 16.8112C31.6522 16.8809 30.6417 17.3339 30.2236 18.5883C29.8055 19.8427 29.7009 21.2365 29.1783 22.247C28.6556 23.2575 27.2966 25.2785 26.2861 26.3239Z" fill="#E0E0E0"/>
<path fill-rule="evenodd" clip-rule="evenodd" d="M23.4441 1.02635C22.9949 1.11631 22.3411 1.35263 21.9872 1.55306C21.2953 1.94499 20.4626 2.95375 20.2155 3.69956C20.0519 4.19325 19.8913 5.19712 19.8906 5.72969C19.8899 6.35731 20.091 7.8486 20.2654 8.50814C20.3622 8.87457 20.4456 9.52052 20.5779 10.9302C20.6355 11.5432 20.6502 11.5856 20.874 11.7828C21.0035 11.897 21.1294 11.9909 21.1536 11.9915C21.1778 11.9921 21.2199 11.755 21.2471 11.4646C21.3117 10.7753 21.5917 9.73935 21.8175 9.35403C22.2284 8.65275 22.6614 8.33775 23.5145 8.1192C24.2271 7.93662 25.0826 8.09349 25.754 8.52988C26.3952 8.94663 26.8677 9.9866 27.0185 11.3131C27.0611 11.6868 27.1148 11.9926 27.1379 11.9926C27.1611 11.9926 27.2926 11.8895 27.4301 11.7636C27.6724 11.5417 27.6815 11.515 27.7238 10.9099C27.7825 10.0689 27.9428 8.88851 28.102 8.12485C28.5104 6.16609 28.4881 4.76219 28.03 3.59642C27.8553 3.15188 27.3627 2.41358 27.0207 2.08367C26.65 1.72596 26.0051 1.35333 25.4668 1.18573C25.0182 1.046 23.8183 0.951499 23.4441 1.02635ZM19.0269 6.97518C18.8883 7.12857 18.7749 7.26418 18.7749 7.27645C18.7749 7.28871 18.8649 7.48461 18.9749 7.7118C19.0849 7.93899 19.288 8.36354 19.4264 8.65519C19.5648 8.94691 19.7241 9.22392 19.7806 9.27075C19.8984 9.36853 20.1687 9.30643 20.1687 9.18162C20.1687 9.08259 19.8165 7.6702 19.6488 7.09693C19.505 6.60548 19.3826 6.58151 19.0269 6.97518ZM28.6036 7.23631C28.4525 7.73494 28.3397 8.18018 28.1841 8.89143C28.1111 9.22504 28.2388 9.42742 28.4457 9.30616C28.5466 9.24692 29.4867 7.46733 29.5021 7.30621C29.512 7.20244 29 6.69621 28.8851 6.69621C28.7986 6.69621 28.7236 6.83984 28.6036 7.23631ZM23.5138 8.42967C23.3796 8.45936 23.1409 8.55037 22.9832 8.63191C22.6666 8.79547 22.6585 8.81917 22.5702 9.83224C22.5274 10.3236 22.4374 10.9142 22.2572 11.8881C22.1524 12.4539 21.9979 12.9667 21.8688 13.1773C21.7966 13.295 21.7772 13.3063 21.809 13.2122C22.004 12.6361 22.225 10.9722 22.2788 9.676C22.3027 9.10015 22.2974 9.07277 22.1825 9.17667C21.9967 9.34483 21.7044 10.0113 21.5601 10.596C21.4846 10.9023 21.4123 11.5284 21.3869 12.0972C21.2903 14.2647 21.1416 14.4968 19.1582 15.5769C18.9608 15.6844 19.0408 15.6893 20.5868 15.6642C21.7683 15.645 22.2828 15.6112 22.4336 15.543C23.015 15.2799 23.4495 14.7473 23.7096 13.9788C23.8606 13.5327 24.0681 12.3184 24.0762 11.833C24.0841 11.3575 24.2 11.1878 24.2058 11.6431C24.2124 12.1559 24.4073 13.4884 24.5299 13.8589C24.6967 14.3629 24.9694 14.842 25.2482 15.1208C25.7442 15.6168 25.7981 15.6291 27.6529 15.6692C28.8857 15.6957 29.3052 15.6845 29.269 15.6259C29.2421 15.5824 29.1901 15.5468 29.1533 15.5468C29.0055 15.5468 27.8465 14.8368 27.5102 14.5403C27.0294 14.1163 26.9394 13.8327 26.8566 12.4804C26.7791 11.2146 26.707 10.6933 26.5435 10.2155C26.3854 9.75321 26.1295 9.25291 25.9932 9.13988C25.8965 9.0596 25.8832 9.07876 25.8832 9.29828C25.8832 9.74102 26.1359 12.1624 26.2117 12.4456C26.2322 12.5223 26.2256 12.5629 26.1971 12.5359C26.1685 12.5089 26.1169 12.3365 26.0823 12.1526C25.8739 11.0459 25.7489 10.2046 25.7066 9.62317C25.68 9.25905 25.6315 8.91018 25.5988 8.84788C25.566 8.78558 25.3937 8.6662 25.2158 8.58264C24.861 8.41587 23.9469 8.33371 23.5138 8.42967Z" fill="#E0E0E0"/>
<path d="M23.4845 15.4617C22.927 15.9843 22.6134 16.2631 22.5437 16.2631C22.474 16.2631 23.136 16.7161 23.4845 17.3433C23.8329 17.9705 24.1117 19.5037 24.1117 19.5037C24.1117 19.5037 24.4253 17.7963 24.8086 17.2736C25.1919 16.751 25.6797 16.3328 25.6797 16.2631C25.6797 16.1934 25.2616 16.0192 24.7389 15.4617C24.2162 14.9042 24.2511 13.4407 24.1117 13.4058C23.9723 13.371 24.042 14.939 23.4845 15.4617Z" fill="#E0E0E0"/>
</g>
<defs>
<clipPath id="clip0_736_2978">
<rect width="48" height="48" rx="24" fill="white"/>
</clipPath>
</defs>
</svg>
